spectral-lightitalic.ufo
<glyph name="exclam" format="2">
  <advance width="226.27272727272728"/>
  <unicode hex="0021"/>
  <outline>
    <contour>
      <point x="84.0909090909091" y="200.0" type="line"/>
      <point x="99.9090909090909" y="200.0" type="line"/>
      <point x="211.27272727272728" y="660.0" type="line"/>
      <point x="138.0" y="660.0" type="line"/>
    </contour>
    <contour>
      <point x="58.09090909090909" y="-5.0" type="curve" smooth="yes"/>
      <point x="91.27272727272727" y="-5.0"/>
      <point x="113.0909090909091" y="24.90909090909091"/>
      <point x="113.0909090909091" y="53.45454545454545" type="curve" smooth="yes"/>
      <point x="113.0909090909091" y="79.18181818181819"/>
      <point x="99.18181818181819" y="98.0"/>
      <point x="70.0" y="98.0" type="curve" smooth="yes"/>
      <point x="37.27272727272727" y="98.0"/>
      <point x="15.0" y="68.0909090909091"/>
      <point x="15.0" y="40.09090909090909" type="curve" smooth="yes"/>
      <point x="15.0" y="13.818181818181818"/>
      <point x="28.363636363636363" y="-5.0"/>
    </contour>
  </outline>
</glyph>
<glyph name="numbersign" format="2">
  <advance width="500.0"/>
  <unicode hex="0023"/>
  <outline>
    <contour>
      <point x="14.272727272727273" y="0.0" type="line"/>
      <point x="55.27272727272727" y="0.0" type="line"/>
      <point x="323.72727272727275" y="660.0" type="line"/>
      <point x="282.72727272727275" y="660.0" type="line"/>
    </contour>
    <contour>
      <point x="217.8181818181818" y="0.0" type="line"/>
      <point x="486.27272727272725" y="660.0" type="line"/>
      <point x="445.27272727272725" y="660.0" type="line"/>
      <point x="176.8181818181818" y="0.0" type="line"/>
    </contour>
    <contour>
      <point x="91.18181818181819" y="412.90909090909093" type="line"/>
      <point x="478.72727272727275" y="412.90909090909093" type="line"/>
      <point x="485.1818181818182" y="450.0" type="line"/>
      <point x="97.63636363636364" y="450.0" type="line"/>
    </contour>
    <contour>
      <point x="402.45454545454544" y="207.45454545454547" type="line"/>
      <point x="408.90909090909093" y="244.54545454545453" type="line"/>
      <point x="20.818181818181817" y="244.54545454545453" type="line"/>
      <point x="14.363636363636363" y="207.45454545454547" type="line"/>
    </contour>
  </outline>
</glyph>
<glyph name="dollar" format="2">
  <advance width="500.0"/>
  <unicode hex="0024"/>
  <outline>
    <contour>
      <point x="207.9090909090909" y="-10.0" type="curve" smooth="yes"/>
      <point x="335.09090909090907" y="-10.0"/>
      <point x="423.54545454545456" y="75.0909090909091"/>
      <point x="423.54545454545456" y="185.36363636363637" type="curve" smooth="yes"/>
      <point x="423.54545454545456" y="267.3636363636364"/>
      <point x="380.8181818181818" y="311.09090909090907"/>
      <point x="288.90909090909093" y="366.3636363636364" type="curve" smooth="yes"/>
      <point x="200.36363636363637" y="419.8181818181818"/>
      <point x="178.1818181818182" y="453.6363636363636"/>
      <point x="178.1818181818182" y="507.72727272727275" type="curve" smooth="yes"/>
      <point x="178.1818181818182" y="586.7272727272727"/>
      <point x="234.36363636363637" y="636.2727272727273"/>
      <point x="318.0" y="636.2727272727273" type="curve" smooth="yes"/>
      <point x="393.27272727272725" y="636.2727272727273"/>
      <point x="427.72727272727275" y="602.2727272727273"/>
      <point x="417.6363636363636" y="542.6363636363636" type="curve" smooth="yes"/>
      <point x="412.54545454545456" y="512.3636363636364" type="line"/>
      <point x="417.09090909090907" y="507.8181818181818" type="line"/>
      <point x="439.1818181818182" y="507.8181818181818" type="line" smooth="yes"/>
      <point x="468.72727272727275" y="507.8181818181818"/>
      <point x="479.90909090909093" y="526.1818181818181"/>
      <point x="479.90909090909093" y="557.6363636363636" type="curve" smooth="yes"/>
      <point x="479.90909090909093" y="581.5454545454545"/>
      <point x="471.0" y="606.0"/>
      <point x="447.0" y="628.4545454545455" type="curve" smooth="yes"/>
      <point x="418.90909090909093" y="654.0"/>
      <point x="380.09090909090907" y="670.0"/>
      <point x="330.27272727272725" y="670.0" type="curve" smooth="yes"/>
      <point x="219.72727272727272" y="670.0"/>
      <point x="121.45454545454545" y="591.3636363636364"/>
      <point x="121.45454545454545" y="483.90909090909093" type="curve" smooth="yes"/>
      <point x="121.45454545454545" y="414.8181818181818"/>
      <point x="153.72727272727272" y="373.1818181818182"/>
      <point x="230.54545454545453" y="326.6363636363636" type="curve" smooth="yes"/>
      <point x="320.27272727272725" y="272.1818181818182"/>
      <point x="364.27272727272725" y="238.45454545454547"/>
      <point x="364.27272727272725" y="169.54545454545453" type="curve" smooth="yes"/>
      <point x="364.27272727272725" y="86.72727272727272"/>
      <point x="312.27272727272725" y="22.81818181818182"/>
      <point x="212.8181818181818" y="22.81818181818182" type="curve" smooth="yes"/>
      <point x="138.63636363636363" y="22.81818181818182"/>
      <point x="100.36363636363636" y="68.45454545454545"/>
      <point x="111.45454545454545" y="141.0" type="curve" smooth="yes"/>
      <point x="115.45454545454545" y="168.0" type="line"/>
      <point x="111.0" y="172.0" type="line"/>
      <point x="86.72727272727272" y="172.0" type="line" smooth="yes"/>
      <point x="61.0" y="172.0"/>
      <point x="47.0" y="154.95412321663636"/>
      <point x="47.0" y="122.0" type="curve" smooth="yes"/>
      <point x="47.0" y="95.0"/>
      <point x="56.90909090909091" y="66.45454545454545"/>
      <point x="78.45454545454545" y="43.0" type="curve" smooth="yes"/>
      <point x="101.54545454545455" y="16.90909090909091"/>
      <point x="151.1818181818182" y="-10.0"/>
    </contour>
    <contour>
      <point x="136.36363636363637" y="-80.0" type="line"/>
      <point x="169.0" y="-80.0" type="line"/>
      <point x="309.3636363636364" y="740.0" type="line"/>
      <point x="276.72727272727275" y="740.0" type="line"/>
    </contour>
    <contour>
      <point x="228.9090909090909" y="-80.0" type="line"/>
      <point x="261.54545454545456" y="-80.0" type="line"/>
      <point x="401.90909090909093" y="740.0" type="line"/>
      <point x="369.72727272727275" y="740.0" type="line"/>
    </contour>
  </outline>
</glyph>
<glyph name="ampersand" format="2">
  <advance width="723.7272727272727"/>
  <unicode hex="0026"/>
  <outline>
    <contour>
      <point x="570.2727272727273" y="-10.0" type="curve" smooth="yes"/>
      <point x="609.7272727272727" y="-10.0"/>
      <point x="647.2727272727273" y="7.181818181818182"/>
      <point x="673.3636363636364" y="42.63636363636364" type="curve"/>
      <point x="665.4545454545455" y="52.54545454545455" type="line"/>
      <point x="663.4545454545455" y="52.54545454545455" type="line"/>
      <point x="645.4545454545455" y="36.54545454545455"/>
      <point x="627.4545454545455" y="29.545454545454547"/>
      <point x="604.4545454545455" y="29.545454545454547" type="curve" smooth="yes"/>
      <point x="552.4545454545455" y="29.545454545454547"/>
      <point x="512.0" y="66.81818181818181"/>
      <point x="466.54545454545456" y="126.81818181818181" type="curve"/>
      <point x="295.8181818181818" y="347.8181818181818" type="line" smooth="yes"/>
      <point x="240.0909090909091" y="420.0"/>
      <point x="213.36363636363637" y="463.72727272727275"/>
      <point x="213.36363636363637" y="522.0" type="curve" smooth="yes"/>
      <point x="213.36363636363637" y="597.0"/>
      <point x="261.3636363636364" y="638.2727272727273"/>
      <point x="321.6363636363636" y="638.2727272727273" type="curve" smooth="yes"/>
      <point x="378.6363636363636" y="638.2727272727273"/>
      <point x="407.3636363636364" y="603.3636363636364"/>
      <point x="407.3636363636364" y="555.9090909090909" type="curve" smooth="yes"/>
      <point x="407.3636363636364" y="494.3636363636364"/>
      <point x="367.27272727272725" y="440.0"/>
      <point x="261.1818181818182" y="379.72727272727275" type="curve"/>
      <point x="269.09090909090907" y="362.90909090909093" type="line"/>
      <point x="402.90909090909093" y="430.8181818181818"/>
      <point x="469.27272727272725" y="479.1818181818182"/>
      <point x="469.27272727272725" y="558.7272727272727" type="curve" smooth="yes"/>
      <point x="469.27272727272725" y="620.7272727272727"/>
      <point x="414.72727272727275" y="670.0"/>
      <point x="330.09090909090907" y="670.0" type="curve" smooth="yes"/>
      <point x="230.1818181818182" y="670.0"/>
      <point x="155.0909090909091" y="600.4545454545455"/>
      <point x="155.0909090909091" y="498.90909090909093" type="curve" smooth="yes"/>
      <point x="155.0909090909091" y="414.3636363636364"/>
      <point x="206.45454545454547" y="359.72727272727275"/>
      <point x="261.0909090909091" y="287.9090909090909" type="curve" smooth="yes"/>
      <point x="408.72727272727275" y="93.27272727272727" type="line"/>
      <point x="455.1818181818182" y="31.81818181818182"/>
      <point x="493.45454545454544" y="-10.0"/>
    </contour>
    <contour>
      <point x="189.1818181818182" y="-10.0" type="curve" smooth="yes"/>
      <point x="352.6363636363636" y="-10.0"/>
      <point x="472.09090909090907" y="136.54545454545453"/>
      <point x="598.8181818181819" y="358.1818181818182" type="curve"/>
      <point x="565.9090909090909" y="338.09090909090907" type="line"/>
      <point x="673.5454545454545" y="373.6363636363636" type="line"/>
      <point x="676.0" y="389.09090909090907" type="line"/>
      <point x="462.0" y="389.09090909090907" type="line"/>
      <point x="459.54545454545456" y="373.6363636363636" type="line"/>
      <point x="546.0" y="346.09090909090907" type="line"/>
      <point x="455.90909090909093" y="153.45454545454547"/>
      <point x="341.45454545454544" y="34.27272727272727"/>
      <point x="221.63636363636363" y="34.27272727272727" type="curve" smooth="yes"/>
      <point x="146.0909090909091" y="34.27272727272727"/>
      <point x="103.54545454545455" y="85.9090909090909"/>
      <point x="103.54545454545455" y="154.36363636363637" type="curve" smooth="yes"/>
      <point x="103.54545454545455" y="230.9090909090909"/>
      <point x="140.45454545454547" y="287.72727272727275"/>
      <point x="232.9090909090909" y="345.54545454545456" type="curve"/>
      <point x="218.27272727272728" y="360.1818181818182" type="line"/>
      <point x="94.0909090909091" y="289.1818181818182"/>
      <point x="38.18181818181818" y="228.63636363636363"/>
      <point x="38.18181818181818" y="130.0" type="curve" smooth="yes"/>
      <point x="38.18181818181818" y="49.18181818181818"/>
      <point x="95.45454545454545" y="-10.0"/>
    </contour>
  </outline>
</glyph>
<glyph name="quotesingle" format="2">
  <advance width="233.0909090909091"/>
  <unicode hex="0027"/>
  <outline>
    <contour>
      <point x="140.1818181818182" y="490.0" type="line"/>
      <point x="160.1818181818182" y="490.0" type="line"/>
      <point x="232.0909090909091" y="740.0" type="line"/>
      <point x="156.27272727272728" y="740.0" type="line"/>
    </contour>
  </outline>
</glyph>
<glyph name="parenleft" format="2">
  <advance width="250.0"/>
  <unicode hex="0028"/>
  <outline>
    <contour>
      <point x="152.1818181818182" y="-150.0" type="curve"/>
      <point x="168.9090909090909" y="-150.0" type="line"/>
      <point x="168.9090909090909" y="-147.0" type="line"/>
      <point x="127.9090909090909" y="-48.45454545454545"/>
      <point x="105.9090909090909" y="48.36363636363637"/>
      <point x="105.9090909090909" y="174.9090909090909" type="curve" smooth="yes"/>
      <point x="105.9090909090909" y="389.72727272727275"/>
      <point x="184.8181818181818" y="571.8181818181819"/>
      <point x="320.1818181818182" y="737.0" type="curve"/>
      <point x="320.1818181818182" y="740.0" type="line"/>
      <point x="303.45454545454544" y="740.0" type="line"/>
      <point x="158.72727272727272" y="595.7272727272727"/>
      <point x="60.45454545454545" y="403.27272727272725"/>
      <point x="60.45454545454545" y="192.8181818181818" type="curve" smooth="yes"/>
      <point x="60.45454545454545" y="65.72727272727273"/>
      <point x="95.0" y="-50.27272727272727"/>
    </contour>
  </outline>
</glyph>
<glyph name="parenright" format="2">
  <advance width="250.0"/>
  <unicode hex="0029"/>
  <outline>
    <contour>
      <point x="-67.18181818181819" y="-149.0" type="line"/>
      <point x="-50.45454545454545" y="-149.0" type="line"/>
      <point x="94.27272727272727" y="-4.727272727272727"/>
      <point x="192.54545454545453" y="187.72727272727272"/>
      <point x="192.54545454545453" y="398.1818181818182" type="curve" smooth="yes"/>
      <point x="192.54545454545453" y="525.2727272727273"/>
      <point x="158.0" y="641.2727272727273"/>
      <point x="100.81818181818181" y="741.0" type="curve"/>
      <point x="84.0909090909091" y="741.0" type="line"/>
      <point x="84.0909090909091" y="738.0" type="line"/>
      <point x="125.0909090909091" y="639.4545454545455"/>
      <point x="147.0909090909091" y="542.6363636363636"/>
      <point x="147.0909090909091" y="416.09090909090907" type="curve" smooth="yes"/>
      <point x="147.0909090909091" y="201.27272727272728"/>
      <point x="68.18181818181819" y="19.181818181818183"/>
      <point x="-67.18181818181819" y="-146.0" type="curve"/>
    </contour>
  </outline>
</glyph>
<glyph name="asterisk" format="2">
  <advance width="361.8181818181818"/>
  <unicode hex="002A"/>
  <outline>
    <contour>
      <point x="96.0909090909091" y="464.72727272727275" type="line"/>
      <point x="129.72727272727272" y="436.3636363636364" type="line"/>
      <point x="224.54545454545453" y="560.9090909090909" type="line"/>
      <point x="276.72727272727275" y="436.90909090909093" type="line"/>
      <point x="318.6363636363636" y="463.6363636363636" type="line"/>
      <point x="242.27272727272728" y="575.0909090909091" type="line"/>
      <point x="387.8181818181818" y="607.0909090909091" type="line"/>
      <point x="379.3636363636364" y="651.9090909090909" type="line"/>
      <point x="238.8181818181818" y="594.1818181818181" type="line"/>
      <point x="278.09090909090907" y="740.0" type="line"/>
      <point x="231.45454545454547" y="740.0" type="line"/>
      <point x="221.0" y="594.1818181818181" type="line"/>
      <point x="98.81818181818181" y="651.9090909090909" type="line"/>
      <point x="77.45454545454545" y="607.0909090909091" type="line"/>
      <point x="211.72727272727272" y="575.0909090909091" type="line"/>
    </contour>
  </outline>
</glyph>
<glyph name="plus" format="2">
  <advance width="500.0"/>
  <unicode hex="002B"/>
  <outline>
    <contour>
      <point x="443.90909090909093" y="253.9090909090909" type="line"/>
      <point x="450.27272727272725" y="290.09090909090907" type="line"/>
      <point x="41.54545454545455" y="290.09090909090907" type="line"/>
      <point x="35.18181818181818" y="253.9090909090909" type="line"/>
    </contour>
    <contour>
      <point x="260.09090909090907" y="482.0" type="line"/>
      <point x="186.0909090909091" y="62.0" type="line"/>
      <point x="225.27272727272728" y="62.0" type="line"/>
      <point x="299.27272727272725" y="482.0" type="line"/>
    </contour>
  </outline>
</glyph>
<glyph name="comma" format="2">
  <advance width="241.1818181818182"/>
  <unicode hex="002C"/>
  <outline>
    <contour>
      <point x="-6.363636363636363" y="-184.9090909090909" type="line"/>
      <point x="95.0909090909091" y="-136.72727272727272"/>
      <point x="143.0" y="-79.45454545454545"/>
      <point x="143.0" y="-16.545454545454547" type="curve" smooth="yes"/>
      <point x="143.0" y="21.90909090909091"/>
      <point x="128.36363636363637" y="49.09090909090909"/>
      <point x="97.0" y="71.0" type="curve" smooth="yes"/>
      <point x="88.54545454545455" y="76.45454545454545"/>
      <point x="82.0" y="79.45454545454545"/>
      <point x="76.0909090909091" y="79.45454545454545" type="curve" smooth="yes"/>
      <point x="67.0" y="79.45454545454545"/>
      <point x="60.45454545454545" y="74.36363636363636"/>
      <point x="49.72727272727273" y="58.54545454545455" type="curve" smooth="yes"/>
      <point x="32.81818181818182" y="35.09090909090909" type="line"/>
      <point x="32.81818181818182" y="27.272727272727273" type="line"/>
      <point x="58.54545454545455" y="9.909090909090908" type="line" smooth="yes"/>
      <point x="79.36363636363636" y="-4.0"/>
      <point x="90.45454545454545" y="-22.0"/>
      <point x="90.45454545454545" y="-51.54545454545455" type="curve" smooth="yes"/>
      <point x="90.45454545454545" y="-94.18181818181819"/>
      <point x="63.27272727272727" y="-132.0"/>
      <point x="-6.363636363636363" y="-168.54545454545453" type="curve"/>
    </contour>
  </outline>
</glyph>
<glyph name="hyphen" format="2">
  <advance width="350.0"/>
  <unicode hex="002D"/>
  <outline>
    <contour>
      <point x="40.0" y="233.36363636363637" type="line"/>
      <point x="301.6363636363636" y="233.36363636363637" type="line"/>
      <point x="310.0" y="280.6363636363636" type="line"/>
      <point x="48.36363636363637" y="280.6363636363636" type="line"/>
    </contour>
  </outline>
</glyph>
<glyph name="period" format="2">
  <advance width="241.1818181818182"/>
  <unicode hex="002E"/>
  <outline>
    <contour>
      <point x="78.0909090909091" y="-5.0" type="curve" smooth="yes"/>
      <point x="111.27272727272727" y="-5.0"/>
      <point x="133.0909090909091" y="22.727272727272727"/>
      <point x="133.0909090909091" y="53.45454545454545" type="curve" smooth="yes"/>
      <point x="133.0909090909091" y="79.18181818181819"/>
      <point x="119.18181818181819" y="98.0"/>
      <point x="90.0" y="98.0" type="curve" smooth="yes"/>
      <point x="57.27272727272727" y="98.0"/>
      <point x="35.0" y="70.27272727272727"/>
      <point x="35.0" y="40.09090909090909" type="curve" smooth="yes"/>
      <point x="35.0" y="13.818181818181818"/>
      <point x="48.36363636363637" y="-5.0"/>
    </contour>
  </outline>
</glyph>
<glyph name="zero" format="2">
  <advance width="500.0"/>
  <unicode hex="0030"/>
  <outline>
    <contour>
      <point x="189.45454545454547" y="-10.0" type="curve" smooth="yes"/>
      <point x="333.6363636363636" y="-10.0"/>
      <point x="460.45454545454544" y="209.1818181818182"/>
      <point x="460.45454545454544" y="452.6363636363636" type="curve" smooth="yes"/>
      <point x="460.45454545454544" y="587.3636363636364"/>
      <point x="408.1818181818182" y="670.0"/>
      <point x="309.0" y="670.0" type="curve" smooth="yes"/>
      <point x="164.8181818181818" y="670.0"/>
      <point x="39.09090909090909" y="451.3636363636364"/>
      <point x="39.09090909090909" y="208.54545454545453" type="curve" smooth="yes"/>
      <point x="39.09090909090909" y="73.18181818181819"/>
      <point x="90.27272727272727" y="-10.0"/>
    </contour>
    <contour>
      <point x="200.72727272727272" y="22.0" type="curve" smooth="yes"/>
      <point x="138.9090909090909" y="22.0"/>
      <point x="107.0909090909091" y="88.72727272727273"/>
      <point x="107.0909090909091" y="209.45454545454547" type="curve" smooth="yes"/>
      <point x="107.0909090909091" y="437.90909090909093"/>
      <point x="198.1818181818182" y="638.0"/>
      <point x="297.72727272727275" y="638.0" type="curve" smooth="yes"/>
      <point x="359.54545454545456" y="638.0"/>
      <point x="391.90909090909093" y="571.2727272727273"/>
      <point x="391.90909090909093" y="451.1818181818182" type="curve" smooth="yes"/>
      <point x="391.90909090909093" y="222.63636363636363"/>
      <point x="300.27272727272725" y="22.0"/>
    </contour>
  </outline>
</glyph>
<glyph name="one" format="2">
  <advance width="500.0"/>
  <unicode hex="0031"/>
  <outline>
    <contour>
      <point x="90.18181818181819" y="0.0" type="line"/>
      <point x="316.27272727272725" y="0.0" type="line"/>
      <point x="319.27272727272725" y="15.454545454545455" type="line"/>
      <point x="247.0909090909091" y="43.45454545454545" type="line"/>
      <point x="356.8181818181818" y="660.0" type="line"/>
      <point x="343.3636363636364" y="660.0" type="line"/>
      <point x="103.81818181818181" y="515.4545454545455" type="line"/>
      <point x="99.0" y="485.90909090909093" type="line"/>
      <point x="279.0" y="582.9090909090909" type="line"/>
      <point x="183.45454545454547" y="43.45454545454545" type="line"/>
      <point x="93.63636363636364" y="15.454545454545455" type="line"/>
    </contour>
  </outline>
</glyph>
<glyph name="two" format="2">
  <advance width="500.0"/>
  <unicode hex="0032"/>
  <outline>
    <contour>
      <point x="3.3636363636363638" y="0.0" type="line"/>
      <point x="380.6363636363636" y="0.0" type="line"/>
      <point x="415.6363636363636" y="156.0909090909091" type="line"/>
      <point x="399.09090909090907" y="156.0909090909091" type="line"/>
      <point x="344.27272727272725" y="56.63636363636364" type="line"/>
      <point x="66.9090909090909" y="56.63636363636364" type="line"/>
      <point x="70.18181818181819" y="41.36363636363636" type="line"/>
      <point x="431.6363636363636" y="375.8181818181818"/>
      <point x="460.6363636363636" y="424.09090909090907"/>
      <point x="460.6363636363636" y="524.0909090909091" type="curve" smooth="yes"/>
      <point x="460.6363636363636" y="604.9090909090909"/>
      <point x="398.1818181818182" y="670.0"/>
      <point x="311.09090909090907" y="670.0" type="curve" smooth="yes"/>
      <point x="247.0" y="670.0"/>
      <point x="205.0" y="645.0"/>
      <point x="157.72727272727272" y="608.0" type="curve" smooth="yes"/>
      <point x="116.63636363636364" y="575.2727272727273"/>
      <point x="99.36363636363636" y="541.8181818181819"/>
      <point x="93.9090909090909" y="509.0" type="curve" smooth="yes"/>
      <point x="86.9090909090909" y="472.0"/>
      <point x="99.81818181818181" y="475.0"/>
      <point x="119.36363636363636" y="475.0" type="curve" smooth="yes"/>
      <point x="152.0909090909091" y="475.0" type="line"/>
      <point x="157.8181818181818" y="481.1818181818182" type="line"/>
      <point x="164.36363636363637" y="519.0" type="line" smooth="yes"/>
      <point x="177.36363636363637" y="594.1818181818181"/>
      <point x="219.0909090909091" y="633.3636363636364"/>
      <point x="281.8181818181818" y="633.3636363636364" type="curve" smooth="yes"/>
      <point x="349.6363636363636" y="633.3636363636364"/>
      <point x="393.54545454545456" y="584.0909090909091"/>
      <point x="393.54545454545456" y="511.6363636363636" type="curve" smooth="yes"/>
      <point x="393.54545454545456" y="422.0"/>
      <point x="357.6363636363636" y="363.0"/>
      <point x="7.818181818181818" y="21.727272727272727" type="curve"/>
    </contour>
  </outline>
</glyph>
<glyph name="three" format="2">
  <advance width="500.0"/>
  <unicode hex="0033"/>
  <outline>
    <contour>
      <point x="185.54545454545453" y="-10.0" type="curve" smooth="yes"/>
      <point x="315.09090909090907" y="-10.0"/>
      <point x="420.3636363636364" y="88.36363636363636"/>
      <point x="420.3636363636364" y="191.54545454545453" type="curve" smooth="yes"/>
      <point x="420.3636363636364" y="292.09090909090907"/>
      <point x="339.3636363636364" y="358.6363636363636"/>
      <point x="218.36363636363637" y="352.6363636363636" type="curve"/>
      <point x="205.1818181818182" y="343.09090909090907" type="line"/>
      <point x="207.1818181818182" y="343.09090909090907"/>
      <point x="209.1818181818182" y="343.09090909090907"/>
      <point x="211.1818181818182" y="343.09090909090907" type="curve" smooth="yes"/>
      <point x="343.8181818181818" y="343.09090909090907"/>
      <point x="445.90909090909093" y="436.90909090909093"/>
      <point x="445.90909090909093" y="526.5454545454545" type="curve" smooth="yes"/>
      <point x="445.90909090909093" y="600.0"/>
      <point x="386.54545454545456" y="670.0"/>
      <point x="294.3636363636364" y="670.0" type="curve" smooth="yes"/>
      <point x="242.1818181818182" y="670.0"/>
      <point x="199.45454545454547" y="652.2727272727273"/>
      <point x="162.63636363636363" y="626.5454545454545" type="curve" smooth="yes"/>
      <point x="116.9090909090909" y="595.6363636363636"/>
      <point x="93.45454545454545" y="562.7272727272727"/>
      <point x="91.27272727272728" y="534.9090909090909" type="curve" smooth="yes"/>
      <point x="87.45454545454545" y="506.09090909090907"/>
      <point x="99.0" y="506.3636363636364"/>
      <point x="116.72727272727273" y="506.3636363636364" type="curve" smooth="yes"/>
      <point x="149.0909090909091" y="506.3636363636364" type="line"/>
      <point x="154.8181818181818" y="511.6363636363636" type="line"/>
      <point x="161.36363636363637" y="551.7272727272727" type="line" smooth="yes"/>
      <point x="170.9090909090909" y="610.8181818181819"/>
      <point x="215.45454545454547" y="637.9090909090909"/>
      <point x="272.09090909090907" y="637.9090909090909" type="curve" smooth="yes"/>
      <point x="342.1818181818182" y="637.9090909090909"/>
      <point x="378.72727272727275" y="589.7272727272727"/>
      <point x="378.72727272727275" y="528.0" type="curve" smooth="yes"/>
      <point x="378.72727272727275" y="439.72727272727275"/>
      <point x="303.45454545454544" y="358.54545454545456"/>
      <point x="183.0" y="358.54545454545456" type="curve" smooth="yes"/>
      <point x="154.0909090909091" y="358.54545454545456" type="line"/>
      <point x="146.72727272727272" y="324.3636363636364" type="line"/>
      <point x="205.0" y="324.3636363636364" type="line" smooth="yes"/>
      <point x="293.45454545454544" y="324.3636363636364"/>
      <point x="352.72727272727275" y="271.27272727272725"/>
      <point x="352.72727272727275" y="189.0" type="curve" smooth="yes"/>
      <point x="352.72727272727275" y="91.27272727272727"/>
      <point x="283.45454545454544" y="21.545454545454547"/>
      <point x="188.0" y="21.545454545454547" type="curve" smooth="yes"/>
      <point x="97.81818181818181" y="21.545454545454547"/>
      <point x="71.72727272727272" y="55.72727272727273"/>
      <point x="77.63636363636364" y="102.0" type="curve" smooth="yes"/>
      <point x="81.54545454545455" y="131.72727272727272" type="line"/>
      <point x="77.63636363636364" y="136.54545454545453" type="line"/>
      <point x="40.90909090909091" y="136.54545454545453" type="line" smooth="yes"/>
      <point x="23.0" y="136.54545454545453"/>
      <point x="10.545454545454547" y="126.18181818181819"/>
      <point x="10.545454545454547" y="95.0" type="curve" smooth="yes"/>
      <point x="10.545454545454547" y="75.54545454545455"/>
      <point x="16.363636363636363" y="59.54545454545455"/>
      <point x="42.72727272727273" y="37.36363636363637" type="curve" smooth="yes"/>
      <point x="68.0" y="15.727272727272727"/>
      <point x="115.81818181818181" y="-10.0"/>
    </contour>
  </outline>
</glyph>
<glyph name="four" format="2">
  <advance width="500.0"/>
  <unicode hex="0034"/>
  <outline>
    <contour>
      <point x="229.9090909090909" y="0.0" type="line"/>
      <point x="293.54545454545456" y="0.0" type="line"/>
      <point x="410.54545454545456" y="660.0" type="line"/>
      <point x="393.8181818181818" y="660.0" type="line"/>
      <point x="-3.909090909090909" y="214.63636363636363" type="line"/>
      <point x="-6.909090909090909" y="195.72727272727272" type="line"/>
      <point x="448.09090909090907" y="195.72727272727272" type="line"/>
      <point x="455.90909090909093" y="240.45454545454547" type="line"/>
      <point x="37.90909090909091" y="240.45454545454547" type="line"/>
      <point x="43.90909090909091" y="217.0" type="line"/>
      <point x="357.1818181818182" y="573.7272727272727" type="line"/>
      <point x="332.0" y="577.5454545454545" type="line"/>
    </contour>
  </outline>
</glyph>
<glyph name="five" format="2">
  <advance width="500.0"/>
  <unicode hex="0035"/>
  <outline>
    <contour>
      <point x="153.63636363636363" y="-10.0" type="curve" smooth="yes"/>
      <point x="316.27272727272725" y="-10.0"/>
      <point x="418.09090909090907" y="114.45454545454545"/>
      <point x="418.09090909090907" y="246.36363636363637" type="curve" smooth="yes"/>
      <point x="418.09090909090907" y="341.6363636363636"/>
      <point x="358.0" y="422.90909090909093"/>
      <point x="211.0909090909091" y="422.90909090909093" type="curve" smooth="yes"/>
      <point x="186.0909090909091" y="422.90909090909093"/>
      <point x="157.9090909090909" y="420.8181818181818"/>
      <point x="135.0" y="417.1818181818182" type="curve"/>
      <point x="135.27272727272728" y="392.72727272727275" type="line"/>
      <point x="175.9090909090909" y="626.0" type="line"/>
      <point x="155.36363636363637" y="603.1818181818181" type="line"/>
      <point x="435.90909090909093" y="603.1818181818181" type="line"/>
      <point x="446.09090909090907" y="660.0" type="line"/>
      <point x="149.0909090909091" y="660.0" type="line"/>
      <point x="96.27272727272727" y="355.90909090909093" type="line"/>
      <point x="132.27272727272728" y="361.90909090909093"/>
      <point x="163.27272727272728" y="364.90909090909093"/>
      <point x="189.27272727272728" y="364.90909090909093" type="curve" smooth="yes"/>
      <point x="312.1818181818182" y="364.90909090909093"/>
      <point x="364.1818181818182" y="309.8181818181818"/>
      <point x="364.1818181818182" y="218.36363636363637" type="curve" smooth="yes"/>
      <point x="364.1818181818182" y="97.36363636363636"/>
      <point x="288.1818181818182" y="33.45454545454545"/>
      <point x="187.63636363636363" y="33.45454545454545" type="curve" smooth="yes"/>
      <point x="127.0" y="33.45454545454545"/>
      <point x="97.45454545454545" y="51.81818181818182"/>
      <point x="85.27272727272727" y="76.63636363636364" type="curve" smooth="yes"/>
      <point x="76.27272727272727" y="95.27272727272727" type="line"/>
      <point x="70.54545454545455" y="95.27272727272727" type="line"/>
      <point x="44.0" y="77.54545454545455" type="line" smooth="yes"/>
      <point x="31.181818181818183" y="69.72727272727273"/>
      <point x="27.90909090909091" y="60.36363636363637"/>
      <point x="27.90909090909091" y="51.0" type="curve" smooth="yes"/>
      <point x="27.90909090909091" y="18.0"/>
      <point x="71.63636363636364" y="-10.0"/>
    </contour>
  </outline>
</glyph>
<glyph name="six" format="2">
  <advance width="500.0"/>
  <unicode hex="0036"/>
  <outline>
    <contour>
      <point x="210.72727272727272" y="-10.0" type="curve" smooth="yes"/>
      <point x="324.45454545454544" y="-10.0"/>
      <point x="437.09090909090907" y="85.0"/>
      <point x="437.09090909090907" y="231.0" type="curve" smooth="yes"/>
      <point x="437.09090909090907" y="318.6363636363636"/>
      <point x="385.27272727272725" y="388.0"/>
      <point x="288.1818181818182" y="388.0" type="curve" smooth="yes"/>
      <point x="192.8181818181818" y="388.0"/>
      <point x="123.81818181818181" y="321.0"/>
      <point x="84.81818181818181" y="231.0" type="curve"/>
      <point x="92.0909090909091" y="204.63636363636363" type="line"/>
      <point x="118.72727272727273" y="285.0"/>
      <point x="195.72727272727272" y="340.72727272727275"/>
      <point x="268.27272727272725" y="340.72727272727275" type="curve" smooth="yes"/>
      <point x="337.90909090909093" y="340.72727272727275"/>
      <point x="373.27272727272725" y="293.54545454545456"/>
      <point x="373.27272727272725" y="212.45454545454547" type="curve" smooth="yes"/>
      <point x="373.27272727272725" y="97.18181818181819"/>
      <point x="305.72727272727275" y="20.636363636363637"/>
      <point x="214.72727272727272" y="20.636363636363637" type="curve" smooth="yes"/>
      <point x="153.1818181818182" y="20.636363636363637"/>
      <point x="101.36363636363636" y="68.9090909090909"/>
      <point x="101.36363636363636" y="181.0" type="curve" smooth="yes"/>
      <point x="101.36363636363636" y="367.72727272727275"/>
      <point x="207.63636363636363" y="560.9090909090909"/>
      <point x="466.27272727272725" y="645.6363636363636" type="curve"/>
      <point x="472.27272727272725" y="670.0" type="line"/>
      <point x="179.54545454545453" y="588.0909090909091"/>
      <point x="33.72727272727273" y="387.45454545454544"/>
      <point x="33.72727272727273" y="187.0" type="curve" smooth="yes"/>
      <point x="33.72727272727273" y="74.0"/>
      <point x="93.0" y="-10.0"/>
    </contour>
  </outline>
</glyph>
<glyph name="seven" format="2">
  <advance width="500.0"/>
  <unicode hex="0037"/>
  <outline>
    <contour>
      <point x="58.81818181818182" y="0.0" type="curve"/>
      <point x="143.45454545454547" y="0.0" type="line"/>
      <point x="257.6363636363636" y="319.0"/>
      <point x="376.45454545454544" y="466.72727272727275"/>
      <point x="501.72727272727275" y="642.1818181818181" type="curve"/>
      <point x="504.72727272727275" y="660.0" type="line"/>
      <point x="102.81818181818181" y="660.0" type="line"/>
      <point x="92.18181818181819" y="603.1818181818181" type="line"/>
      <point x="453.09090909090907" y="603.1818181818181" type="line"/>
      <point x="454.1818181818182" y="626.0" type="line"/>
      <point x="181.45454545454547" y="247.0"/>
      <point x="152.36363636363637" y="170.0"/>
    </contour>
  </outline>
</glyph>
<glyph name="eight" format="2">
  <advance width="500.0"/>
  <unicode hex="0038"/>
  <outline>
    <contour>
      <point x="202.0" y="-10.0" type="curve" smooth="yes"/>
      <point x="324.27272727272725" y="-10.0"/>
      <point x="419.6363636363636" y="78.0"/>
      <point x="419.6363636363636" y="171.0" type="curve" smooth="yes"/>
      <point x="419.6363636363636" y="239.45454545454547"/>
      <point x="392.54545454545456" y="291.27272727272725"/>
      <point x="274.0" y="367.8181818181818" type="curve" smooth="yes"/>
      <point x="187.8181818181818" y="423.90909090909093"/>
      <point x="169.27272727272728" y="467.45454545454544"/>
      <point x="169.27272727272728" y="518.0" type="curve" smooth="yes"/>
      <point x="169.27272727272728" y="584.3636363636364"/>
      <point x="208.54545454545453" y="635.6363636363636"/>
      <point x="291.90909090909093" y="635.6363636363636" type="curve" smooth="yes"/>
      <point x="361.27272727272725" y="635.6363636363636"/>
      <point x="399.45454545454544" y="594.9090909090909"/>
      <point x="399.45454545454544" y="524.5454545454545" type="curve" smooth="yes"/>
      <point x="399.45454545454544" y="444.1818181818182"/>
      <point x="355.54545454545456" y="410.72727272727275"/>
      <point x="260.1818181818182" y="360.27272727272725" type="curve"/>
      <point x="273.54545454545456" y="337.3636363636364" type="line"/>
      <point x="412.72727272727275" y="404.72727272727275"/>
      <point x="461.54545454545456" y="463.90909090909093"/>
      <point x="461.54545454545456" y="530.4545454545455" type="curve" smooth="yes"/>
      <point x="461.54545454545456" y="607.1818181818181"/>
      <point x="400.0" y="670.0"/>
      <point x="306.0" y="670.0" type="curve" smooth="yes"/>
      <point x="198.9090909090909" y="670.0"/>
      <point x="105.72727272727273" y="583.2727272727273"/>
      <point x="105.72727272727273" y="492.45454545454544" type="curve" smooth="yes"/>
      <point x="105.72727272727273" y="434.54545454545456"/>
      <point x="136.72727272727272" y="387.54545454545456"/>
      <point x="225.45454545454547" y="327.72727272727275" type="curve" smooth="yes"/>
      <point x="312.27272727272725" y="269.45454545454544"/>
      <point x="358.3636363636364" y="231.8181818181818"/>
      <point x="358.3636363636364" y="157.0" type="curve" smooth="yes"/>
      <point x="358.3636363636364" y="78.0909090909091"/>
      <point x="306.54545454545456" y="23.90909090909091"/>
      <point x="217.0" y="23.90909090909091" type="curve" smooth="yes"/>
      <point x="135.0" y="23.90909090909091"/>
      <point x="88.72727272727272" y="68.0909090909091"/>
      <point x="88.72727272727272" y="149.0" type="curve" smooth="yes"/>
      <point x="88.72727272727272" y="221.36363636363637"/>
      <point x="121.0909090909091" y="259.8181818181818"/>
      <point x="233.63636363636363" y="330.45454545454544" type="curve"/>
      <point x="215.27272727272728" y="348.0" type="line"/>
      <point x="90.0909090909091" y="283.90909090909093"/>
      <point x="23.0" y="218.72727272727272"/>
      <point x="23.0" y="133.54545454545453" type="curve" smooth="yes"/>
      <point x="23.0" y="46.0"/>
      <point x="104.27272727272727" y="-10.0"/>
    </contour>
  </outline>
</glyph>
<glyph name="nine" format="2">
  <advance width="500.0"/>
  <unicode hex="0039"/>
  <outline>
    <contour>
      <point x="33.72727272727273" y="-10.0" type="line"/>
      <point x="326.45454545454544" y="71.9090909090909"/>
      <point x="472.27272727272725" y="272.54545454545456"/>
      <point x="472.27272727272725" y="473.0" type="curve" smooth="yes"/>
      <point x="472.27272727272725" y="586.0"/>
      <point x="413.0" y="670.0"/>
      <point x="295.27272727272725" y="670.0" type="curve" smooth="yes"/>
      <point x="181.54545454545453" y="670.0"/>
      <point x="68.9090909090909" y="575.0"/>
      <point x="68.9090909090909" y="429.0" type="curve" smooth="yes"/>
      <point x="68.9090909090909" y="341.3636363636364"/>
      <point x="120.72727272727273" y="272.0"/>
      <point x="217.8181818181818" y="272.0" type="curve" smooth="yes"/>
      <point x="313.1818181818182" y="272.0"/>
      <point x="382.1818181818182" y="339.0"/>
      <point x="421.1818181818182" y="429.0" type="curve"/>
      <point x="413.90909090909093" y="455.3636363636364" type="line"/>
      <point x="387.27272727272725" y="375.0"/>
      <point x="310.27272727272725" y="319.27272727272725"/>
      <point x="237.72727272727272" y="319.27272727272725" type="curve" smooth="yes"/>
      <point x="168.0909090909091" y="319.27272727272725"/>
      <point x="132.72727272727272" y="366.45454545454544"/>
      <point x="132.72727272727272" y="447.54545454545456" type="curve" smooth="yes"/>
      <point x="132.72727272727272" y="562.8181818181819"/>
      <point x="200.27272727272728" y="639.3636363636364"/>
      <point x="291.27272727272725" y="639.3636363636364" type="curve" smooth="yes"/>
      <point x="352.8181818181818" y="639.3636363636364"/>
      <point x="404.6363636363636" y="591.0909090909091"/>
      <point x="404.6363636363636" y="479.0" type="curve" smooth="yes"/>
      <point x="404.6363636363636" y="292.27272727272725"/>
      <point x="298.3636363636364" y="99.0909090909091"/>
      <point x="39.72727272727273" y="14.363636363636363" type="curve"/>
    </contour>
  </outline>
</glyph>
<glyph name="less" format="2">
  <advance width="500.0"/>
  <unicode hex="003C"/>
  <outline>
    <contour>
      <point x="411.0" y="62.0" type="line"/>
      <point x="417.3636363636364" y="99.72727272727272" type="line"/>
      <point x="58.45454545454545" y="277.1818181818182" type="line"/>
      <point x="55.0" y="261.8181818181818" type="line"/>
      <point x="477.1818181818182" y="439.27272727272725" type="line"/>
      <point x="484.54545454545456" y="482.0" type="line"/>
      <point x="30.363636363636363" y="290.45454545454544" type="line"/>
      <point x="24.545454545454547" y="253.54545454545453" type="line"/>
    </contour>
  </outline>
</glyph>
<glyph name="greater" format="2">
  <advance width="500.0"/>
  <unicode hex="003E"/>
  <outline>
    <contour>
      <point x="72.27272727272728" y="482.0" type="line"/>
      <point x="65.9090909090909" y="444.27272727272725" type="line"/>
      <point x="424.8181818181818" y="266.8181818181818" type="line"/>
      <point x="428.27272727272725" y="282.1818181818182" type="line"/>
      <point x="6.090909090909091" y="104.72727272727272" type="line"/>
      <point x="-1.2727272727272725" y="62.0" type="line"/>
      <point x="452.90909090909093" y="253.54545454545453" type="line"/>
      <point x="458.72727272727275" y="290.45454545454544" type="line"/>
    </contour>
  </outline>
</glyph>
<glyph name="question" format="2">
  <advance width="397.45454545454544"/>
  <unicode hex="003F"/>
  <outline>
    <contour>
      <point x="172.8181818181818" y="193.1818181818182" type="curve"/>
      <point x="184.72727272727272" y="204.0909090909091" type="line"/>
      <point x="162.36363636363637" y="229.0"/>
      <point x="150.1818181818182" y="250.0909090909091"/>
      <point x="150.1818181818182" y="280.90909090909093" type="curve" smooth="yes"/>
      <point x="150.1818181818182" y="404.27272727272725"/>
      <point x="367.45454545454544" y="350.8181818181818"/>
      <point x="367.45454545454544" y="497.6363636363636" type="curve" smooth="yes"/>
      <point x="367.45454545454544" y="590.9090909090909"/>
      <point x="243.0909090909091" y="670.0"/>
      <point x="154.63636363636363" y="670.0" type="curve" smooth="yes"/>
      <point x="108.27272727272727" y="670.0"/>
      <point x="93.0909090909091" y="658.4545454545455"/>
      <point x="93.0909090909091" y="645.0909090909091" type="curve" smooth="yes"/>
      <point x="93.0909090909091" y="640.6363636363636"/>
      <point x="93.54545454545455" y="634.6363636363636"/>
      <point x="97.0" y="627.7272727272727" type="curve" smooth="yes"/>
      <point x="107.54545454545455" y="605.6363636363636" type="line"/>
      <point x="120.54545454545455" y="600.6363636363636" type="line"/>
      <point x="160.1818181818182" y="608.5454545454545" type="line" smooth="yes"/>
      <point x="177.72727272727272" y="612.0"/>
      <point x="194.27272727272728" y="613.5454545454545"/>
      <point x="208.27272727272728" y="613.5454545454545" type="curve" smooth="yes"/>
      <point x="281.90909090909093" y="613.5454545454545"/>
      <point x="329.09090909090907" y="581.9090909090909"/>
      <point x="329.09090909090907" y="520.2727272727273" type="curve" smooth="yes"/>
      <point x="329.09090909090907" y="400.09090909090907"/>
      <point x="105.63636363636364" y="455.0"/>
      <point x="105.63636363636364" y="309.6363636363636" type="curve" smooth="yes"/>
      <point x="105.63636363636364" y="270.8181818181818"/>
      <point x="127.36363636363636" y="234.63636363636363"/>
    </contour>
    <contour>
      <point x="123.0909090909091" y="-5.0" type="curve" smooth="yes"/>
      <point x="156.27272727272728" y="-5.0"/>
      <point x="178.0909090909091" y="24.90909090909091"/>
      <point x="178.0909090909091" y="53.45454545454545" type="curve" smooth="yes"/>
      <point x="178.0909090909091" y="79.18181818181819"/>
      <point x="164.1818181818182" y="98.0"/>
      <point x="135.0" y="98.0" type="curve" smooth="yes"/>
      <point x="102.27272727272727" y="98.0"/>
      <point x="80.0" y="68.0909090909091"/>
      <point x="80.0" y="40.09090909090909" type="curve" smooth="yes"/>
      <point x="80.0" y="13.818181818181818"/>
      <point x="93.36363636363636" y="-5.0"/>
    </contour>
  </outline>
</glyph>
<glyph name="at" format="2">
  <advance width="793.0"/>
  <unicode hex="0040"/>
  <outline>
    <contour>
      <point x="367.1818181818182" y="-118.0" type="curve" smooth="yes"/>
      <point x="465.09090909090907" y="-118.0"/>
      <point x="540.6363636363636" y="-93.0909090909091"/>
      <point x="609.0" y="-48.0" type="curve"/>
      <point x="601.0909090909091" y="-31.363636363636363" type="line"/>
      <point x="540.4545454545455" y="-72.81818181818181"/>
      <point x="477.3636363636364" y="-94.27272727272727"/>
      <point x="388.1818181818182" y="-94.27272727272727" type="curve" smooth="yes"/>
      <point x="220.63636363636363" y="-94.27272727272727"/>
      <point x="110.27272727272727" y="9.363636363636363"/>
      <point x="110.27272727272727" y="188.1818181818182" type="curve" smooth="yes"/>
      <point x="110.27272727272727" y="381.6363636363636"/>
      <point x="237.0909090909091" y="537.0909090909091"/>
      <point x="432.09090909090907" y="537.0909090909091" type="curve" smooth="yes"/>
      <point x="595.0" y="537.0909090909091"/>
      <point x="694.1818181818181" y="428.3636363636364"/>
      <point x="694.1818181818181" y="281.0" type="curve" smooth="yes"/>
      <point x="694.1818181818181" y="148.8181818181818"/>
      <point x="622.0909090909091" y="47.54545454545455"/>
      <point x="540.2727272727273" y="47.54545454545455" type="curve" smooth="yes"/>
      <point x="501.27272727272725" y="47.54545454545455"/>
      <point x="496.54545454545456" y="68.27272727272727"/>
      <point x="509.8181818181818" y="142.8181818181818" type="curve" smooth="yes"/>
      <point x="560.6363636363636" y="424.09090909090907" type="line"/>
      <point x="543.8181818181819" y="424.09090909090907" type="line"/>
      <point x="513.0" y="399.45454545454544" type="line"/>
      <point x="535.7272727272727" y="393.1818181818182" type="line"/>
      <point x="516.6363636363636" y="412.54545454545456"/>
      <point x="479.90909090909093" y="429.0"/>
      <point x="444.54545454545456" y="429.0" type="curve" smooth="yes"/>
      <point x="328.6363636363636" y="429.0"/>
      <point x="222.9090909090909" y="273.09090909090907"/>
      <point x="222.36363636363637" y="136.0909090909091" type="curve" smooth="yes"/>
      <point x="222.36363636363637" y="60.45454545454545"/>
      <point x="256.8181818181818" y="21.0"/>
      <point x="302.27272727272725" y="21.0" type="curve" smooth="yes"/>
      <point x="357.3636363636364" y="21.0"/>
      <point x="404.1818181818182" y="63.63636363636364"/>
      <point x="461.0" y="142.27272727272728" type="curve"/>
      <point x="469.09090909090907" y="174.0909090909091" type="line"/>
      <point x="431.3636363636364" y="122.63636363636364"/>
      <point x="380.6363636363636" y="64.81818181818181"/>
      <point x="330.72727272727275" y="64.81818181818181" type="curve" smooth="yes"/>
      <point x="293.54545454545456" y="64.81818181818181"/>
      <point x="277.09090909090907" y="94.72727272727272"/>
      <point x="277.09090909090907" y="155.36363636363637" type="curve" smooth="yes"/>
      <point x="277.6363636363636" y="276.72727272727275"/>
      <point x="335.8181818181818" y="401.0"/>
      <point x="422.8181818181818" y="401.0" type="curve" smooth="yes"/>
      <point x="458.90909090909093" y="401.0"/>
      <point x="478.3636363636364" y="385.27272727272725"/>
      <point x="499.09090909090907" y="361.54545454545456" type="curve"/>
      <point x="497.09090909090907" y="374.6363636363636" type="line"/>
      <point x="450.0" y="107.0" type="line" smooth="yes"/>
      <point x="441.0" y="54.0"/>
      <point x="457.0" y="21.0"/>
      <point x="516.0" y="21.0" type="curve" smooth="yes"/>
      <point x="651.0" y="21.0"/>
      <point x="733.0" y="156.0"/>
      <point x="733.0" y="284.0" type="curve" smooth="yes"/>
      <point x="733.0" y="445.0"/>
      <point x="624.4545454545455" y="562.0"/>
      <point x="451.3636363636364" y="562.0" type="curve" smooth="yes"/>
      <point x="234.45454545454547" y="562.0"/>
      <point x="60.0" y="381.0"/>
      <point x="60.0" y="167.0" type="curve" smooth="yes"/>
      <point x="60.0" y="-5.0"/>
      <point x="185.0909090909091" y="-118.0"/>
    </contour>
  </outline>
</glyph>
<glyph name="A" format="2">
  <advance width="677.3636363636364"/>
  <unicode hex="0041"/>
  <anchor x="407.6363636363636" y="710.0" name="top"/>
  <anchor x="513.6363636363636" y="0.0" name="right"/>
  <anchor x="272.54545454545456" y="0.0" name="bottom"/>
  <outline>
    <contour>
      <point x="-15.0" y="0.0" type="line"/>
      <point x="167.0" y="0.0" type="line"/>
      <point x="170.0" y="15.454545454545455" type="line"/>
      <point x="81.27272727272728" y="39.09090909090909" type="line"/>
      <point x="80.72727272727272" y="23.636363636363637" type="line"/>
      <point x="388.72727272727275" y="593.0" type="line"/>
      <point x="368.6363636363636" y="593.0" type="line"/>
      <point x="476.6363636363636" y="23.636363636363637" type="line"/>
      <point x="487.27272727272725" y="43.81818181818182" type="line"/>
      <point x="387.1818181818182" y="15.454545454545455" type="line"/>
      <point x="383.6363636363636" y="0.0" type="line"/>
      <point x="593.9090909090909" y="0.0" type="line"/>
      <point x="597.3636363636364" y="15.454545454545455" type="line"/>
      <point x="522.6363636363636" y="51.63636363636364" type="line"/>
      <point x="547.2727272727273" y="22.545454545454547" type="line"/>
      <point x="418.90909090909093" y="665.0" type="line"/>
      <point x="389.0" y="665.0" type="line"/>
      <point x="31.545454545454547" y="23.09090909090909" type="line"/>
      <point x="62.09090909090909" y="47.90909090909091" type="line"/>
      <point x="-11.0" y="15.454545454545455" type="line"/>
    </contour>
    <contour>
      <point x="178.63636363636363" y="247.27272727272728" type="line"/>
      <point x="458.09090909090907" y="247.27272727272728" type="line"/>
      <point x="465.9090909090909" y="286.3636363636364" type="line"/>
      <point x="186.45454545454547" y="286.3636363636364" type="line"/>
    </contour>
  </outline>
</glyph>
<glyph name="B" format="2">
  <advance width="576.9090909090909"/>
  <unicode hex="0042"/>
  <outline>
    <contour>
      <point x="10.0" y="0.0" type="line"/>
      <point x="151.36363636363637" y="0.0" type="line"/>
      <point x="267.3636363636364" y="660.0" type="line"/>
      <point x="126.0" y="660.0" type="line"/>
      <point x="123.0" y="645.0909090909091" type="line"/>
      <point x="192.0" y="617.6363636363636" type="line"/>
      <point x="90.54545454545455" y="42.90909090909091" type="line"/>
      <point x="13.0" y="15.454545454545455" type="line"/>
    </contour>
    <contour>
      <point x="249.54545454545453" y="0.0" type="line" smooth="yes"/>
      <point x="409.54545454545456" y="0.0"/>
      <point x="514.7272727272727" y="91.0"/>
      <point x="514.7272727272727" y="195.63636363636363" type="curve" smooth="yes"/>
      <point x="514.7272727272727" y="295.27272727272725"/>
      <point x="439.3636363636364" y="355.8181818181818"/>
      <point x="287.6363636363636" y="355.8181818181818" type="curve"/>
      <point x="287.45454545454544" y="339.1818181818182" type="line"/>
      <point x="429.09090909090907" y="339.1818181818182"/>
      <point x="514.6363636363636" y="430.3636363636364"/>
      <point x="514.6363636363636" y="518.9090909090909" type="curve" smooth="yes"/>
      <point x="514.6363636363636" y="614.0"/>
      <point x="436.72727272727275" y="660.0"/>
      <point x="313.09090909090907" y="660.0" type="curve" smooth="yes"/>
      <point x="218.45454545454544" y="660.0" type="line"/>
      <point x="211.0909090909091" y="620.3636363636364" type="line"/>
      <point x="312.27272727272725" y="620.3636363636364" type="line" smooth="yes"/>
      <point x="401.54545454545456" y="620.3636363636364"/>
      <point x="442.90909090909093" y="582.2727272727273"/>
      <point x="442.90909090909093" y="507.90909090909093" type="curve" smooth="yes"/>
      <point x="442.90909090909093" y="426.1818181818182"/>
      <point x="383.54545454545456" y="360.09090909090907"/>
      <point x="271.72727272727275" y="360.09090909090907" type="curve" smooth="yes"/>
      <point x="173.9090909090909" y="360.09090909090907" type="line"/>
      <point x="166.54545454545453" y="321.0" type="line"/>
      <point x="284.0" y="321.0" type="line" smooth="yes"/>
      <point x="387.45454545454544" y="321.0"/>
      <point x="442.54545454545456" y="283.27272727272725"/>
      <point x="442.54545454545456" y="195.0909090909091" type="curve" smooth="yes"/>
      <point x="442.54545454545456" y="104.0909090909091"/>
      <point x="380.9090909090909" y="38.54545454545455"/>
      <point x="255.8181818181818" y="38.54545454545455" type="curve" smooth="yes"/>
      <point x="136.27272727272728" y="38.54545454545455" type="line"/>
      <point x="128.9090909090909" y="0.0" type="line"/>
    </contour>
  </outline>
</glyph>
<glyph name="C" format="2">
  <advance width="665.7272727272727"/>
  <unicode hex="0043"/>
  <anchor x="440.1818181818182" y="710.0" name="top"/>
  <anchor x="328.72727272727275" y="0.0" name="bottom"/>
  <outline>
    <contour>
      <point x="322.1818181818182" y="-10.0" type="curve" smooth="yes"/>
      <point x="421.8181818181818" y="-10.0"/>
      <point x="475.45454545454544" y="9.0"/>
      <point x="532.4545454545455" y="39.0" type="curve"/>
      <point x="566.6363636363636" y="189.27272727272728" type="line"/>
      <point x="551.1818181818181" y="189.27272727272728" type="line"/>
      <point x="477.1818181818182" y="64.45454545454545" type="line"/>
      <point x="440.3636363636364" y="42.18181818181818"/>
      <point x="397.3636363636364" y="24.0"/>
      <point x="343.72727272727275" y="24.0" type="curve" smooth="yes"/>
      <point x="225.9090909090909" y="24.0"/>
      <point x="132.8181818181818" y="125.81818181818181"/>
      <point x="132.8181818181818" y="276.72727272727275" type="curve" smooth="yes"/>
      <point x="132.8181818181818" y="468.1818181818182"/>
      <point x="234.0" y="632.1818181818181"/>
      <point x="419.90909090909093" y="632.1818181818181" type="curve" smooth="yes"/>
      <point x="474.1818181818182" y="632.1818181818181"/>
      <point x="511.8181818181818" y="616.9090909090909"/>
      <point x="548.0909090909091" y="584.0909090909091" type="curve"/>
      <point x="576.0909090909091" y="462.27272727272725" type="line"/>
      <point x="591.5454545454545" y="462.27272727272725" type="line"/>
      <point x="614.8181818181819" y="621.4545454545455" type="line"/>
      <point x="561.7272727272727" y="652.0909090909091"/>
      <point x="519.3636363636364" y="670.0"/>
      <point x="436.8181818181818" y="670.0" type="curve" smooth="yes"/>
      <point x="225.8181818181818" y="670.0"/>
      <point x="60.0" y="477.1818181818182"/>
      <point x="60.0" y="259.54545454545456" type="curve" smooth="yes"/>
      <point x="60.0" y="97.72727272727273"/>
      <point x="163.27272727272728" y="-10.0"/>
    </contour>
  </outline>
</glyph>
<glyph name="E" format="2">
  <advance width="582.8181818181819"/>
  <unicode hex="0045"/>
  <anchor x="377.72727272727275" y="710.0" name="top"/>
  <anchor x="416.1818181818182" y="0.0" name="right"/>
  <anchor x="271.54545454545456" y="0.0" name="bottom"/>
  <outline>
    <contour>
      <point x="10.0" y="0.0" type="line"/>
      <point x="151.36363636363637" y="0.0" type="line"/>
      <point x="267.8181818181818" y="660.0" type="line"/>
      <point x="126.0" y="660.0" type="line"/>
      <point x="122.45454545454545" y="644.5454545454545" type="line"/>
      <point x="191.45454545454547" y="617.0909090909091" type="line"/>
      <point x="90.0" y="42.90909090909091" type="line"/>
      <point x="13.545454545454545" y="15.454545454545455" type="line"/>
    </contour>
    <contour>
      <point x="510.09090909090907" y="493.45454545454544" type="line"/>
      <point x="525.5454545454545" y="493.45454545454544" type="line"/>
      <point x="554.9090909090909" y="660.0" type="line"/>
      <point x="228.8181818181818" y="660.0" type="line"/>
      <point x="221.45454545454547" y="620.9090909090909" type="line"/>
      <point x="486.1818181818182" y="620.9090909090909" type="line"/>
    </contour>
    <contour>
      <point x="389.45454545454544" y="239.0909090909091" type="line"/>
      <point x="406.54545454545456" y="239.0909090909091" type="line"/>
      <point x="442.8181818181818" y="444.45454545454544" type="line"/>
      <point x="425.72727272727275" y="444.45454545454544" type="line"/>
      <point x="377.3636363636364" y="360.54545454545456" type="line"/>
      <point x="179.9090909090909" y="360.54545454545456" type="line"/>
      <point x="173.0909090909091" y="321.45454545454544" type="line"/>
      <point x="371.0" y="321.45454545454544" type="line"/>
    </contour>
    <contour>
      <point x="476.6363636363636" y="0.0" type="line"/>
      <point x="507.54545454545456" y="176.54545454545453" type="line"/>
      <point x="492.09090909090907" y="176.54545454545453" type="line"/>
      <point x="421.90909090909093" y="39.09090909090909" type="line"/>
      <point x="132.45454545454544" y="39.09090909090909" type="line"/>
      <point x="125.0909090909091" y="0.0" type="line"/>
    </contour>
  </outline>
</glyph>
<glyph name="F" format="2">
  <advance width="574.6363636363636"/>
  <unicode hex="0046"/>
  <outline>
    <contour>
      <point x="10.0" y="0.0" type="line"/>
      <point x="239.72727272727272" y="0.0" type="line"/>
      <point x="243.27272727272728" y="15.454545454545455" type="line"/>
      <point x="159.1818181818182" y="42.90909090909091" type="line"/>
      <point x="267.8181818181818" y="660.0" type="line"/>
      <point x="126.0" y="660.0" type="line"/>
      <point x="122.45454545454545" y="644.5454545454545" type="line"/>
      <point x="191.45454545454547" y="617.0909090909091" type="line"/>
      <point x="90.0" y="42.90909090909091" type="line"/>
      <point x="13.545454545454545" y="15.454545454545455" type="line"/>
    </contour>
    <contour>
      <point x="508.27272727272725" y="493.45454545454544" type="line"/>
      <point x="523.7272727272727" y="493.45454545454544" type="line"/>
      <point x="552.6363636363636" y="660.0" type="line"/>
      <point x="224.72727272727272" y="660.0" type="line"/>
      <point x="216.9090909090909" y="620.9090909090909" type="line"/>
      <point x="483.90909090909093" y="620.9090909090909" type="line"/>
    </contour>
    <contour>
      <point x="384.90909090909093" y="239.0909090909091" type="line"/>
      <point x="402.0" y="239.0909090909091" type="line"/>
      <point x="438.27272727272725" y="444.45454545454544" type="line"/>
      <point x="421.1818181818182" y="444.45454545454544" type="line"/>
      <point x="372.8181818181818" y="360.54545454545456" type="line"/>
      <point x="175.36363636363637" y="360.54545454545456" type="line"/>
      <point x="168.54545454545453" y="321.45454545454544" type="line"/>
      <point x="366.45454545454544" y="321.45454545454544" type="line"/>
    </contour>
  </outline>
</glyph>
<glyph name="G" format="2">
  <advance width="713.3636363636364"/>
  <unicode hex="0047"/>
  <anchor x="442.27272727272725" y="710.0" name="top"/>
  <anchor x="321.6363636363636" y="0.0" name="bottom"/>
  <outline>
    <contour>
      <point x="313.45454545454544" y="-10.0" type="curve" smooth="yes"/>
      <point x="387.8181818181818" y="-10.0"/>
      <point x="478.54545454545456" y="20.818181818181817"/>
      <point x="539.5454545454545" y="68.54545454545455" type="curve"/>
      <point x="570.9090909090909" y="245.72727272727272" type="line"/>
      <point x="643.9090909090909" y="274.54545454545456" type="line"/>
      <point x="646.9090909090909" y="290.0" type="line"/>
      <point x="429.90909090909093" y="290.0" type="line"/>
      <point x="426.45454545454544" y="274.54545454545456" type="line"/>
      <point x="507.1818181818182" y="245.45454545454547" type="line"/>
      <point x="472.8181818181818" y="50.09090909090909" type="line"/>
      <point x="498.90909090909093" y="72.18181818181819" type="line"/>
      <point x="442.54545454545456" y="43.18181818181818"/>
      <point x="395.54545454545456" y="33.0"/>
      <point x="347.72727272727275" y="33.0" type="curve" smooth="yes"/>
      <point x="214.63636363636363" y="33.0"/>
      <point x="131.27272727272728" y="128.1818181818182"/>
      <point x="131.27272727272728" y="286.6363636363636" type="curve" smooth="yes"/>
      <point x="131.27272727272728" y="472.54545454545456"/>
      <point x="235.36363636363637" y="632.1818181818181"/>
      <point x="425.0" y="632.1818181818181" type="curve" smooth="yes"/>
      <point x="486.1818181818182" y="632.1818181818181"/>
      <point x="526.4545454545455" y="618.2727272727273"/>
      <point x="563.0" y="583.0" type="curve"/>
      <point x="592.0909090909091" y="466.8181818181818" type="line"/>
      <point x="607.5454545454545" y="466.8181818181818" type="line"/>
      <point x="631.3636363636364" y="621.4545454545455" type="line"/>
      <point x="574.9090909090909" y="654.0"/>
      <point x="525.4545454545455" y="670.4545454545455"/>
      <point x="436.45454545454544" y="670.4545454545455" type="curve" smooth="yes"/>
      <point x="221.0" y="670.4545454545455"/>
      <point x="60.0" y="466.8181818181818"/>
      <point x="60.0" y="259.54545454545456" type="curve" smooth="yes"/>
      <point x="60.0" y="103.72727272727273"/>
      <point x="155.63636363636363" y="-10.0"/>
    </contour>
  </outline>
</glyph>
<glyph name="I" format="2">
  <advance width="346.45454545454544"/>
  <unicode hex="0049"/>
  <anchor x="238.9090909090909" y="710.0" name="top"/>
  <anchor x="135.1818181818182" y="0.0" name="right"/>
  <anchor x="113.36363636363636" y="0.0" name="bottom"/>
  <outline>
    <contour>
      <point x="9.454545454545455" y="0.0" type="line"/>
      <point x="224.0" y="0.0" type="line"/>
      <point x="227.0" y="15.454545454545455" type="line"/>
      <point x="155.45454545454544" y="43.45454545454545" type="line"/>
      <point x="257.3636363636364" y="617.6363636363636" type="line"/>
      <point x="333.45454545454544" y="645.0909090909091" type="line"/>
      <point x="336.45454545454544" y="660.0" type="line"/>
      <point x="121.9090909090909" y="660.0" type="line"/>
      <point x="118.9090909090909" y="645.0909090909091" type="line"/>
      <point x="188.72727272727272" y="617.6363636363636" type="line"/>
      <point x="86.81818181818181" y="43.45454545454545" type="line"/>
      <point x="12.454545454545455" y="15.454545454545455" type="line"/>
    </contour>
  </outline>
</glyph>
<glyph name="J" format="2">
  <advance width="353.1818181818182"/>
  <unicode hex="004A"/>
  <anchor x="251.1818181818182" y="710.0" name="top"/>
  <outline>
    <contour>
      <point x="-32.36363636363637" y="-173.0" type="curve" smooth="yes"/>
      <point x="-0.27272727272727293" y="-173.0"/>
      <point x="13.454545454545453" y="-164.1818181818182"/>
      <point x="75.18181818181819" y="-103.9090909090909" type="curve" smooth="yes"/>
      <point x="135.0909090909091" y="-45.90909090909091"/>
      <point x="170.0" y="65.45454545454545"/>
      <point x="198.1818181818182" y="223.63636363636363" type="curve" smooth="yes"/>
      <point x="268.6363636363636" y="617.6363636363636" type="line"/>
      <point x="345.1818181818182" y="645.0909090909091" type="line"/>
      <point x="348.1818181818182" y="660.0" type="line"/>
      <point x="134.0909090909091" y="660.0" type="line"/>
      <point x="131.0909090909091" y="645.0909090909091" type="line"/>
      <point x="199.54545454545453" y="617.6363636363636" type="line"/>
      <point x="99.36363636363636" y="51.0" type="line" smooth="yes"/>
      <point x="75.81818181818181" y="-83.0"/>
      <point x="47.36363636363637" y="-104.36363636363636"/>
      <point x="7.454545454545454" y="-104.36363636363636" type="curve" smooth="yes"/>
      <point x="-9.0" y="-104.36363636363636"/>
      <point x="-18.0" y="-101.36363636363636"/>
      <point x="-38.0" y="-95.36363636363636" type="curve"/>
      <point x="-43.45454545454545" y="-95.36363636363636" type="line"/>
      <point x="-57.54545454545455" y="-134.36363636363637" type="line" smooth="yes"/>
      <point x="-66.9090909090909" y="-159.8181818181818"/>
      <point x="-51.06060606060606" y="-173.0"/>
    </contour>
  </outline>
</glyph>
<glyph name="K" format="2">
  <advance width="665.6363636363636"/>
  <unicode hex="004B"/>
  <anchor x="405.45454545454544" y="710.0" name="top"/>
  <anchor x="305.27272727272725" y="0.0" name="bottom"/>
  <outline>
    <contour>
      <point x="9.454545454545455" y="0.0" type="line"/>
      <point x="229.0" y="0.0" type="line"/>
      <point x="232.45454545454544" y="15.454545454545455" type="line"/>
      <point x="158.63636363636363" y="43.45454545454545" type="line"/>
      <point x="260.54545454545456" y="617.6363636363636" type="line"/>
      <point x="337.09090909090907" y="645.0909090909091" type="line"/>
      <point x="340.54545454545456" y="660.0" type="line"/>
      <point x="126.0" y="660.0" type="line"/>
      <point x="123.0" y="645.0909090909091" type="line"/>
      <point x="191.45454545454547" y="617.6363636363636" type="line"/>
      <point x="90.0" y="43.45454545454545" type="line"/>
      <point x="12.454545454545455" y="15.454545454545455" type="line"/>
    </contour>
    <contour>
      <point x="472.90909090909093" y="0.0" type="line"/>
      <point x="588.1818181818181" y="0.0" type="line"/>
      <point x="591.1818181818181" y="15.454545454545455" type="line"/>
      <point x="534.5454545454545" y="37.81818181818182" type="line"/>
      <point x="262.8181818181818" y="373.90909090909093" type="line"/>
      <point x="256.8181818181818" y="337.45454545454544" type="line"/>
      <point x="600.9090909090909" y="638.5454545454545" type="line"/>
      <point x="546.1818181818181" y="616.0" type="line"/>
      <point x="646.1818181818181" y="645.0909090909091" type="line"/>
      <point x="649.6363636363636" y="660.0" type="line"/>
      <point x="454.54545454545456" y="660.0" type="line"/>
      <point x="451.54545454545456" y="645.0909090909091" type="line"/>
      <point x="538.0909090909091" y="610.0909090909091" type="line"/>
      <point x="536.3636363636364" y="632.0" type="line"/>
      <point x="208.54545454545453" y="338.0" type="line"/>
    </contour>
  </outline>
</glyph>
<glyph name="L" format="2">
  <advance width="572.3636363636364"/>
  <unicode hex="004C"/>
  <anchor x="242.54545454545453" y="710.0" name="top"/>
  <anchor x="475.0" y="660.0" name="right"/>
  <anchor x="470.90909090909093" y="343.1818181818182" name="mid"/>
  <anchor x="258.09090909090907" y="0.0" name="bottom"/>
  <outline>
    <contour>
      <point x="10.0" y="0.0" type="line"/>
      <point x="458.0" y="0.0" type="line"/>
      <point x="495.3636363636364" y="213.8181818181818" type="line"/>
      <point x="478.27272727272725" y="213.8181818181818" type="line"/>
      <point x="396.1818181818182" y="39.09090909090909" type="line"/>
      <point x="158.63636363636363" y="39.09090909090909" type="line"/>
      <point x="260.0" y="617.0909090909091" type="line"/>
      <point x="347.09090909090907" y="645.0909090909091" type="line"/>
      <point x="350.09090909090907" y="660.0" type="line"/>
      <point x="126.0" y="660.0" type="line"/>
      <point x="123.0" y="645.0909090909091" type="line"/>
      <point x="191.45454545454547" y="617.0909090909091" type="line"/>
      <point x="90.0" y="42.90909090909091" type="line"/>
      <point x="13.545454545454545" y="15.454545454545455" type="line"/>
    </contour>
  </outline>
</glyph>
<glyph name="M" format="2">
  <advance width="892.0"/>
  <unicode hex="004D"/>
  <anchor x="391.54545454545456" y="0.0" name="bottom"/>
  <outline>
    <contour>
      <point x="10.0" y="0.0" type="line"/>
      <point x="206.27272727272728" y="0.0" type="line"/>
      <point x="209.27272727272728" y="15.454545454545455" type="line"/>
      <point x="139.27272727272728" y="41.90909090909091" type="line"/>
      <point x="257.1818181818182" y="634.3636363636364" type="line"/>
      <point x="216.27272727272728" y="636.5454545454545" type="line"/>
      <point x="90.63636363636364" y="42.90909090909091" type="line"/>
      <point x="13.545454545454545" y="15.454545454545455" type="line"/>
    </contour>
    <contour>
      <point x="375.54545454545456" y="-5.0" type="line"/>
      <point x="405.0" y="-5.0" type="line"/>
      <point x="748.7272727272727" y="609.7272727272727" type="line"/>
      <point x="779.0909090909091" y="609.7272727272727" type="line"/>
      <point x="878.5454545454545" y="645.0909090909091" type="line"/>
      <point x="882.0" y="660.0" type="line"/>
      <point x="730.9090909090909" y="660.0" type="line"/>
      <point x="400.1818181818182" y="65.54545454545455" type="line"/>
      <point x="430.3636363636364" y="71.0" type="line"/>
      <point x="293.45454545454544" y="660.0" type="line"/>
      <point x="136.72727272727272" y="660.0" type="line"/>
      <point x="133.27272727272728" y="645.6363636363636" type="line"/>
      <point x="225.63636363636363" y="610.2727272727273" type="line"/>
      <point x="235.36363636363637" y="615.1818181818181" type="line"/>
    </contour>
    <contour>
      <point x="582.3636363636364" y="0.0" type="line"/>
      <point x="784.2727272727273" y="0.0" type="line"/>
      <point x="787.2727272727273" y="15.454545454545455" type="line"/>
      <point x="727.2727272727273" y="42.90909090909091" type="line"/>
      <point x="799.7272727272727" y="637.0909090909091" type="line"/>
      <point x="735.6363636363636" y="637.0909090909091" type="line"/>
      <point x="658.5454545454545" y="41.90909090909091" type="line"/>
      <point x="585.9090909090909" y="15.454545454545455" type="line"/>
    </contour>
  </outline>
</glyph>
<glyph name="N" format="2">
  <advance width="744.3636363636364"/>
  <unicode hex="004E"/>
  <anchor x="452.6363636363636" y="710.0" name="top"/>
  <anchor x="335.54545454545456" y="0.0" name="bottom"/>
  <outline>
    <contour>
      <point x="9.454545454545455" y="0.0" type="line"/>
      <point x="219.72727272727272" y="0.0" type="line"/>
      <point x="223.1818181818182" y="15.454545454545455" type="line"/>
      <point x="138.8181818181818" y="44.09090909090909" type="line"/>
      <point x="233.8181818181818" y="582.8181818181819" type="line"/>
      <point x="214.45454545454547" y="582.8181818181819" type="line"/>
      <point x="522.0" y="-5.0" type="line"/>
      <point x="549.7272727272727" y="-5.0" type="line"/>
      <point x="659.4545454545455" y="617.5454545454545" type="line"/>
      <point x="733.6363636363636" y="645.0909090909091" type="line"/>
      <point x="736.6363636363636" y="660.0" type="line"/>
      <point x="527.9090909090909" y="660.0" type="line"/>
      <point x="524.4545454545455" y="645.0909090909091" type="line"/>
      <point x="613.1818181818181" y="618.0" type="line"/>
      <point x="517.1818181818181" y="73.18181818181819" type="line"/>
      <point x="556.3636363636364" y="76.45454545454545" type="line"/>
      <point x="253.9090909090909" y="660.0" type="line"/>
      <point x="119.9090909090909" y="660.0" type="line"/>
      <point x="116.9090909090909" y="645.0909090909091" type="line"/>
      <point x="192.36363636363637" y="616.7272727272727" type="line"/>
      <point x="90.9090909090909" y="42.90909090909091" type="line"/>
      <point x="12.454545454545455" y="15.454545454545455" type="line"/>
    </contour>
  </outline>
</glyph>
<glyph name="P" format="2">
  <advance width="576.2727272727273"/>
  <unicode hex="0050"/>
  <outline>
    <contour>
      <point x="9.454545454545455" y="0.0" type="line"/>
      <point x="239.54545454545453" y="0.0" type="line"/>
      <point x="242.54545454545453" y="15.454545454545455" type="line"/>
      <point x="158.63636363636363" y="42.90909090909091" type="line"/>
      <point x="261.0" y="621.4545454545455" type="line"/>
      <point x="316.0" y="621.4545454545455" type="line" smooth="yes"/>
      <point x="411.6363636363636" y="621.4545454545455"/>
      <point x="473.54545454545456" y="580.0"/>
      <point x="473.54545454545456" y="494.3636363636364" type="curve" smooth="yes"/>
      <point x="473.54545454545456" y="398.54545454545456"/>
      <point x="414.72727272727275" y="332.09090909090907"/>
      <point x="290.54545454545456" y="332.09090909090907" type="curve" smooth="yes"/>
      <point x="187.1818181818182" y="332.09090909090907" type="line"/>
      <point x="179.36363636363637" y="293.54545454545456" type="line"/>
      <point x="285.0" y="293.54545454545456" type="line" smooth="yes"/>
      <point x="446.0" y="293.54545454545456"/>
      <point x="546.2727272727273" y="390.3636363636364"/>
      <point x="546.2727272727273" y="499.72727272727275" type="curve" smooth="yes"/>
      <point x="546.2727272727273" y="608.9090909090909"/>
      <point x="455.9090909090909" y="660.0"/>
      <point x="317.1818181818182" y="660.0" type="curve" smooth="yes"/>
      <point x="126.0" y="660.0" type="line"/>
      <point x="123.0" y="645.0909090909091" type="line"/>
      <point x="191.45454545454547" y="617.6363636363636" type="line"/>
      <point x="90.0" y="42.90909090909091" type="line"/>
      <point x="12.454545454545455" y="15.454545454545455" type="line"/>
    </contour>
  </outline>
</glyph>
<glyph name="Q" format="2">
  <advance width="737.6363636363636"/>
  <unicode hex="0051"/>
  <outline>
    <contour>
      <point x="308.54545454545456" y="-10.0" type="curve" smooth="yes"/>
      <point x="521.0" y="-10.0"/>
      <point x="668.9090909090909" y="188.54545454545453"/>
      <point x="668.9090909090909" y="394.90909090909093" type="curve" smooth="yes"/>
      <point x="668.9090909090909" y="558.0909090909091"/>
      <point x="571.2727272727273" y="670.4545454545455"/>
      <point x="419.90909090909093" y="670.4545454545455" type="curve" smooth="yes"/>
      <point x="217.36363636363637" y="670.4545454545455"/>
      <point x="60.0" y="482.45454545454544"/>
      <point x="60.0" y="265.09090909090907" type="curve" smooth="yes"/>
      <point x="60.0" y="102.45454545454545"/>
      <point x="158.1818181818182" y="-10.0"/>
    </contour>
    <contour>
      <point x="335.6363636363636" y="23.81818181818182" type="curve" smooth="yes"/>
      <point x="215.1818181818182" y="23.81818181818182"/>
      <point x="131.36363636363637" y="127.81818181818181"/>
      <point x="131.36363636363637" y="279.45454545454544" type="curve" smooth="yes"/>
      <point x="131.36363636363637" y="480.72727272727275"/>
      <point x="243.36363636363637" y="637.5454545454545"/>
      <point x="395.6363636363636" y="637.5454545454545" type="curve" smooth="yes"/>
      <point x="514.0909090909091" y="637.5454545454545"/>
      <point x="598.0" y="534.6363636363636"/>
      <point x="598.0" y="382.54545454545456" type="curve" smooth="yes"/>
      <point x="598.0" y="180.1818181818182"/>
      <point x="483.09090909090907" y="23.81818181818182"/>
    </contour>
    <contour>
      <point x="579.6363636363636" y="-147.9090909090909" type="curve" smooth="yes"/>
      <point x="628.2727272727273" y="-147.9090909090909"/>
      <point x="675.3636363636364" y="-137.0"/>
      <point x="705.9090909090909" y="-122.0" type="curve"/>
      <point x="709.4545454545455" y="-103.27272727272727" type="line"/>
      <point x="693.6363636363636" y="-109.36363636363636"/>
      <point x="667.9090909090909" y="-114.54545454545455"/>
      <point x="640.0909090909091" y="-114.54545454545455" type="curve" smooth="yes"/>
      <point x="575.0909090909091" y="-114.54545454545455"/>
      <point x="504.09090909090907" y="-94.9090909090909"/>
      <point x="376.0" y="13.272727272727273" type="curve"/>
      <point x="283.09090909090907" y="10.545454545454545" type="line"/>
      <point x="414.27272727272725" y="-124.9090909090909"/>
      <point x="507.72727272727275" y="-147.9090909090909"/>
    </contour>
  </outline>
</glyph>
<glyph name="R" format="2">
  <advance width="588.5454545454545"/>
  <unicode hex="0052"/>
  <anchor x="330.1818181818182" y="710.0" name="top"/>
  <anchor x="274.1818181818182" y="0.0" name="bottom"/>
  <outline>
    <contour>
      <point x="9.454545454545455" y="0.0" type="line"/>
      <point x="221.1818181818182" y="0.0" type="line"/>
      <point x="224.1818181818182" y="15.454545454545455" type="line"/>
      <point x="158.63636363636363" y="43.36363636363636" type="line"/>
      <point x="267.8181818181818" y="660.0" type="line"/>
      <point x="125.45454545454545" y="660.0" type="line"/>
      <point x="122.45454545454545" y="645.0909090909091" type="line"/>
      <point x="191.45454545454547" y="617.6363636363636" type="line"/>
      <point x="90.0" y="42.90909090909091" type="line"/>
      <point x="12.454545454545455" y="15.454545454545455" type="line"/>
    </contour>
    <contour>
      <point x="512.3636363636364" y="515.0909090909091" type="curve" smooth="yes"/>
      <point x="512.3636363636364" y="605.2727272727273"/>
      <point x="437.8181818181818" y="660.0"/>
      <point x="310.90909090909093" y="660.0" type="curve" smooth="yes"/>
      <point x="233.1818181818182" y="660.0" type="line"/>
      <point x="225.8181818181818" y="620.9090909090909" type="line"/>
      <point x="309.1818181818182" y="620.9090909090909" type="line" smooth="yes"/>
      <point x="394.72727272727275" y="620.9090909090909"/>
      <point x="439.54545454545456" y="575.2727272727273"/>
      <point x="439.54545454545456" y="502.1818181818182" type="curve" smooth="yes"/>
      <point x="439.54545454545456" y="426.45454545454544"/>
      <point x="386.09090909090907" y="351.6363636363636"/>
      <point x="285.27272727272725" y="351.6363636363636" type="curve"/>
      <point x="185.45454545454547" y="351.6363636363636" type="line"/>
      <point x="178.1818181818182" y="312.54545454545456" type="line"/>
      <point x="332.8181818181818" y="312.54545454545456" type="line"/>
      <point x="332.8181818181818" y="321.90909090909093" type="line"/>
      <point x="452.09090909090907" y="345.6363636363636"/>
      <point x="512.3636363636364" y="423.45454545454544"/>
    </contour>
    <contour>
      <point x="433.0" y="0.0" type="line"/>
      <point x="545.5454545454545" y="0.0" type="line"/>
      <point x="548.5454545454545" y="15.454545454545455" type="line"/>
      <point x="494.27272727272725" y="38.90909090909091" type="line"/>
      <point x="350.72727272727275" y="341.0" type="line"/>
      <point x="280.54545454545456" y="341.0" type="line"/>
    </contour>
  </outline>
</glyph>
<glyph name="S" format="2">
  <advance width="492.8181818181818"/>
  <unicode hex="0053"/>
  <anchor x="325.6363636363636" y="708.3636363636364" name="top"/>
  <anchor x="196.27272727272728" y="0.0" name="bottom"/>
  <outline>
    <contour>
      <point x="185.1818181818182" y="-10.0" type="curve" smooth="yes"/>
      <point x="311.54545454545456" y="-10.0"/>
      <point x="409.3636363636364" y="84.81818181818181"/>
      <point x="409.3636363636364" y="189.72727272727272" type="curve" smooth="yes"/>
      <point x="409.3636363636364" y="270.27272727272725"/>
      <point x="367.90909090909093" y="310.6363636363636"/>
      <point x="274.1818181818182" y="365.90909090909093" type="curve" smooth="yes"/>
      <point x="190.0909090909091" y="416.27272727272725"/>
      <point x="165.27272727272728" y="451.6363636363636"/>
      <point x="165.27272727272728" y="504.54545454545456" type="curve" smooth="yes"/>
      <point x="165.27272727272728" y="584.4545454545455"/>
      <point x="220.27272727272728" y="634.1818181818181"/>
      <point x="294.27272727272725" y="634.1818181818181" type="curve" smooth="yes"/>
      <point x="340.27272727272725" y="634.1818181818181"/>
      <point x="372.6363636363636" y="613.6363636363636"/>
      <point x="392.3636363636364" y="591.6363636363636" type="curve"/>
      <point x="417.90909090909093" y="478.90909090909093" type="line"/>
      <point x="433.90909090909093" y="478.90909090909093" type="line"/>
      <point x="451.90909090909093" y="628.0" type="line"/>
      <point x="408.09090909090907" y="654.4545454545455"/>
      <point x="361.90909090909093" y="670.0"/>
      <point x="306.1818181818182" y="670.0" type="curve" smooth="yes"/>
      <point x="200.72727272727272" y="670.0"/>
      <point x="105.63636363636364" y="579.6363636363636"/>
      <point x="105.63636363636364" y="479.1818181818182" type="curve" smooth="yes"/>
      <point x="105.63636363636364" y="413.72727272727275"/>
      <point x="137.54545454545453" y="372.54545454545456"/>
      <point x="215.8181818181818" y="324.54545454545456" type="curve" smooth="yes"/>
      <point x="302.3636363636364" y="271.90909090909093"/>
      <point x="345.45454545454544" y="241.54545454545453"/>
      <point x="345.45454545454544" y="175.0" type="curve" smooth="yes"/>
      <point x="345.45454545454544" y="86.45454545454545"/>
      <point x="292.09090909090907" y="24.90909090909091"/>
      <point x="198.0909090909091" y="24.90909090909091" type="curve" smooth="yes"/>
      <point x="154.72727272727272" y="24.90909090909091"/>
      <point x="110.0" y="40.45454545454545"/>
      <point x="80.54545454545455" y="71.0" type="curve"/>
      <point x="51.36363636363636" y="189.0909090909091" type="line"/>
      <point x="35.36363636363636" y="189.0909090909091" type="line"/>
      <point x="16.363636363636363" y="36.0" type="line"/>
      <point x="67.0909090909091" y="5.545454545454546"/>
      <point x="111.0" y="-10.0"/>
    </contour>
  </outline>
</glyph>
<glyph name="T" format="2">
  <advance width="642.8181818181819"/>
  <unicode hex="0054"/>
  <anchor x="394.3636363636364" y="710.0" name="top"/>
  <anchor x="268.90909090909093" y="0.0" name="bottom"/>
  <outline>
    <contour>
      <point x="137.36363636363637" y="0.0" type="line"/>
      <point x="400.8181818181818" y="0.0" type="line"/>
      <point x="403.8181818181818" y="15.454545454545455" type="line"/>
      <point x="310.90909090909093" y="44.54545454545455" type="line"/>
      <point x="413.72727272727275" y="620.9090909090909" type="line"/>
      <point x="591.3636363636364" y="620.9090909090909" type="line"/>
      <point x="614.0909090909091" y="471.6363636363636" type="line"/>
      <point x="629.5454545454545" y="471.6363636363636" type="line"/>
      <point x="662.8181818181819" y="660.0" type="line"/>
      <point x="107.81818181818181" y="660.0" type="line"/>
      <point x="75.0" y="471.6363636363636" type="line"/>
      <point x="90.45454545454545" y="471.6363636363636" type="line"/>
      <point x="166.72727272727272" y="620.9090909090909" type="line"/>
      <point x="345.1818181818182" y="620.9090909090909" type="line"/>
      <point x="242.36363636363637" y="44.54545454545455" type="line"/>
      <point x="140.8181818181818" y="15.454545454545455" type="line"/>
    </contour>
  </outline>
</glyph>
<glyph name="U" format="2">
  <advance width="754.6363636363636"/>
  <unicode hex="0055"/>
  <anchor x="456.3636363636364" y="710.0" name="top"/>
  <anchor x="358.1818181818182" y="0.0" name="right"/>
  <anchor x="337.27272727272725" y="0.0" name="bottom"/>
  <outline>
    <contour>
      <point x="333.8181818181818" y="-10.0" type="curve" smooth="yes"/>
      <point x="469.09090909090907" y="-10.0"/>
      <point x="574.3636363636364" y="62.81818181818182"/>
      <point x="608.4545454545455" y="256.0" type="curve" smooth="yes"/>
      <point x="672.1818181818181" y="617.5454545454545" type="line"/>
      <point x="749.2727272727273" y="645.0909090909091" type="line"/>
      <point x="752.2727272727273" y="660.0" type="line"/>
      <point x="540.2727272727273" y="660.0" type="line"/>
      <point x="536.8181818181819" y="645.0909090909091" type="line"/>
      <point x="623.6363636363636" y="618.0" type="line"/>
      <point x="556.4545454545455" y="236.0" type="line" smooth="yes"/>
      <point x="531.2727272727273" y="95.0909090909091"/>
      <point x="440.0" y="34.27272727272727"/>
      <point x="359.27272727272725" y="34.27272727272727" type="curve" smooth="yes"/>
      <point x="260.8181818181818" y="34.27272727272727"/>
      <point x="196.1818181818182" y="78.72727272727272"/>
      <point x="196.1818181818182" y="195.45454545454547" type="curve" smooth="yes"/>
      <point x="196.1818181818182" y="217.54545454545453"/>
      <point x="199.0909090909091" y="243.9090909090909"/>
      <point x="204.0909090909091" y="271.0" type="curve" smooth="yes"/>
      <point x="265.27272727272725" y="618.1818181818181" type="line"/>
      <point x="345.6363636363636" y="645.0909090909091" type="line"/>
      <point x="349.6363636363636" y="660.0" type="line"/>
      <point x="128.0" y="660.0" type="line"/>
      <point x="125.0" y="645.0909090909091" type="line"/>
      <point x="195.63636363636363" y="618.1818181818181" type="line"/>
      <point x="132.45454545454547" y="256.0" type="line" smooth="yes"/>
      <point x="128.45454545454547" y="230.45454545454547"/>
      <point x="125.45454545454545" y="207.45454545454547"/>
      <point x="125.45454545454545" y="185.45454545454547" type="curve" smooth="yes"/>
      <point x="125.45454545454545" y="49.45454545454545"/>
      <point x="210.72727272727272" y="-10.0"/>
    </contour>
  </outline>
</glyph>
<glyph name="V" format="2">
  <advance width="667.8181818181819"/>
  <unicode hex="0056"/>
  <outline>
    <contour>
      <point x="268.45454545454544" y="-5.0" type="line"/>
      <point x="298.3636363636364" y="-5.0" type="line"/>
      <point x="640.3636363636364" y="636.9090909090909" type="line"/>
      <point x="614.5454545454545" y="615.2727272727273" type="line"/>
      <point x="688.9090909090909" y="645.0909090909091" type="line"/>
      <point x="692.3636363636364" y="660.0" type="line"/>
      <point x="510.90909090909093" y="660.0" type="line"/>
      <point x="507.90909090909093" y="645.0909090909091" type="line"/>
      <point x="597.3636363636364" y="618.0" type="line"/>
      <point x="592.8181818181819" y="640.1818181818181" type="line"/>
      <point x="298.6363636363636" y="67.0" type="line"/>
      <point x="337.45454545454544" y="106.72727272727272" type="line"/>
      <point x="295.72727272727275" y="106.72727272727272" type="line"/>
      <point x="321.9090909090909" y="67.0" type="line"/>
      <point x="217.63636363636363" y="634.7272727272727" type="line"/>
      <point x="206.0909090909091" y="617.2727272727273" type="line"/>
      <point x="300.72727272727275" y="645.0909090909091" type="line"/>
      <point x="303.72727272727275" y="660.0" type="line"/>
      <point x="93.45454545454545" y="660.0" type="line"/>
      <point x="90.0" y="645.0909090909091" type="line"/>
      <point x="182.1818181818182" y="606.5454545454545" type="line"/>
      <point x="146.0909090909091" y="635.2727272727273" type="line"/>
    </contour>
  </outline>
</glyph>
<glyph name="W" format="2">
  <advance width="945.3636363636364"/>
  <unicode hex="0057"/>
  <anchor x="557.0909090909091" y="710.0" name="top"/>
  <outline>
    <contour>
      <point x="222.72727272727272" y="-5.0" type="line"/>
      <point x="249.45454545454547" y="-5.0" type="line"/>
      <point x="535.0" y="568.6363636363636" type="line"/>
      <point x="497.8181818181818" y="525.6363636363636" type="line"/>
      <point x="534.6363636363636" y="525.6363636363636" type="line"/>
      <point x="511.8181818181818" y="568.6363636363636" type="line"/>
      <point x="604.0" y="-5.0" type="line"/>
      <point x="630.2727272727273" y="-5.0" type="line"/>
      <point x="922.4545454545455" y="636.9090909090909" type="line"/>
      <point x="899.8181818181819" y="616.6363636363636" type="line"/>
      <point x="976.0" y="645.0909090909091" type="line"/>
      <point x="979.0" y="660.0" type="line"/>
      <point x="793.0" y="660.0" type="line"/>
      <point x="790.0" y="645.0909090909091" type="line"/>
      <point x="883.0909090909091" y="617.1818181818181" type="line"/>
      <point x="874.4545454545455" y="640.1818181818181" type="line"/>
      <point x="639.1818181818181" y="91.36363636363636" type="line"/>
      <point x="666.3636363636364" y="121.36363636363636" type="line"/>
      <point x="633.9090909090909" y="121.36363636363636" type="line"/>
      <point x="652.1818181818181" y="91.36363636363636" type="line"/>
      <point x="563.2727272727273" y="665.0" type="line"/>
      <point x="535.9090909090909" y="665.0" type="line"/>
      <point x="258.54545454545456" y="85.45454545454545" type="line"/>
      <point x="289.90909090909093" y="120.9090909090909" type="line"/>
      <point x="255.27272727272728" y="120.9090909090909" type="line"/>
      <point x="274.09090909090907" y="85.45454545454545" type="line"/>
      <point x="219.45454545454544" y="634.7272727272727" type="line"/>
      <point x="203.36363636363637" y="614.0" type="line"/>
      <point x="302.54545454545456" y="645.0909090909091" type="line"/>
      <point x="305.54545454545456" y="660.0" type="line"/>
      <point x="93.45454545454545" y="660.0" type="line"/>
      <point x="90.0" y="645.0909090909091" type="line"/>
      <point x="176.72727272727272" y="610.7272727272727" type="line"/>
      <point x="149.72727272727272" y="635.2727272727273" type="line"/>
    </contour>
  </outline>
</glyph>
<glyph name="X" format="2">
  <advance width="682.9090909090909"/>
  <unicode hex="0058"/>
  <outline>
    <contour>
      <point x="366.6363636363636" y="0.0" type="line"/>
      <point x="604.2727272727273" y="0.0" type="line"/>
      <point x="607.2727272727273" y="15.454545454545455" type="line"/>
      <point x="508.0" y="57.54545454545455" type="line"/>
      <point x="547.9090909090909" y="21.363636363636363" type="line"/>
      <point x="243.1818181818182" y="618.0" type="line"/>
      <point x="243.63636363636363" y="621.9090909090909" type="line"/>
      <point x="327.90909090909093" y="645.0909090909091" type="line"/>
      <point x="330.90909090909093" y="660.0" type="line"/>
      <point x="107.0" y="660.0" type="line"/>
      <point x="104.0" y="645.0909090909091" type="line"/>
      <point x="194.0909090909091" y="607.9090909090909" type="line"/>
      <point x="158.0" y="642.9090909090909" type="line"/>
      <point x="461.45454545454544" y="45.81818181818182" type="line"/>
      <point x="461.0" y="42.36363636363636" type="line"/>
      <point x="369.6363636363636" y="15.454545454545455" type="line"/>
    </contour>
    <contour>
      <point x="-25.0" y="0.0" type="line"/>
      <point x="192.1818181818182" y="0.0" type="line"/>
      <point x="195.1818181818182" y="15.454545454545455" type="line"/>
      <point x="118.0" y="42.36363636363636" type="line"/>
      <point x="118.0" y="45.81818181818182" type="line"/>
      <point x="340.72727272727275" y="305.0" type="line"/>
      <point x="324.3636363636364" y="342.45454545454544" type="line"/>
      <point x="43.45454545454545" y="25.09090909090909" type="line"/>
      <point x="82.0909090909091" y="52.72727272727273" type="line"/>
      <point x="-21.545454545454547" y="15.454545454545455" type="line"/>
    </contour>
    <contour>
      <point x="695.4545454545455" y="645.0909090909091" type="line"/>
      <point x="698.4545454545455" y="660.0" type="line"/>
      <point x="496.72727272727275" y="660.0" type="line"/>
      <point x="493.72727272727275" y="645.0909090909091" type="line"/>
      <point x="572.0" y="620.9090909090909" type="line"/>
      <point x="572.0" y="617.4545454545455" type="line"/>
      <point x="359.45454545454544" y="363.54545454545456" type="line"/>
      <point x="367.27272727272725" y="317.54545454545456" type="line"/>
      <point x="645.3636363636364" y="637.4545454545455" type="line"/>
      <point x="592.4545454545455" y="605.0" type="line"/>
    </contour>
  </outline>
</glyph>
<glyph name="Y" format="2">
  <advance width="671.9090909090909"/>
  <unicode hex="0059"/>
  <anchor x="415.0" y="710.0" name="top"/>
  <anchor x="289.0" y="0.0" name="bottom"/>
  <outline>
    <contour>
      <point x="169.8181818181818" y="0.0" type="line"/>
      <point x="407.8181818181818" y="0.0" type="line"/>
      <point x="410.8181818181818" y="15.454545454545455" type="line"/>
      <point x="330.1818181818182" y="44.54545454545455" type="line"/>
      <point x="381.90909090909093" y="332.0" type="line"/>
      <point x="354.54545454545456" y="282.0" type="line"/>
      <point x="646.6363636363636" y="638.5454545454545" type="line"/>
      <point x="587.8181818181819" y="604.6363636363636" type="line"/>
      <point x="696.2727272727273" y="645.0909090909091" type="line"/>
      <point x="699.2727272727273" y="660.0" type="line"/>
      <point x="506.90909090909093" y="660.0" type="line"/>
      <point x="503.45454545454544" y="645.0909090909091" type="line"/>
      <point x="576.1818181818181" y="620.9090909090909" type="line"/>
      <point x="575.7272727272727" y="617.4545454545455" type="line"/>
      <point x="348.27272727272725" y="327.09090909090907" type="line"/>
      <point x="372.54545454545456" y="327.09090909090907" type="line"/>
      <point x="231.9090909090909" y="618.3636363636364" type="line"/>
      <point x="232.36363636363637" y="621.8181818181819" type="line"/>
      <point x="311.1818181818182" y="645.0909090909091" type="line"/>
      <point x="314.6363636363636" y="660.0" type="line"/>
      <point x="95.72727272727273" y="660.0" type="line"/>
      <point x="92.27272727272727" y="645.0909090909091" type="line"/>
      <point x="176.9090909090909" y="609.6363636363636" type="line"/>
      <point x="145.8181818181818" y="642.9090909090909" type="line"/>
      <point x="323.1818181818182" y="282.90909090909093" type="line"/>
      <point x="313.8181818181818" y="332.0" type="line"/>
      <point x="262.09090909090907" y="44.54545454545455" type="line"/>
      <point x="172.8181818181818" y="15.454545454545455" type="line"/>
    </contour>
  </outline>
</glyph>
<glyph name="Z" format="2">
  <advance width="615.8181818181819"/>
  <unicode hex="005A"/>
  <anchor x="379.27272727272725" y="710.0" name="top"/>
  <anchor x="265.1818181818182" y="0.0" name="bottom"/>
  <outline>
    <contour>
      <point x="35.0" y="0.0" type="line"/>
      <point x="477.0" y="0.0" type="line"/>
      <point x="509.90909090909093" y="184.36363636363637" type="line"/>
      <point x="494.45454545454544" y="184.36363636363637" type="line"/>
      <point x="422.54545454545456" y="41.81818181818182" type="line"/>
      <point x="103.81818181818181" y="41.81818181818182" type="line"/>
      <point x="105.63636363636364" y="11.636363636363637" type="line"/>
      <point x="576.4545454545455" y="633.1818181818181" type="line"/>
      <point x="580.8181818181819" y="660.0" type="line"/>
      <point x="162.0" y="660.0" type="line"/>
      <point x="131.63636363636363" y="486.1818181818182" type="line"/>
      <point x="147.0909090909091" y="486.1818181818182" type="line"/>
      <point x="219.0909090909091" y="620.9090909090909" type="line"/>
      <point x="510.3636363636364" y="620.9090909090909" type="line"/>
      <point x="509.0" y="646.0909090909091" type="line"/>
      <point x="39.36363636363637" y="26.81818181818182" type="line"/>
    </contour>
  </outline>
</glyph>
<glyph name="bracketleft" format="2">
  <advance width="250.0"/>
  <unicode hex="005B"/>
  <outline>
    <contour>
      <point x="12.636363636363637" y="-150.0" type="line"/>
      <point x="58.36363636363636" y="-150.0" type="line"/>
      <point x="206.36363636363637" y="740.0" type="line"/>
      <point x="161.63636363636363" y="740.0" type="line"/>
    </contour>
    <contour>
      <point x="163.0909090909091" y="740.0" type="line"/>
      <point x="159.63636363636363" y="722.4545454545455" type="line"/>
      <point x="313.90909090909093" y="722.4545454545455" type="line"/>
      <point x="317.3636363636364" y="740.0" type="line"/>
    </contour>
    <contour>
      <point x="14.09090909090909" y="-150.0" type="line"/>
      <point x="168.36363636363637" y="-150.0" type="line"/>
      <point x="171.8181818181818" y="-132.45454545454547" type="line"/>
      <point x="17.545454545454547" y="-132.45454545454547" type="line"/>
    </contour>
  </outline>
</glyph>
<glyph name="backslash" format="2">
  <advance width="319.27272727272725"/>
  <unicode hex="005C"/>
  <outline>
    <contour>
      <point x="220.0" y="-120.0" type="line"/>
      <point x="259.27272727272725" y="-120.0" type="line"/>
      <point x="99.27272727272727" y="750.0" type="line"/>
      <point x="60.0" y="750.0" type="line"/>
    </contour>
  </outline>
</glyph>
<glyph name="bracketright" format="2">
  <advance width="250.0"/>
  <unicode hex="005D"/>
  <outline>
    <contour>
      <point x="46.0" y="-150.0" type="line"/>
      <point x="90.72727272727272" y="-150.0" type="line"/>
      <point x="239.72727272727272" y="740.0" type="line"/>
      <point x="194.0" y="740.0" type="line"/>
    </contour>
    <contour>
      <point x="-65.0" y="-150.0" type="line"/>
      <point x="89.27272727272727" y="-150.0" type="line"/>
      <point x="92.72727272727272" y="-132.45454545454547" type="line"/>
      <point x="-61.54545454545455" y="-132.45454545454547" type="line"/>
    </contour>
    <contour>
      <point x="80.54545454545455" y="722.4545454545455" type="line"/>
      <point x="234.8181818181818" y="722.4545454545455" type="line"/>
      <point x="238.27272727272728" y="740.0" type="line"/>
      <point x="84.0" y="740.0" type="line"/>
    </contour>
  </outline>
</glyph>
<glyph name="asciicircum" format="2">
  <advance width="500.0"/>
  <unicode hex="005E"/>
  <outline>
    <contour>
      <point x="29.272727272727273" y="250.0" type="line"/>
      <point x="72.81818181818181" y="250.0" type="line"/>
      <point x="317.72727272727275" y="640.0" type="line"/>
      <point x="296.72727272727275" y="640.0" type="line"/>
      <point x="412.8181818181818" y="250.0" type="line"/>
      <point x="452.90909090909093" y="250.0" type="line"/>
      <point x="328.27272727272725" y="670.0" type="line"/>
      <point x="292.72727272727275" y="670.0" type="line"/>
    </contour>
  </outline>
</glyph>
<glyph name="underscore" format="2">
  <advance width="500.0"/>
  <unicode hex="005F"/>
  <outline>
    <contour>
      <point x="25.0" y="-129.72727272727272" type="line"/>
      <point x="462.09090909090907" y="-129.72727272727272" type="line"/>
      <point x="468.0" y="-100.27272727272727" type="line"/>
      <point x="30.90909090909091" y="-100.27272727272727" type="line"/>
    </contour>
  </outline>
</glyph>
<glyph name="a" format="2">
  <advance width="501.0"/>
  <unicode hex="0061"/>
  <anchor x="307.6363636363636" y="510.0" name="top"/>
  <anchor x="397.1818181818182" y="0.0" name="right"/>
  <anchor x="234.1818181818182" y="0.0" name="bottom"/>
  <outline>
    <contour>
      <point x="136.0" y="-10.0" type="curve" smooth="yes"/>
      <point x="195.9090909090909" y="-10.0"/>
      <point x="246.9090909090909" y="32.54545454545455"/>
      <point x="310.0" y="112.81818181818181" type="curve"/>
      <point x="330.3636363636364" y="112.81818181818181" type="line"/>
      <point x="330.3636363636364" y="166.72727272727272" type="line"/>
      <point x="286.0" y="106.27272727272728"/>
      <point x="226.72727272727272" y="39.63636363636364"/>
      <point x="168.27272727272728" y="39.63636363636364" type="curve" smooth="yes"/>
      <point x="124.0" y="39.63636363636364"/>
      <point x="102.81818181818181" y="75.0909090909091"/>
      <point x="102.81818181818181" y="144.63636363636363" type="curve" smooth="yes"/>
      <point x="102.81818181818181" y="284.6363636363636"/>
      <point x="171.1818181818182" y="428.09090909090907"/>
      <point x="274.6363636363636" y="428.09090909090907" type="curve" smooth="yes"/>
      <point x="316.72727272727275" y="428.09090909090907"/>
      <point x="340.72727272727275" y="409.8181818181818"/>
      <point x="365.0" y="382.27272727272725" type="curve"/>
      <point x="362.0" y="397.72727272727275" type="line"/>
      <point x="309.0" y="92.27272727272727" type="line" smooth="yes"/>
      <point x="296.3636363636364" y="20.81818181818182"/>
      <point x="313.90909090909093" y="-10.0"/>
      <point x="352.72727272727275" y="-10.0" type="curve" smooth="yes"/>
      <point x="396.45454545454544" y="-10.0"/>
      <point x="439.27272727272725" y="28.727272727272727"/>
      <point x="476.09090909090907" y="121.63636363636364" type="curve"/>
      <point x="462.54545454545456" y="127.0909090909091" type="line"/>
      <point x="439.09090909090907" y="75.0"/>
      <point x="411.09090909090907" y="48.27272727272727"/>
      <point x="386.45454545454544" y="48.27272727272727" type="curve" smooth="yes"/>
      <point x="366.8181818181818" y="48.27272727272727"/>
      <point x="362.8181818181818" y="65.9090909090909"/>
      <point x="372.0" y="119.0" type="curve" smooth="yes"/>
      <point x="431.3636363636364" y="454.54545454545456" type="line"/>
      <point x="416.1818181818182" y="454.54545454545456" type="line"/>
      <point x="380.45454545454544" y="426.45454545454544" type="line"/>
      <point x="407.0" y="418.72727272727275" type="line"/>
      <point x="384.3636363636364" y="440.54545454545456"/>
      <point x="340.6363636363636" y="460.0"/>
      <point x="299.8181818181818" y="460.0" type="curve" smooth="yes"/>
      <point x="163.72727272727272" y="460.0"/>
      <point x="43.18181818181818" y="280.45454545454544"/>
      <point x="43.18181818181818" y="122.54545454545455" type="curve" smooth="yes"/>
      <point x="43.18181818181818" y="35.45454545454545"/>
      <point x="82.45454545454545" y="-10.0"/>
    </contour>
  </outline>
</glyph>
<glyph name="b" format="2">
  <advance width="487.54545454545456"/>
  <unicode hex="0062"/>
  <outline>
    <contour>
      <point x="197.8181818181818" y="-10.0" type="curve" smooth="yes"/>
      <point x="325.1818181818182" y="-10.0"/>
      <point x="443.0" y="151.54545454545453"/>
      <point x="443.0" y="318.1818181818182" type="curve" smooth="yes"/>
      <point x="443.0" y="411.27272727272725"/>
      <point x="405.90909090909093" y="460.0"/>
      <point x="350.72727272727275" y="460.0" type="curve" smooth="yes"/>
      <point x="285.90909090909093" y="460.0"/>
      <point x="237.1818181818182" y="411.1818181818182"/>
      <point x="179.36363636363637" y="339.3636363636364" type="curve"/>
      <point x="156.36363636363637" y="339.3636363636364" type="line"/>
      <point x="156.36363636363637" y="283.27272727272725" type="line"/>
      <point x="207.54545454545453" y="356.0"/>
      <point x="266.8181818181818" y="410.3636363636364"/>
      <point x="318.45454545454544" y="410.3636363636364" type="curve" smooth="yes"/>
      <point x="363.0" y="410.3636363636364"/>
      <point x="383.90909090909093" y="374.90909090909093"/>
      <point x="383.90909090909093" y="298.27272727272725" type="curve" smooth="yes"/>
      <point x="383.90909090909093" y="129.1818181818182"/>
      <point x="310.27272727272725" y="22.454545454545453"/>
      <point x="223.0" y="21.90909090909091" type="curve" smooth="yes"/>
      <point x="188.54545454545453" y="21.90909090909091"/>
      <point x="157.45454545454547" y="33.0"/>
      <point x="123.27272727272727" y="73.18181818181819" type="curve"/>
      <point x="125.81818181818181" y="57.72727272727273" type="line"/>
      <point x="246.9090909090909" y="750.0" type="line"/>
      <point x="241.1818181818182" y="750.0" type="line"/>
      <point x="108.72727272727272" y="723.2727272727273" type="line"/>
      <point x="108.72727272727272" y="715.0909090909091" type="line"/>
      <point x="178.0909090909091" y="694.7272727272727" type="line"/>
      <point x="55.36363636363636" y="-4.545454545454545" type="line"/>
      <point x="61.90909090909091" y="-4.545454545454545" type="line"/>
      <point x="110.0909090909091" y="28.454545454545453" type="line"/>
      <point x="80.81818181818181" y="36.72727272727273" type="line"/>
      <point x="105.63636363636364" y="10.545454545454545"/>
      <point x="153.72727272727272" y="-10.0"/>
    </contour>
  </outline>
</glyph>
<glyph name="d" format="2">
  <advance width="505.72727272727275"/>
  <unicode hex="0064"/>
  <anchor x="591.2727272727273" y="740.0" name="right"/>
  <anchor x="231.45454545454547" y="0.0" name="bottom"/>
  <outline>
    <contour>
      <point x="137.36363636363637" y="-10.0" type="curve" smooth="yes"/>
      <point x="195.45454545454547" y="-10.0"/>
      <point x="245.0909090909091" y="28.90909090909091"/>
      <point x="311.3636363636364" y="112.81818181818181" type="curve"/>
      <point x="331.72727272727275" y="112.81818181818181" type="line"/>
      <point x="331.72727272727275" y="166.72727272727272" type="line"/>
      <point x="281.0" y="94.9090909090909"/>
      <point x="222.1818181818182" y="39.63636363636364"/>
      <point x="169.63636363636363" y="39.63636363636364" type="curve" smooth="yes"/>
      <point x="127.63636363636364" y="39.63636363636364"/>
      <point x="104.18181818181819" y="71.0"/>
      <point x="104.18181818181819" y="144.63636363636363" type="curve" smooth="yes"/>
      <point x="104.18181818181819" y="289.1818181818182"/>
      <point x="175.27272727272728" y="428.09090909090907"/>
      <point x="276.0" y="428.09090909090907" type="curve" smooth="yes"/>
      <point x="315.8181818181818" y="428.09090909090907"/>
      <point x="339.3636363636364" y="412.09090909090907"/>
      <point x="365.90909090909093" y="382.27272727272725" type="curve"/>
      <point x="363.3636363636364" y="397.72727272727275" type="line"/>
      <point x="310.3636363636364" y="92.27272727272727" type="line" smooth="yes"/>
      <point x="297.72727272727275" y="20.81818181818182"/>
      <point x="315.27272727272725" y="-10.0"/>
      <point x="354.09090909090907" y="-10.0" type="curve" smooth="yes"/>
      <point x="397.8181818181818" y="-10.0"/>
      <point x="440.6363636363636" y="28.727272727272727"/>
      <point x="477.45454545454544" y="121.63636363636364" type="curve"/>
      <point x="463.90909090909093" y="127.0909090909091" type="line"/>
      <point x="440.45454545454544" y="75.0"/>
      <point x="412.45454545454544" y="48.27272727272727"/>
      <point x="387.8181818181818" y="48.27272727272727" type="curve" smooth="yes"/>
      <point x="368.1818181818182" y="48.27272727272727"/>
      <point x="364.1818181818182" y="65.9090909090909"/>
      <point x="373.3636363636364" y="119.0" type="curve" smooth="yes"/>
      <point x="484.3636363636364" y="750.0" type="line"/>
      <point x="478.6363636363636" y="750.0" type="line"/>
      <point x="336.1818181818182" y="723.2727272727273" type="line"/>
      <point x="336.1818181818182" y="715.0909090909091" type="line"/>
      <point x="415.54545454545456" y="694.7272727272727" type="line"/>
      <point x="367.72727272727275" y="422.3636363636364" type="line"/>
      <point x="408.3636363636364" y="418.72727272727275" type="line"/>
      <point x="385.72727272727275" y="440.54545454545456"/>
      <point x="342.0" y="460.0"/>
      <point x="301.1818181818182" y="460.0" type="curve" smooth="yes"/>
      <point x="165.0909090909091" y="460.0"/>
      <point x="44.54545454545455" y="280.45454545454544"/>
      <point x="44.54545454545455" y="122.54545454545455" type="curve" smooth="yes"/>
      <point x="44.54545454545455" y="35.45454545454545"/>
      <point x="83.81818181818181" y="-10.0"/>
    </contour>
  </outline>
</glyph>
<glyph name="e" format="2">
  <advance width="427.72727272727275"/>
  <unicode hex="0065"/>
  <anchor x="269.09090909090907" y="0.0" name="right"/>
  <anchor x="199.8181818181818" y="0.0" name="bottom"/>
  <anchor x="293.72727272727275" y="510.0" name="top"/>
  <outline>
    <contour>
      <point x="190.8181818181818" y="-10.0" type="curve" smooth="yes"/>
      <point x="267.8181818181818" y="-10.0"/>
      <point x="333.6363636363636" y="48.54545454545455"/>
      <point x="368.27272727272725" y="122.63636363636364" type="curve"/>
      <point x="360.45454545454544" y="129.0" type="line"/>
      <point x="358.45454545454544" y="129.0" type="line"/>
      <point x="318.3636363636364" y="66.81818181818181"/>
      <point x="272.54545454545456" y="35.63636363636364"/>
      <point x="218.1818181818182" y="35.63636363636364" type="curve" smooth="yes"/>
      <point x="144.27272727272728" y="35.63636363636364"/>
      <point x="102.0" y="87.72727272727272"/>
      <point x="102.0" y="178.45454545454547" type="curve" smooth="yes"/>
      <point x="102.0" y="325.72727272727275"/>
      <point x="175.1818181818182" y="432.09090909090907"/>
      <point x="270.09090909090907" y="432.09090909090907" type="curve" smooth="yes"/>
      <point x="311.8181818181818" y="432.09090909090907"/>
      <point x="332.54545454545456" y="408.8181818181818"/>
      <point x="332.54545454545456" y="378.0" type="curve" smooth="yes"/>
      <point x="332.54545454545456" y="314.45454545454544"/>
      <point x="268.54545454545456" y="285.27272727272725"/>
      <point x="101.45454545454545" y="260.45454545454544" type="curve"/>
      <point x="98.72727272727272" y="235.9090909090909" type="line"/>
      <point x="317.54545454545456" y="266.54545454545456"/>
      <point x="392.6363636363636" y="318.3636363636364"/>
      <point x="392.6363636363636" y="382.45454545454544" type="curve" smooth="yes"/>
      <point x="392.6363636363636" y="421.8181818181818"/>
      <point x="359.72727272727275" y="460.0"/>
      <point x="290.54545454545456" y="460.0" type="curve" smooth="yes"/>
      <point x="163.1818181818182" y="460.0"/>
      <point x="44.54545454545455" y="311.0"/>
      <point x="44.54545454545455" y="154.54545454545453" type="curve" smooth="yes"/>
      <point x="44.54545454545455" y="57.0"/>
      <point x="91.0" y="-10.0"/>
    </contour>
  </outline>
</glyph>
<glyph name="f" format="2">
  <advance width="307.0"/>
  <unicode hex="0066"/>
  <outline>
    <contour>
      <point x="-78.63636363636364" y="-240.0" type="curve" smooth="yes"/>
      <point x="29.81818181818182" y="-240.0"/>
      <point x="119.9090909090909" y="-64.18181818181819"/>
      <point x="134.27272727272728" y="27.0" type="curve" smooth="yes"/>
      <point x="210.36363636363637" y="530.0" type="line" smooth="yes"/>
      <point x="227.0909090909091" y="639.4545454545455"/>
      <point x="270.90909090909093" y="697.9090909090909"/>
      <point x="336.0" y="697.9090909090909" type="curve" smooth="yes"/>
      <point x="356.6363636363636" y="697.9090909090909"/>
      <point x="374.1818181818182" y="695.4545454545455"/>
      <point x="392.72727272727275" y="687.4545454545455" type="curve" smooth="yes"/>
      <point x="411.90909090909093" y="678.6363636363636" type="line"/>
      <point x="416.1818181818182" y="678.6363636363636" type="line"/>
      <point x="431.6363636363636" y="707.5454545454545" type="line" smooth="yes"/>
      <point x="434.54545454545456" y="712.9090909090909"/>
      <point x="436.90909090909093" y="719.6363636363636"/>
      <point x="436.90909090909093" y="723.5454545454545" type="curve" smooth="yes"/>
      <point x="436.90909090909093" y="731.3636363636364"/>
      <point x="433.0" y="736.2727272727273"/>
      <point x="420.45454545454544" y="743.0909090909091" type="curve" smooth="yes"/>
      <point x="413.54545454545456" y="747.0909090909091"/>
      <point x="402.90909090909093" y="750.0"/>
      <point x="392.54545454545456" y="750.0" type="curve"/>
      <point x="263.45454545454544" y="750.0"/>
      <point x="157.0909090909091" y="577.3636363636364"/>
      <point x="144.27272727272728" y="490.0" type="curve" smooth="yes"/>
      <point x="72.45454545454545" y="9.727272727272727" type="line" smooth="yes"/>
      <point x="53.0" y="-119.81818181818181"/>
      <point x="18.363636363636363" y="-187.54545454545453"/>
      <point x="-38.36363636363637" y="-187.54545454545453" type="curve" smooth="yes"/>
      <point x="-53.81818181818182" y="-187.54545454545453"/>
      <point x="-69.9090909090909" y="-186.1818181818182"/>
      <point x="-83.18181818181819" y="-178.54545454545453" type="curve" smooth="yes"/>
      <point x="-98.9090909090909" y="-169.72727272727272" type="line"/>
      <point x="-102.72727272727273" y="-169.72727272727272" type="line"/>
      <point x="-114.0" y="-193.1818181818182" type="line" smooth="yes"/>
      <point x="-119.0909090909091" y="-203.36363636363637"/>
      <point x="-120.54545454545455" y="-209.27272727272728"/>
      <point x="-120.54545454545455" y="-214.1818181818182" type="curve" smooth="yes"/>
      <point x="-120.54545454545455" y="-226.27272727272728"/>
      <point x="-107.54545454545455" y="-240.0"/>
    </contour>
    <contour>
      <point x="51.63636363636363" y="414.1818181818182" type="line"/>
      <point x="309.1818181818182" y="414.1818181818182" type="line"/>
      <point x="309.1818181818182" y="450.0" type="line"/>
      <point x="51.63636363636363" y="450.0" type="line"/>
    </contour>
  </outline>
</glyph>
<glyph name="g" format="2">
  <advance width="443.6363636363636"/>
  <unicode hex="0067"/>
  <anchor x="267.72727272727275" y="510.0" name="top"/>
  <outline>
    <contour>
      <point x="202.54545454545453" y="153.0" type="curve" smooth="yes"/>
      <point x="309.90909090909093" y="153.0"/>
      <point x="382.90909090909093" y="250.72727272727272"/>
      <point x="382.90909090909093" y="335.0" type="curve" smooth="yes"/>
      <point x="382.90909090909093" y="371.0"/>
      <point x="372.0" y="403.27272727272725"/>
      <point x="351.54545454545456" y="422.09090909090907" type="curve"/>
      <point x="332.8181818181818" y="440.09090909090907" type="line"/>
      <point x="314.3636363636364" y="452.09090909090907"/>
      <point x="285.90909090909093" y="460.0"/>
      <point x="259.3636363636364" y="460.0" type="curve" smooth="yes"/>
      <point x="158.0" y="460.0"/>
      <point x="78.54545454545455" y="370.6363636363636"/>
      <point x="78.54545454545455" y="275.1818181818182" type="curve" smooth="yes"/>
      <point x="78.54545454545455" y="207.72727272727272"/>
      <point x="121.0909090909091" y="153.0"/>
    </contour>
    <contour>
      <point x="218.36363636363637" y="180.54545454545453" type="curve" smooth="yes"/>
      <point x="160.54545454545453" y="180.54545454545453"/>
      <point x="137.72727272727272" y="228.1818181818182"/>
      <point x="137.72727272727272" y="285.09090909090907" type="curve" smooth="yes"/>
      <point x="137.72727272727272" y="362.27272727272725"/>
      <point x="178.45454545454547" y="433.0"/>
      <point x="245.45454545454547" y="433.0" type="curve" smooth="yes"/>
      <point x="296.3636363636364" y="433.0"/>
      <point x="323.09090909090907" y="395.0"/>
      <point x="323.09090909090907" y="329.3636363636364" type="curve" smooth="yes"/>
      <point x="323.09090909090907" y="251.36363636363637"/>
      <point x="280.3636363636364" y="180.54545454545453"/>
    </contour>
    <contour>
      <point x="457.6363636363636" y="415.27272727272725" type="line"/>
      <point x="457.6363636363636" y="450.0" type="line"/>
      <point x="302.90909090909093" y="450.0" type="line"/>
      <point x="311.6363636363636" y="399.27272727272725" type="line"/>
      <point x="347.45454545454544" y="399.27272727272725" type="line"/>
      <point x="365.90909090909093" y="415.27272727272725" type="line"/>
    </contour>
    <contour>
      <point x="158.54545454545453" y="-240.0" type="curve" smooth="yes"/>
      <point x="294.8181818181818" y="-240.0"/>
      <point x="374.27272727272725" y="-169.1818181818182"/>
      <point x="374.27272727272725" y="-85.36363636363636" type="curve" smooth="yes"/>
      <point x="374.27272727272725" y="58.72727272727273"/>
      <point x="93.54545454545455" y="-5.181818181818183"/>
      <point x="93.54545454545455" y="92.9090909090909" type="curve" smooth="yes"/>
      <point x="93.54545454545455" y="125.45454545454545"/>
      <point x="115.72727272727272" y="148.0909090909091"/>
      <point x="162.36363636363637" y="166.0" type="curve"/>
      <point x="162.36363636363637" y="182.0909090909091" type="line"/>
      <point x="131.0909090909091" y="182.0909090909091" type="line"/>
      <point x="131.0909090909091" y="167.8181818181818" type="line"/>
      <point x="66.81818181818181" y="133.8181818181818" type="line"/>
      <point x="48.90909090909091" y="115.63636363636364"/>
      <point x="38.45454545454545" y="98.45454545454545"/>
      <point x="38.45454545454545" y="73.18181818181819" type="curve" smooth="yes"/>
      <point x="38.45454545454545" y="-65.18181818181819"/>
      <point x="320.3636363636364" y="17.18181818181818"/>
      <point x="320.3636363636364" y="-109.45454545454545" type="curve" smooth="yes"/>
      <point x="320.3636363636364" y="-165.9090909090909"/>
      <point x="265.3636363636364" y="-218.8181818181818"/>
      <point x="169.54545454545453" y="-218.8181818181818" type="curve" smooth="yes"/>
      <point x="98.14285714287273" y="-218.8181818181818"/>
      <point x="47.54545454545455" y="-186.36363636363637"/>
      <point x="47.54545454545455" y="-127.0" type="curve" smooth="yes"/>
      <point x="47.54545454545455" y="-81.0"/>
      <point x="66.81818181818181" y="-35.63636363636364"/>
      <point x="129.8181818181818" y="-0.9090909090909091" type="curve"/>
      <point x="129.8181818181818" y="8.545454545454545" type="line"/>
      <point x="95.72727272727272" y="8.545454545454545" type="line"/>
      <point x="95.72727272727272" y="-4.636363636363637" type="line"/>
      <point x="23.90909090909091" y="-52.90909090909091" type="line"/>
      <point x="2.0722274977863635" y="-79.10959068404546"/>
      <point x="-8.909090909090908" y="-105.4825174825"/>
      <point x="-8.909090909090908" y="-141.8181818181818" type="curve" smooth="yes"/>
      <point x="-8.909090909090908" y="-202.34743474363637"/>
      <point x="54.27272727272727" y="-240.0"/>
    </contour>
  </outline>
</glyph>
<glyph name="h" format="2">
  <advance width="520.8181818181819"/>
  <unicode hex="0068"/>
  <anchor x="346.0" y="765.0" name="top"/>
  <anchor x="237.36363636363637" y="0.0" name="bottom"/>
  <outline>
    <contour>
      <point x="107.63636363636364" y="0.0" type="line"/>
      <point x="239.63636363636363" y="749.5454545454545" type="line"/>
      <point x="233.9090909090909" y="749.5454545454545" type="line"/>
      <point x="101.0" y="722.8181818181819" type="line"/>
      <point x="101.0" y="714.6363636363636" type="line"/>
      <point x="170.8181818181818" y="693.8181818181819" type="line"/>
      <point x="48.54545454545455" y="0.0" type="line"/>
    </contour>
    <contour>
      <point x="373.90909090909093" y="-10.0" type="curve" smooth="yes"/>
      <point x="417.6363636363636" y="-10.0"/>
      <point x="460.45454545454544" y="28.727272727272727"/>
      <point x="497.27272727272725" y="121.63636363636364" type="curve"/>
      <point x="483.72727272727275" y="127.0909090909091" type="line"/>
      <point x="460.27272727272725" y="75.0"/>
      <point x="432.27272727272725" y="48.27272727272727"/>
      <point x="407.6363636363636" y="48.27272727272727" type="curve" smooth="yes"/>
      <point x="388.0" y="48.27272727272727"/>
      <point x="383.45454545454544" y="65.9090909090909"/>
      <point x="393.1818181818182" y="119.0" type="curve" smooth="yes"/>
      <point x="428.1818181818182" y="312.0" type="line" smooth="yes"/>
      <point x="445.27272727272725" y="407.45454545454544"/>
      <point x="408.6363636363636" y="460.0"/>
      <point x="342.54545454545456" y="460.0" type="curve" smooth="yes"/>
      <point x="283.1717758986364" y="460.0"/>
      <point x="243.00602406181818" y="430.17947329727275"/>
      <point x="172.0909090909091" y="351.72727272727275" type="curve"/>
      <point x="153.1818181818182" y="351.72727272727275" type="line"/>
      <point x="153.1818181818182" y="306.0" type="line"/>
      <point x="196.63636363636363" y="355.09090909090907"/>
      <point x="254.0909090909091" y="412.6363636363636"/>
      <point x="307.54545454545456" y="412.6363636363636" type="curve" smooth="yes"/>
      <point x="364.3636363636364" y="412.6363636363636"/>
      <point x="377.8181818181818" y="369.6363636363636"/>
      <point x="369.1818181818182" y="315.54545454545456" type="curve" smooth="yes"/>
      <point x="330.1818181818182" y="92.27272727272727" type="line" smooth="yes"/>
      <point x="317.54545454545456" y="20.81818181818182"/>
      <point x="335.09090909090907" y="-10.0"/>
    </contour>
  </outline>
</glyph>
<glyph name="j" format="2">
  <advance width="288.0"/>
  <unicode hex="006A"/>
  <anchor x="185.45454545454547" y="510.0" name="top"/>
  <outline>
    <contour>
      <point x="-67.27272727272727" y="-224.54545454545453" type="line"/>
      <point x="37.54545454545455" y="-172.8181818181818"/>
      <point x="105.81818181818181" y="-96.27272727272727"/>
      <point x="123.27272727272727" y="0.0" type="curve" smooth="yes"/>
      <point x="205.27272727272728" y="460.0" type="line"/>
      <point x="196.8181818181818" y="460.0" type="line"/>
      <point x="62.54545454545455" y="433.27272727272725" type="line"/>
      <point x="62.54545454545455" y="425.09090909090907" type="line"/>
      <point x="136.45454545454547" y="404.72727272727275" type="line"/>
      <point x="63.81818181818182" y="-4.545454545454545" type="line" smooth="yes"/>
      <point x="43.81818181818182" y="-114.54545454545455"/>
      <point x="1.2727272727272734" y="-163.0"/>
      <point x="-67.27272727272727" y="-208.0" type="curve"/>
    </contour>
    <contour>
      <point x="200.36363636363637" y="605.1818181818181" type="curve" smooth="yes"/>
      <point x="224.8181818181818" y="605.1818181818181"/>
      <point x="244.8181818181818" y="625.1818181818181"/>
      <point x="244.8181818181818" y="649.6363636363636" type="curve" smooth="yes"/>
      <point x="244.8181818181818" y="674.0909090909091"/>
      <point x="224.8181818181818" y="694.0909090909091"/>
      <point x="200.36363636363637" y="694.0909090909091" type="curve" smooth="yes"/>
      <point x="175.9090909090909" y="694.0909090909091"/>
      <point x="155.9090909090909" y="674.0909090909091"/>
      <point x="155.9090909090909" y="649.6363636363636" type="curve" smooth="yes"/>
      <point x="155.9090909090909" y="625.1818181818181"/>
      <point x="175.9090909090909" y="605.1818181818181"/>
    </contour>
  </outline>
</glyph>
<glyph name="k" format="2">
  <advance width="472.45454545454544"/>
  <unicode hex="006B"/>
  <anchor x="188.72727272727272" y="0.0" name="bottom"/>
  <outline>
    <contour>
      <point x="48.54545454545455" y="0.0" type="line"/>
      <point x="106.54545454545455" y="0.0" type="line"/>
      <point x="239.0909090909091" y="749.5454545454545" type="line"/>
      <point x="233.36363636363637" y="749.5454545454545" type="line"/>
      <point x="100.45454545454545" y="722.8181818181819" type="line"/>
      <point x="100.45454545454545" y="714.6363636363636" type="line"/>
      <point x="170.27272727272728" y="693.8181818181819" type="line"/>
    </contour>
    <contour>
      <point x="334.72727272727275" y="-10.0" type="curve" smooth="yes"/>
      <point x="376.3636363636364" y="-10.0"/>
      <point x="408.3636363636364" y="34.36363636363637"/>
      <point x="443.8181818181818" y="121.63636363636364" type="curve"/>
      <point x="430.27272727272725" y="127.0909090909091" type="line"/>
      <point x="406.27272727272725" y="72.81818181818181"/>
      <point x="382.1818181818182" y="48.27272727272727"/>
      <point x="360.90909090909093" y="48.27272727272727" type="curve" smooth="yes"/>
      <point x="341.8181818181818" y="48.27272727272727"/>
      <point x="331.45454545454544" y="61.36363636363636"/>
      <point x="304.3636363636364" y="109.0" type="curve" smooth="yes"/>
      <point x="204.9090909090909" y="283.09090909090907" type="line"/>
      <point x="193.54545454545453" y="263.54545454545456" type="line"/>
      <point x="302.1818181818182" y="367.45454545454544" type="line" smooth="yes"/>
      <point x="321.1818181818182" y="385.09090909090907"/>
      <point x="348.0" y="403.3636363636364"/>
      <point x="368.1818181818182" y="403.3636363636364" type="curve" smooth="yes"/>
      <point x="382.90909090909093" y="403.3636363636364"/>
      <point x="393.72727272727275" y="399.6363636363636"/>
      <point x="402.3636363636364" y="395.0" type="curve" smooth="yes"/>
      <point x="415.45454545454544" y="389.09090909090907" type="line"/>
      <point x="418.8181818181818" y="390.90909090909093" type="line"/>
      <point x="434.1818181818182" y="424.1818181818182" type="line" smooth="yes"/>
      <point x="439.72727272727275" y="436.1818181818182"/>
      <point x="435.90909090909093" y="445.6363636363636"/>
      <point x="427.45454545454544" y="451.54545454545456" type="curve" smooth="yes"/>
      <point x="419.90909090909093" y="456.54545454545456"/>
      <point x="410.54545454545456" y="460.0"/>
      <point x="395.09090909090907" y="460.0" type="curve" smooth="yes"/>
      <point x="350.54545454545456" y="460.0"/>
      <point x="303.6363636363636" y="410.0"/>
      <point x="156.54545454545453" y="257.0" type="curve"/>
      <point x="156.54545454545453" y="252.0" type="line"/>
      <point x="251.54545454545453" y="79.0" type="line" smooth="yes"/>
      <point x="286.6363636363636" y="15.363636363636363"/>
      <point x="299.72727272727275" y="-10.0"/>
    </contour>
  </outline>
</glyph>
<glyph name="l" format="2">
  <advance width="255.8181818181818"/>
  <unicode hex="006C"/>
  <anchor x="216.9090909090909" y="765.0" name="top"/>
  <anchor x="341.45454545454544" y="740.0" name="right"/>
  <anchor x="256.72727272727275" y="300.0" name="mid"/>
  <anchor x="100.63636363636364" y="0.0" name="bottom"/>
  <outline>
    <contour>
      <point x="103.18181818181819" y="-10.0" type="curve" smooth="yes"/>
      <point x="146.9090909090909" y="-10.0"/>
      <point x="189.72727272727272" y="28.727272727272727"/>
      <point x="226.54545454545453" y="121.63636363636364" type="curve"/>
      <point x="213.0" y="127.0909090909091" type="line"/>
      <point x="189.54545454545453" y="75.0"/>
      <point x="161.54545454545453" y="48.27272727272727"/>
      <point x="136.9090909090909" y="48.27272727272727" type="curve" smooth="yes"/>
      <point x="117.27272727272727" y="48.27272727272727"/>
      <point x="113.27272727272727" y="65.9090909090909"/>
      <point x="122.45454545454545" y="119.0" type="curve" smooth="yes"/>
      <point x="234.54545454545453" y="750.0" type="line"/>
      <point x="226.0909090909091" y="750.0" type="line"/>
      <point x="91.81818181818181" y="723.2727272727273" type="line"/>
      <point x="91.81818181818181" y="715.0909090909091" type="line"/>
      <point x="165.72727272727272" y="694.7272727272727" type="line"/>
      <point x="59.45454545454545" y="92.27272727272727" type="line" smooth="yes"/>
      <point x="47.27272727272727" y="20.81818181818182"/>
      <point x="64.36363636363636" y="-10.0"/>
    </contour>
  </outline>
</glyph>
<glyph name="m" format="2">
  <advance width="758.8181818181819"/>
  <unicode hex="006D"/>
  <anchor x="328.27272727272725" y="0.0" name="bottom"/>
  <outline>
    <contour>
      <point x="44.63636363636363" y="0.0" type="line"/>
      <point x="103.72727272727272" y="0.0" type="line"/>
      <point x="163.72727272727272" y="343.6363636363636" type="line"/>
      <point x="172.45454545454547" y="460.0" type="line"/>
      <point x="166.72727272727272" y="460.0" type="line"/>
      <point x="46.54545454545455" y="433.27272727272725" type="line"/>
      <point x="46.54545454545455" y="425.09090909090907" type="line"/>
      <point x="116.36363636363636" y="404.27272727272725" type="line"/>
    </contour>
    <contour>
      <point x="298.45454545454544" y="0.0" type="line"/>
      <point x="356.45454545454544" y="0.0" type="line"/>
      <point x="412.45454545454544" y="312.0" type="line" smooth="yes"/>
      <point x="429.54545454545456" y="407.45454545454544"/>
      <point x="396.54545454545456" y="460.0"/>
      <point x="332.72727272727275" y="460.0" type="curve" smooth="yes"/>
      <point x="273.1818181818182" y="460.0"/>
      <point x="237.72727272727272" y="430.27272727272725"/>
      <point x="167.72727272727272" y="351.72727272727275" type="curve"/>
      <point x="149.27272727272728" y="351.72727272727275" type="line"/>
      <point x="149.27272727272728" y="306.0" type="line"/>
      <point x="192.72727272727272" y="355.09090909090907"/>
      <point x="244.27272727272728" y="412.6363636363636"/>
      <point x="297.72727272727275" y="412.6363636363636" type="curve" smooth="yes"/>
      <point x="351.8181818181818" y="412.6363636363636"/>
      <point x="362.54545454545456" y="369.6363636363636"/>
      <point x="353.45454545454544" y="315.54545454545456" type="curve" smooth="yes"/>
    </contour>
    <contour>
      <point x="611.9090909090909" y="-10.0" type="curve" smooth="yes"/>
      <point x="655.6363636363636" y="-10.0"/>
      <point x="698.4545454545455" y="28.727272727272727"/>
      <point x="735.2727272727273" y="121.63636363636364" type="curve"/>
      <point x="721.7272727272727" y="127.0909090909091" type="line"/>
      <point x="698.2727272727273" y="75.0"/>
      <point x="670.2727272727273" y="48.27272727272727"/>
      <point x="645.6363636363636" y="48.27272727272727" type="curve" smooth="yes"/>
      <point x="626.0" y="48.27272727272727"/>
      <point x="621.4545454545455" y="65.9090909090909"/>
      <point x="631.1818181818181" y="119.0" type="curve" smooth="yes"/>
      <point x="666.1818181818181" y="312.0" type="line" smooth="yes"/>
      <point x="683.2727272727273" y="407.45454545454544"/>
      <point x="650.2727272727273" y="460.0"/>
      <point x="586.4545454545455" y="460.0" type="curve" smooth="yes"/>
      <point x="526.9090909090909" y="460.0"/>
      <point x="491.45454545454544" y="429.72727272727275"/>
      <point x="420.90909090909093" y="351.1818181818182" type="curve"/>
      <point x="403.0" y="351.1818181818182" type="line"/>
      <point x="403.0" y="306.0" type="line"/>
      <point x="446.45454545454544" y="355.09090909090907"/>
      <point x="498.0" y="412.6363636363636"/>
      <point x="551.4545454545455" y="412.6363636363636" type="curve" smooth="yes"/>
      <point x="605.5454545454545" y="412.6363636363636"/>
      <point x="616.2727272727273" y="369.6363636363636"/>
      <point x="607.1818181818181" y="315.54545454545456" type="curve" smooth="yes"/>
      <point x="568.1818181818181" y="92.27272727272727" type="line" smooth="yes"/>
      <point x="555.5454545454545" y="20.81818181818182"/>
      <point x="573.0909090909091" y="-10.0"/>
    </contour>
  </outline>
</glyph>
<glyph name="n" format="2">
  <advance width="516.9090909090909"/>
  <unicode hex="006E"/>
  <anchor x="293.8181818181818" y="510.0" name="top"/>
  <anchor x="224.36363636363637" y="0.0" name="bottom"/>
  <outline>
    <contour>
      <point x="44.63636363636363" y="0.0" type="line"/>
      <point x="103.72727272727272" y="0.0" type="line"/>
      <point x="163.72727272727272" y="343.6363636363636" type="line"/>
      <point x="172.45454545454547" y="460.0" type="line"/>
      <point x="166.72727272727272" y="460.0" type="line"/>
      <point x="46.54545454545455" y="433.27272727272725" type="line"/>
      <point x="46.54545454545455" y="425.09090909090907" type="line"/>
      <point x="116.36363636363636" y="404.27272727272725" type="line"/>
    </contour>
    <contour>
      <point x="370.0" y="-10.0" type="curve" smooth="yes"/>
      <point x="413.72727272727275" y="-10.0"/>
      <point x="456.54545454545456" y="28.727272727272727"/>
      <point x="493.3636363636364" y="121.63636363636364" type="curve"/>
      <point x="479.8181818181818" y="127.0909090909091" type="line"/>
      <point x="456.3636363636364" y="75.0"/>
      <point x="428.3636363636364" y="48.27272727272727"/>
      <point x="403.72727272727275" y="48.27272727272727" type="curve" smooth="yes"/>
      <point x="384.09090909090907" y="48.27272727272727"/>
      <point x="379.54545454545456" y="65.9090909090909"/>
      <point x="389.27272727272725" y="119.0" type="curve" smooth="yes"/>
      <point x="424.27272727272725" y="312.0" type="line" smooth="yes"/>
      <point x="441.3636363636364" y="407.45454545454544"/>
      <point x="404.72727272727275" y="460.0"/>
      <point x="338.6363636363636" y="460.0" type="curve" smooth="yes"/>
      <point x="279.09090909090907" y="460.0"/>
      <point x="238.72727272727272" y="430.27272727272725"/>
      <point x="167.72727272727272" y="351.72727272727275" type="curve"/>
      <point x="149.27272727272728" y="351.72727272727275" type="line"/>
      <point x="149.27272727272728" y="306.0" type="line"/>
      <point x="192.72727272727272" y="355.09090909090907"/>
      <point x="250.1818181818182" y="412.6363636363636"/>
      <point x="303.6363636363636" y="412.6363636363636" type="curve" smooth="yes"/>
      <point x="360.45454545454544" y="412.6363636363636"/>
      <point x="373.90909090909093" y="369.6363636363636"/>
      <point x="365.27272727272725" y="315.54545454545456" type="curve" smooth="yes"/>
      <point x="326.27272727272725" y="92.27272727272727" type="line" smooth="yes"/>
      <point x="313.6363636363636" y="20.81818181818182"/>
      <point x="331.1818181818182" y="-10.0"/>
    </contour>
  </outline>
</glyph>
<glyph name="o" format="2">
  <advance width="481.72727272727275"/>
  <unicode hex="006F"/>
  <anchor x="287.6363636363636" y="510.0" name="top"/>
  <anchor x="227.72727272727272" y="0.0" name="right"/>
  <anchor x="204.0909090909091" y="0.0" name="bottom"/>
  <outline>
    <contour>
      <point x="202.54545454545453" y="-10.0" type="curve" smooth="yes"/>
      <point x="342.54545454545456" y="-10.0"/>
      <point x="437.1818181818182" y="142.8181818181818"/>
      <point x="437.1818181818182" y="274.72727272727275" type="curve" smooth="yes"/>
      <point x="437.1818181818182" y="383.8181818181818"/>
      <point x="382.6363636363636" y="460.0"/>
      <point x="279.1818181818182" y="460.0" type="curve" smooth="yes"/>
      <point x="147.0" y="460.0"/>
      <point x="44.54545454545455" y="320.45454545454544"/>
      <point x="44.54545454545455" y="174.1818181818182" type="curve" smooth="yes"/>
      <point x="44.54545454545455" y="66.18181818181819"/>
      <point x="99.0909090909091" y="-10.0"/>
    </contour>
    <contour>
      <point x="216.27272727272728" y="19.81818181818182" type="curve" smooth="yes"/>
      <point x="141.54545454545453" y="19.81818181818182"/>
      <point x="109.72727272727272" y="81.41581495425454"/>
      <point x="109.72727272727272" y="178.8181818181818" type="curve" smooth="yes"/>
      <point x="109.72727272727272" y="322.86671223527276"/>
      <point x="175.36363636363637" y="431.1818181818182"/>
      <point x="266.90909090909093" y="431.1818181818182" type="curve" smooth="yes"/>
      <point x="341.72727272727275" y="431.1818181818182"/>
      <point x="372.0" y="370.59504132236367"/>
      <point x="372.0" y="275.27272727272725" type="curve" smooth="yes"/>
      <point x="372.0" y="134.4343434341818"/>
      <point x="307.09090909090907" y="19.81818181818182"/>
    </contour>
  </outline>
</glyph>
<glyph name="q" format="2">
  <advance width="467.0"/>
  <unicode hex="0071"/>
  <outline>
    <contour>
      <point x="185.1818181818182" y="-230.0" type="line"/>
      <point x="376.1818181818182" y="-230.0" type="line"/>
      <point x="376.1818181818182" y="-217.27272727272728" type="line"/>
      <point x="315.45454545454544" y="-191.63636363636363" type="line"/>
      <point x="430.8181818181818" y="454.54545454545456" type="line"/>
      <point x="424.27272727272725" y="454.54545454545456" type="line"/>
      <point x="376.09090909090907" y="421.54545454545456" type="line"/>
      <point x="405.3636363636364" y="413.27272727272725" type="line"/>
      <point x="380.54545454545456" y="439.45454545454544"/>
      <point x="332.45454545454544" y="460.0"/>
      <point x="288.3636363636364" y="460.0" type="curve" smooth="yes"/>
      <point x="161.0" y="460.0"/>
      <point x="43.18181818181818" y="298.45454545454544"/>
      <point x="43.18181818181818" y="131.8181818181818" type="curve" smooth="yes"/>
      <point x="43.18181818181818" y="38.72727272727273"/>
      <point x="80.27272727272727" y="-10.0"/>
      <point x="135.45454545454547" y="-10.0" type="curve" smooth="yes"/>
      <point x="194.8181818181818" y="-10.0"/>
      <point x="245.8181818181818" y="32.0"/>
      <point x="307.27272727272725" y="110.63636363636364" type="curve"/>
      <point x="329.8181818181818" y="110.63636363636364" type="line"/>
      <point x="329.8181818181818" y="166.72727272727272" type="line"/>
      <point x="285.45454545454544" y="106.27272727272728"/>
      <point x="226.1818181818182" y="39.63636363636364"/>
      <point x="167.72727272727272" y="39.63636363636364" type="curve" smooth="yes"/>
      <point x="121.81818181818181" y="39.63636363636364"/>
      <point x="102.27272727272728" y="77.51105651104545"/>
      <point x="102.27272727272728" y="151.72727272727272" type="curve" smooth="yes"/>
      <point x="102.27272727272728" y="313.54545454545456"/>
      <point x="172.27272727272728" y="428.09090909090907"/>
      <point x="263.1818181818182" y="428.09090909090907" type="curve" smooth="yes"/>
      <point x="300.3636363636364" y="428.09090909090907"/>
      <point x="330.54545454545456" y="414.27272727272725"/>
      <point x="362.90909090909093" y="376.8181818181818" type="curve"/>
      <point x="360.3636363636364" y="392.27272727272725" type="line"/>
      <point x="256.3636363636364" y="-193.0" type="line"/>
      <point x="185.1818181818182" y="-217.27272727272728" type="line"/>
    </contour>
  </outline>
</glyph>
<glyph name="r" format="2">
  <advance width="334.09090909090907"/>
  <unicode hex="0072"/>
  <anchor x="235.1818181818182" y="510.0" name="top"/>
  <anchor x="89.63636363636364" y="0.0" name="bottom"/>
  <outline>
    <contour>
      <point x="59.36363636363636" y="0.0" type="line"/>
      <point x="118.45454545454545" y="0.0" type="line"/>
      <point x="178.0" y="335.90909090909093" type="line"/>
      <point x="186.72727272727272" y="460.0" type="line"/>
      <point x="182.63636363636363" y="460.0" type="line"/>
      <point x="60.18181818181819" y="433.27272727272725" type="line"/>
      <point x="60.18181818181819" y="425.09090909090907" type="line"/>
      <point x="131.0909090909091" y="404.27272727272725" type="line"/>
    </contour>
    <contour>
      <point x="288.6363636363636" y="399.1818181818182" type="curve" smooth="yes"/>
      <point x="300.6363636363636" y="399.1818181818182"/>
      <point x="310.90909090909093" y="396.1818181818182"/>
      <point x="319.72727272727275" y="390.3636363636364" type="curve" smooth="yes"/>
      <point x="332.90909090909093" y="381.8181818181818" type="line"/>
      <point x="337.27272727272725" y="381.8181818181818" type="line"/>
      <point x="355.72727272727275" y="417.54545454545456" type="line" smooth="yes"/>
      <point x="358.27272727272725" y="422.09090909090907"/>
      <point x="359.27272727272725" y="427.1818181818182"/>
      <point x="359.27272727272725" y="430.1818181818182" type="curve" smooth="yes"/>
      <point x="359.27272727272725" y="445.8181818181818"/>
      <point x="339.09090909090907" y="460.0"/>
      <point x="315.09090909090907" y="460.0" type="curve" smooth="yes"/>
      <point x="283.90909090909093" y="460.0"/>
      <point x="250.45454545454547" y="448.0"/>
      <point x="182.54545454545453" y="343.54545454545456" type="curve"/>
      <point x="161.8181818181818" y="343.54545454545456" type="line"/>
      <point x="161.8181818181818" y="279.54545454545456" type="line"/>
      <point x="218.0" y="372.8181818181818"/>
      <point x="250.0" y="399.1818181818182"/>
    </contour>
  </outline>
</glyph>
<glyph name="s" format="2">
  <advance width="359.54545454545456"/>
  <unicode hex="0073"/>
  <anchor x="230.0" y="510.0" name="top"/>
  <anchor x="142.0" y="0.0" name="bottom"/>
  <outline>
    <contour>
      <point x="139.36363636363637" y="-10.0" type="curve"/>
      <point x="229.1818181818182" y="-10.0"/>
      <point x="294.3636363636364" y="60.36363636363637"/>
      <point x="294.3636363636364" y="129.72727272727272" type="curve" smooth="yes"/>
      <point x="294.3636363636364" y="195.63636363636363"/>
      <point x="259.90909090909093" y="222.45454545454547"/>
      <point x="193.9090909090909" y="261.1818181818182" type="curve" smooth="yes"/>
      <point x="152.36363636363637" y="285.54545454545456"/>
      <point x="127.27272727272727" y="311.97502497502495"/>
      <point x="127.27272727272727" y="356.1818181818182" type="curve" smooth="yes"/>
      <point x="127.27272727272727" y="394.72727272727275"/>
      <point x="159.36363636363637" y="432.27272727272725"/>
      <point x="208.1818181818182" y="432.27272727272725" type="curve" smooth="yes"/>
      <point x="241.0" y="432.27272727272725"/>
      <point x="262.54545454545456" y="417.8181818181818"/>
      <point x="283.1818181818182" y="390.1818181818182" type="curve" smooth="yes"/>
      <point x="301.3636363636364" y="365.72727272727275" type="line"/>
      <point x="306.72727272727275" y="365.72727272727275" type="line"/>
      <point x="321.90909090909093" y="377.3636363636364" type="line" smooth="yes"/>
      <point x="329.1818181818182" y="382.3636363636364"/>
      <point x="332.09090909090907" y="390.6363636363636"/>
      <point x="332.09090909090907" y="397.45454545454544" type="curve" smooth="yes"/>
      <point x="332.09090909090907" y="404.3636363636364"/>
      <point x="330.09090909090907" y="410.27272727272725"/>
      <point x="322.54545454545456" y="419.6363636363636" type="curve" smooth="yes"/>
      <point x="301.90909090909093" y="444.3636363636364"/>
      <point x="269.8181818181818" y="460.0"/>
      <point x="221.0909090909091" y="460.0" type="curve" smooth="yes"/>
      <point x="146.0909090909091" y="460.0"/>
      <point x="75.45454545454545" y="392.72727272727275"/>
      <point x="75.45454545454545" y="331.45454545454544" type="curve" smooth="yes"/>
      <point x="75.45454545454545" y="275.97709377236936"/>
      <point x="99.01154223075784" y="247.6423835726055"/>
      <point x="165.45454545454547" y="208.45454545454547" type="curve" smooth="yes"/>
      <point x="216.31223016932864" y="179.0479961344017"/>
      <point x="242.45454545454547" y="156.07308377896612"/>
      <point x="242.45454545454547" y="107.9090909090909" type="curve" smooth="yes"/>
      <point x="242.45454545454547" y="53.63636363636363"/>
      <point x="205.45454545454547" y="18.454545454545453"/>
      <point x="147.27272727272728" y="18.454545454545453" type="curve" smooth="yes"/>
      <point x="111.54545454545455" y="18.454545454545453"/>
      <point x="78.36363636363636" y="34.45454545454545"/>
      <point x="58.36363636363637" y="68.45454545454545" type="curve" smooth="yes"/>
      <point x="45.18181818181818" y="90.9090909090909" type="line"/>
      <point x="39.27272727272727" y="90.9090909090909" type="line"/>
      <point x="21.636363636363637" y="78.9090909090909" type="line" smooth="yes"/>
      <point x="12.709090909090909" y="72.9090909090909"/>
      <point x="11.272727272727273" y="66.0909090909091"/>
      <point x="11.272727272727273" y="59.72727272727273" type="curve" smooth="yes"/>
      <point x="11.272727272727273" y="51.81818181818182"/>
      <point x="13.818181818181818" y="45.36363636363636"/>
      <point x="21.81818181818182" y="35.0" type="curve" smooth="yes"/>
      <point x="40.27272727272727" y="10.909090909090908"/>
      <point x="76.27272727272727" y="-10.0"/>
    </contour>
  </outline>
</glyph>
<glyph name="t" format="2">
  <advance width="306.90909090909093"/>
  <unicode hex="0074"/>
  <anchor x="199.0909090909091" y="610.0" name="top"/>
  <anchor x="366.8181818181818" y="740.0" name="right"/>
  <anchor x="132.54545454545453" y="0.0" name="bottom"/>
  <outline>
    <contour>
      <point x="127.18181818181819" y="-10.0" type="curve" smooth="yes"/>
      <point x="180.36363636363637" y="-10.0"/>
      <point x="231.45454545454547" y="33.36363636363637"/>
      <point x="273.8181818181818" y="146.27272727272728" type="curve"/>
      <point x="260.27272727272725" y="151.72727272727272" type="line"/>
      <point x="230.1818181818182" y="82.45454545454545"/>
      <point x="191.72727272727272" y="45.81818181818181"/>
      <point x="159.54545454545453" y="45.81818181818181" type="curve" smooth="yes"/>
      <point x="140.45454545454544" y="45.81818181818181"/>
      <point x="130.0" y="57.81818181818181"/>
      <point x="130.0" y="90.36363636363636" type="curve" smooth="yes"/>
      <point x="130.0" y="102.45454545454545"/>
      <point x="131.54545454545453" y="117.54545454545455"/>
      <point x="134.54545454545453" y="136.72727272727272" type="curve" smooth="yes"/>
      <point x="182.8181818181818" y="414.1818181818182" type="line"/>
      <point x="310.90909090909093" y="414.1818181818182" type="line"/>
      <point x="310.90909090909093" y="450.0" type="line"/>
      <point x="189.72727272727272" y="450.0" type="line"/>
      <point x="209.27272727272728" y="560.0" type="line"/>
      <point x="201.63636363636363" y="560.0" type="line"/>
      <point x="136.36363636363637" y="451.6363636363636" type="line"/>
      <point x="48.09090909090909" y="420.72727272727275" type="line"/>
      <point x="48.09090909090909" y="414.1818181818182" type="line"/>
      <point x="123.72727272727273" y="414.1818181818182" type="line"/>
      <point x="68.54545454545455" y="97.63636363636364" type="line" smooth="yes"/>
      <point x="66.54545454545455" y="85.27272727272727"/>
      <point x="65.0909090909091" y="73.36363636363636"/>
      <point x="65.0909090909091" y="63.45454545454545" type="curve" smooth="yes"/>
      <point x="65.0909090909091" y="17.272727272727273"/>
      <point x="85.9090909090909" y="-10.0"/>
    </contour>
  </outline>
</glyph>
<glyph name="u" format="2">
  <advance width="501.8181818181818"/>
  <unicode hex="0075"/>
  <anchor x="290.6363636363636" y="510.0" name="top"/>
  <anchor x="210.63636363636363" y="0.0" name="bottom"/>
  <anchor x="404.6363636363636" y="0.0" name="right"/>
  <outline>
    <contour>
      <point x="150.27272727272728" y="-10.0" type="curve" smooth="yes"/>
      <point x="207.45454545454547" y="-10.0"/>
      <point x="244.27272727272728" y="20.09090909090909"/>
      <point x="312.27272727272725" y="96.63636363636364" type="curve"/>
      <point x="332.3636363636364" y="96.63636363636364" type="line"/>
      <point x="332.3636363636364" y="144.0" type="line"/>
      <point x="289.3636363636364" y="95.36363636363636"/>
      <point x="237.36363636363637" y="37.36363636363636"/>
      <point x="185.27272727272728" y="37.36363636363636" type="curve" smooth="yes"/>
      <point x="143.1818181818182" y="37.36363636363636"/>
      <point x="127.27272727272728" y="64.63636363636364"/>
      <point x="127.27272727272728" y="102.18181818181819" type="curve" smooth="yes"/>
      <point x="127.27272727272728" y="111.9090909090909"/>
      <point x="128.8181818181818" y="124.0909090909091"/>
      <point x="131.8181818181818" y="140.36363636363637" type="curve" smooth="yes"/>
      <point x="187.0909090909091" y="460.0" type="line"/>
      <point x="180.9090909090909" y="460.0" type="line"/>
      <point x="49.81818181818182" y="433.27272727272725" type="line"/>
      <point x="49.81818181818182" y="425.09090909090907" type="line"/>
      <point x="119.63636363636364" y="404.27272727272725" type="line"/>
      <point x="71.9090909090909" y="138.0" type="line" smooth="yes"/>
      <point x="68.81818181818181" y="120.72727272727273"/>
      <point x="66.81818181818181" y="105.0"/>
      <point x="66.81818181818181" y="90.9090909090909" type="curve" smooth="yes"/>
      <point x="66.81818181818181" y="25.545454545454547"/>
      <point x="98.0" y="-10.0"/>
    </contour>
    <contour>
      <point x="359.6363636363636" y="-10.0" type="curve" smooth="yes"/>
      <point x="403.3636363636364" y="-10.0"/>
      <point x="446.1818181818182" y="28.727272727272727"/>
      <point x="483.0" y="121.63636363636364" type="curve"/>
      <point x="469.45454545454544" y="127.0909090909091" type="line"/>
      <point x="446.0" y="75.0"/>
      <point x="418.0" y="48.27272727272727"/>
      <point x="393.3636363636364" y="48.27272727272727" type="curve" smooth="yes"/>
      <point x="372.9917355371901" y="48.27272727272727"/>
      <point x="368.94405594405595" y="67.04195804195804"/>
      <point x="378.0" y="119.0" type="curve" smooth="yes"/>
      <point x="438.0" y="460.0" type="line"/>
      <point x="431.8181818181818" y="460.0" type="line"/>
      <point x="300.0" y="433.27272727272725" type="line"/>
      <point x="300.0" y="425.09090909090907" type="line"/>
      <point x="370.09090909090907" y="404.27272727272725" type="line"/>
      <point x="314.8181818181818" y="92.27272727272727" type="line" smooth="yes"/>
      <point x="303.09790209790214" y="21.951048951048946"/>
      <point x="320.60743801652893" y="-10.0"/>
    </contour>
  </outline>
</glyph>
<glyph name="v" format="2">
  <advance width="412.0"/>
  <unicode hex="0076"/>
  <outline>
    <contour>
      <point x="176.8181818181818" y="-2.7272727272727275" type="line"/>
      <point x="186.0" y="-2.7272727272727275" type="line"/>
      <point x="224.0" y="58.09090909090909" type="line"/>
      <point x="224.0" y="85.9090909090909" type="line"/>
      <point x="216.1818181818182" y="85.9090909090909" type="line"/>
      <point x="142.9090909090909" y="460.0" type="line"/>
      <point x="139.36363636363637" y="460.0" type="line"/>
      <point x="18.09090909090909" y="432.72727272727275" type="line"/>
      <point x="18.09090909090909" y="424.54545454545456" type="line"/>
      <point x="120.72727272727272" y="399.27272727272725" type="line"/>
      <point x="85.18181818181819" y="435.0" type="line"/>
    </contour>
    <contour>
      <point x="191.27272727272728" y="-2.7272727272727275" type="line"/>
      <point x="342.6363636363636" y="240.54545454545453" type="line" smooth="yes"/>
      <point x="391.27272727272725" y="318.45454545454544"/>
      <point x="407.54545454545456" y="358.8181818181818"/>
      <point x="407.54545454545456" y="388.09090909090907" type="curve" smooth="yes"/>
      <point x="407.54545454545456" y="423.27272727272725"/>
      <point x="385.45454545454544" y="460.0"/>
      <point x="357.8181818181818" y="460.0" type="curve" smooth="yes"/>
      <point x="347.72727272727275" y="460.0"/>
      <point x="343.27272727272725" y="456.54545454545456"/>
      <point x="335.45454545454544" y="443.54545454545456" type="curve" smooth="yes"/>
      <point x="319.45454545454544" y="417.90909090909093" type="line"/>
      <point x="319.45454545454544" y="414.45454545454544" type="line"/>
      <point x="334.09090909090907" y="405.90909090909093" type="line" smooth="yes"/>
      <point x="349.0" y="397.0"/>
      <point x="358.8181818181818" y="384.90909090909093"/>
      <point x="358.8181818181818" y="362.27272727272725" type="curve" smooth="yes"/>
      <point x="358.8181818181818" y="331.27272727272725"/>
      <point x="343.27272727272725" y="287.54545454545456"/>
      <point x="300.6363636363636" y="218.0909090909091" type="curve" smooth="yes"/>
      <point x="182.0909090909091" y="25.454545454545453" type="line"/>
      <point x="182.0909090909091" y="-2.7272727272727275" type="line"/>
    </contour>
  </outline>
</glyph>
<glyph name="w" format="2">
  <advance width="638.9090909090909"/>
  <unicode hex="0077"/>
  <anchor x="386.3636363636364" y="510.0" name="top"/>
  <outline>
    <contour>
      <point x="170.1818181818182" y="-2.7272727272727275" type="line"/>
      <point x="180.72727272727272" y="-2.7272727272727275" type="line"/>
      <point x="214.72727272727272" y="70.36363636363636" type="line"/>
      <point x="214.72727272727272" y="96.9090909090909" type="line"/>
      <point x="206.63636363636363" y="96.9090909090909" type="line"/>
      <point x="142.9090909090909" y="460.0" type="line"/>
      <point x="139.36363636363637" y="460.0" type="line"/>
      <point x="18.09090909090909" y="432.72727272727275" type="line"/>
      <point x="18.09090909090909" y="424.54545454545456" type="line"/>
      <point x="120.72727272727272" y="399.27272727272725" type="line"/>
      <point x="85.63636363636364" y="435.0" type="line"/>
    </contour>
    <contour>
      <point x="370.45454545454544" y="450.0" type="line"/>
      <point x="176.8181818181818" y="22.09090909090909" type="line"/>
      <point x="176.8181818181818" y="-2.7272727272727275" type="line"/>
      <point x="185.1818181818182" y="-2.7272727272727275" type="line"/>
      <point x="357.1818181818182" y="348.0909090909091" type="line"/>
      <point x="343.3636363636364" y="348.0909090909091" type="line"/>
      <point x="418.72727272727275" y="-2.7272727272727275" type="line"/>
      <point x="427.90909090909093" y="-2.7272727272727275" type="line"/>
      <point x="460.09090909090907" y="67.72727272727272" type="line"/>
      <point x="381.1818181818182" y="450.0" type="line"/>
    </contour>
    <contour>
      <point x="433.1818181818182" y="-2.7272727272727275" type="line"/>
      <point x="572.8181818181819" y="240.54545454545453" type="line" smooth="yes"/>
      <point x="618.1818181818181" y="319.8181818181818"/>
      <point x="634.4545454545455" y="358.8181818181818"/>
      <point x="634.4545454545455" y="388.09090909090907" type="curve" smooth="yes"/>
      <point x="634.4545454545455" y="423.27272727272725"/>
      <point x="612.3636363636364" y="460.0"/>
      <point x="584.7272727272727" y="460.0" type="curve" smooth="yes"/>
      <point x="574.6363636363636" y="460.0"/>
      <point x="570.1818181818181" y="456.54545454545456"/>
      <point x="562.3636363636364" y="443.54545454545456" type="curve" smooth="yes"/>
      <point x="546.3636363636364" y="417.90909090909093" type="line"/>
      <point x="546.3636363636364" y="414.45454545454544" type="line"/>
      <point x="561.0" y="405.90909090909093" type="line" smooth="yes"/>
      <point x="575.9090909090909" y="397.0"/>
      <point x="585.7272727272727" y="384.90909090909093"/>
      <point x="585.7272727272727" y="362.27272727272725" type="curve" smooth="yes"/>
      <point x="585.7272727272727" y="331.27272727272725"/>
      <point x="568.0" y="288.90909090909093"/>
      <point x="530.0909090909091" y="218.0909090909091" type="curve" smooth="yes"/>
      <point x="460.27272727272725" y="86.54545454545455" type="line"/>
      <point x="424.0" y="86.54545454545455" type="line"/>
      <point x="424.0" y="-2.7272727272727275" type="line"/>
    </contour>
  </outline>
</glyph>
<glyph name="x" format="2">
  <advance width="448.0"/>
  <unicode hex="0078"/>
  <outline>
    <contour>
      <point x="288.45454545454544" y="0.0" type="line"/>
      <point x="291.45454545454544" y="0.0" type="line"/>
      <point x="403.0" y="29.454545454545453" type="line"/>
      <point x="403.0" y="37.63636363636363" type="line"/>
      <point x="313.45454545454544" y="61.09090909090909" type="line"/>
      <point x="330.54545454545456" y="51.63636363636364" type="line"/>
      <point x="170.36363636363637" y="460.0" type="line"/>
      <point x="167.27272727272728" y="460.0" type="line"/>
      <point x="56.72727272727273" y="432.1818181818182" type="line"/>
      <point x="56.72727272727273" y="424.0" type="line"/>
      <point x="143.63636363636363" y="400.72727272727275" type="line"/>
      <point x="126.45454545454545" y="412.90909090909093" type="line"/>
    </contour>
    <contour>
      <point x="419.54545454545456" y="450.0" type="curve"/>
      <point x="371.3636363636364" y="450.0" type="line"/>
      <point x="358.36887114999996" y="420.01208027672726"/>
      <point x="351.5182019470909" y="407.846580387"/>
      <point x="227.63636363636363" y="247.0" type="curve"/>
      <point x="243.72727272727272" y="237.0" type="line"/>
      <point x="384.9914953896364" y="401.14504745945453"/>
      <point x="418.5454679969091" y="420.0004035458182"/>
    </contour>
    <contour>
      <point x="8.0" y="0.0" type="curve"/>
      <point x="60.27272727272727" y="0.0" type="line"/>
      <point x="75.2808266917091" y="34.018358683054544"/>
      <point x="82.73472801256364" y="45.7728370714"/>
      <point x="224.9090909090909" y="231.0" type="curve"/>
      <point x="208.8181818181818" y="241.0" type="line"/>
      <point x="49.540841620472726" y="54.84460864390909"/>
      <point x="8.999990802" y="33.99968726838182"/>
    </contour>
  </outline>
</glyph>
<glyph name="y" format="2">
  <advance width="420.27272727272725"/>
  <unicode hex="0079"/>
  <anchor x="267.8181818181818" y="510.0" name="top"/>
  <anchor x="219.0" y="-40.0" name="bottom"/>
  <outline>
    <contour>
      <point x="18.09090909090909" y="424.54545454545456" type="line"/>
      <point x="121.27272727272727" y="397.90909090909093" type="line"/>
      <point x="85.18181818181819" y="434.09090909090907" type="line"/>
      <point x="181.9090909090909" y="2.1818181818181817" type="line"/>
      <point x="229.63636363636363" y="63.18181818181818" type="line"/>
      <point x="229.63636363636363" y="88.63636363636364" type="line"/>
      <point x="222.1818181818182" y="88.63636363636364" type="line"/>
      <point x="142.9090909090909" y="460.0" type="line"/>
      <point x="139.36363636363637" y="460.0" type="line"/>
      <point x="18.09090909090909" y="432.72727272727275" type="line"/>
    </contour>
    <contour>
      <point x="-20.81818181818182" y="-240.0" type="curve" smooth="yes"/>
      <point x="11.545454545454545" y="-240.0"/>
      <point x="48.72727272727273" y="-220.9090909090909"/>
      <point x="80.63636363636364" y="-183.0" type="curve" smooth="yes"/>
      <point x="116.63636363636364" y="-141.0"/>
      <point x="121.18181818181819" y="-124.0"/>
      <point x="149.63636363636363" y="-79.0" type="curve" smooth="yes"/>
      <point x="349.72727272727275" y="240.54545454545453" type="line" smooth="yes"/>
      <point x="398.09090909090907" y="317.8181818181818"/>
      <point x="413.54545454545456" y="358.8181818181818"/>
      <point x="413.54545454545456" y="388.09090909090907" type="curve" smooth="yes"/>
      <point x="413.54545454545456" y="424.1818181818182"/>
      <point x="392.3636363636364" y="460.0"/>
      <point x="363.8181818181818" y="460.0" type="curve" smooth="yes"/>
      <point x="353.72727272727275" y="460.0"/>
      <point x="349.27272727272725" y="456.54545454545456"/>
      <point x="341.45454545454544" y="443.54545454545456" type="curve" smooth="yes"/>
      <point x="325.45454545454544" y="417.90909090909093" type="line"/>
      <point x="325.45454545454544" y="414.45454545454544" type="line"/>
      <point x="340.09090909090907" y="405.90909090909093" type="line" smooth="yes"/>
      <point x="355.0" y="397.0"/>
      <point x="364.8181818181818" y="384.90909090909093"/>
      <point x="364.8181818181818" y="362.27272727272725" type="curve" smooth="yes"/>
      <point x="364.8181818181818" y="331.27272727272725"/>
      <point x="347.6363636363636" y="286.8181818181818"/>
      <point x="305.27272727272725" y="218.0909090909091" type="curve" smooth="yes"/>
      <point x="128.45454545454547" y="-70.0" type="line" smooth="yes"/>
      <point x="67.72727272727272" y="-168.63636363636363"/>
      <point x="61.27272727272727" y="-174.45454545454547"/>
      <point x="5.09090909090909" y="-174.45454545454547" type="curve" smooth="yes"/>
      <point x="-45.09090909090909" y="-174.45454545454547" type="line"/>
      <point x="-49.90909090909091" y="-178.27272727272728" type="line"/>
      <point x="-49.90909090909091" y="-211.0" type="line" smooth="yes"/>
      <point x="-49.90909090909091" y="-232.0"/>
      <point x="-40.81818181818182" y="-240.0"/>
    </contour>
  </outline>
</glyph>
<glyph name="z" format="2">
  <advance width="401.0"/>
  <unicode hex="007A"/>
  <anchor x="250.0" y="510.0" name="top"/>
  <anchor x="161.0" y="0.0" name="bottom"/>
  <outline>
    <contour>
      <point x="30.363636363636363" y="-1.5454545454545454" type="line"/>
      <point x="45.36363636363637" y="16.0" type="line" smooth="yes"/>
      <point x="64.81818181818181" y="39.0"/>
      <point x="81.45454545454545" y="47.90909090909091"/>
      <point x="102.9090909090909" y="47.90909090909091" type="curve" smooth="yes"/>
      <point x="111.9090909090909" y="47.90909090909091"/>
      <point x="121.36363636363636" y="46.45454545454545"/>
      <point x="132.27272727272728" y="43.45454545454545" type="curve" smooth="yes"/>
      <point x="315.8181818181818" y="-5.0" type="line"/>
      <point x="344.6363636363636" y="133.0909090909091" type="line"/>
      <point x="328.6363636363636" y="133.0909090909091" type="line"/>
      <point x="276.54545454545456" y="33.0" type="line"/>
      <point x="309.27272727272725" y="51.63636363636364" type="line"/>
      <point x="112.36363636363636" y="104.18181818181819" type="line"/>
      <point x="112.36363636363636" y="87.0909090909091" type="line"/>
      <point x="372.90909090909093" y="435.3636363636364" type="line"/>
      <point x="365.1818181818182" y="450.0" type="line"/>
      <point x="95.0" y="450.0" type="line"/>
      <point x="76.72727272727273" y="331.45454545454544" type="line"/>
      <point x="92.72727272727273" y="331.45454545454544" type="line"/>
      <point x="138.27272727272728" y="422.0" type="line"/>
      <point x="108.63636363636364" y="399.27272727272725" type="line"/>
      <point x="329.90909090909093" y="399.27272727272725" type="line"/>
      <point x="329.90909090909093" y="426.09090909090907" type="line"/>
      <point x="16.545454545454547" y="11.181818181818182" type="line"/>
    </contour>
  </outline>
</glyph>
<glyph name="braceleft" format="2">
  <advance width="250.0"/>
  <unicode hex="007B"/>
  <outline>
    <contour>
      <point x="167.27272727272728" y="-150.0" type="line"/>
      <point x="170.1818181818182" y="-132.45454545454547" type="line"/>
      <point x="156.72727272727272" y="-132.45454545454547" type="line" smooth="yes"/>
      <point x="103.0909090909091" y="-132.45454545454547"/>
      <point x="79.63636363636364" y="-104.72727272727273"/>
      <point x="79.63636363636364" y="-57.63636363636363" type="curve" smooth="yes"/>
      <point x="79.63636363636364" y="17.727272727272727"/>
      <point x="162.72727272727272" y="137.8181818181818"/>
      <point x="162.72727272727272" y="207.0" type="curve" smooth="yes"/>
      <point x="162.72727272727272" y="251.0"/>
      <point x="146.1818181818182" y="279.54545454545456"/>
      <point x="95.45454545454545" y="295.0" type="curve"/>
      <point x="178.63636363636363" y="320.90909090909093"/>
      <point x="199.45454545454547" y="379.90909090909093"/>
      <point x="199.45454545454547" y="440.90909090909093" type="curve" smooth="yes"/>
      <point x="199.45454545454547" y="485.54545454545456"/>
      <point x="185.8181818181818" y="538.3636363636364"/>
      <point x="185.8181818181818" y="588.5454545454545" type="curve" smooth="yes"/>
      <point x="185.8181818181818" y="667.5454545454545"/>
      <point x="220.72727272727272" y="722.4545454545455"/>
      <point x="297.8181818181818" y="722.4545454545455" type="curve" smooth="yes"/>
      <point x="312.90909090909093" y="722.4545454545455" type="line"/>
      <point x="315.8181818181818" y="740.0" type="line"/>
      <point x="307.09090909090907" y="740.0" type="line" smooth="yes"/>
      <point x="188.27272727272728" y="740.0"/>
      <point x="138.63636363636363" y="671.0909090909091"/>
      <point x="138.63636363636363" y="569.8181818181819" type="curve" smooth="yes"/>
      <point x="138.63636363636363" y="521.7272727272727"/>
      <point x="153.63636363636363" y="467.54545454545456"/>
      <point x="153.63636363636363" y="422.0" type="curve" smooth="yes"/>
      <point x="153.63636363636363" y="363.0"/>
      <point x="130.0909090909091" y="304.27272727272725"/>
      <point x="54.09090909090909" y="304.27272727272725" type="curve" smooth="yes"/>
      <point x="31.09090909090909" y="304.27272727272725" type="line"/>
      <point x="28.18181818181818" y="286.72727272727275" type="line"/>
      <point x="52.18181818181818" y="286.72727272727275" type="line" smooth="yes"/>
      <point x="102.18181818181819" y="286.72727272727275"/>
      <point x="119.63636363636364" y="256.0"/>
      <point x="119.63636363636364" y="221.0" type="curve" smooth="yes"/>
      <point x="119.63636363636364" y="136.45454545454547"/>
      <point x="35.63636363636364" y="42.36363636363637"/>
      <point x="35.63636363636364" y="-49.18181818181818" type="curve" smooth="yes"/>
      <point x="35.63636363636364" y="-110.0909090909091"/>
      <point x="73.54545454545455" y="-150.0"/>
      <point x="158.54545454545453" y="-150.0" type="curve" smooth="yes"/>
    </contour>
  </outline>
</glyph>
<glyph name="bar" format="2">
  <advance width="250.0"/>
  <unicode hex="007C"/>
  <outline>
    <contour>
      <point x="17.90909090909091" y="-250.0" type="line"/>
      <point x="55.63636363636363" y="-250.0" type="line"/>
      <point x="232.0909090909091" y="750.0" type="line"/>
      <point x="193.9090909090909" y="750.0" type="line"/>
    </contour>
  </outline>
</glyph>
<glyph name="braceright" format="2">
  <advance width="250.0"/>
  <unicode hex="007D"/>
  <outline>
    <contour>
      <point x="-55.63636363636363" y="-150.0" type="line"/>
      <point x="-46.36363636363637" y="-150.0" type="line" smooth="yes"/>
      <point x="72.45454545454545" y="-150.0"/>
      <point x="121.54545454545455" y="-80.54545454545455"/>
      <point x="121.54545454545455" y="20.18181818181818" type="curve" smooth="yes"/>
      <point x="121.54545454545455" y="68.27272727272727"/>
      <point x="106.54545454545455" y="122.45454545454545"/>
      <point x="106.54545454545455" y="168.0" type="curve" smooth="yes"/>
      <point x="106.54545454545455" y="227.0"/>
      <point x="130.0909090909091" y="285.72727272727275"/>
      <point x="206.0909090909091" y="285.72727272727275" type="curve" smooth="yes"/>
      <point x="229.0909090909091" y="285.72727272727275" type="line"/>
      <point x="232.0" y="303.27272727272725" type="line"/>
      <point x="208.0" y="303.27272727272725" type="line" smooth="yes"/>
      <point x="158.0" y="303.27272727272725"/>
      <point x="140.54545454545453" y="334.0"/>
      <point x="140.54545454545453" y="369.0" type="curve" smooth="yes"/>
      <point x="140.54545454545453" y="453.54545454545456"/>
      <point x="224.54545454545453" y="547.6363636363636"/>
      <point x="224.54545454545453" y="639.1818181818181" type="curve" smooth="yes"/>
      <point x="224.54545454545453" y="700.0909090909091"/>
      <point x="186.63636363636363" y="740.0"/>
      <point x="101.63636363636364" y="740.0" type="curve" smooth="yes"/>
      <point x="92.9090909090909" y="740.0" type="line"/>
      <point x="90.0" y="722.4545454545455" type="line"/>
      <point x="103.45454545454545" y="722.4545454545455" type="line" smooth="yes"/>
      <point x="157.0909090909091" y="722.4545454545455"/>
      <point x="180.54545454545453" y="694.7272727272727"/>
      <point x="180.54545454545453" y="647.6363636363636" type="curve" smooth="yes"/>
      <point x="180.54545454545453" y="572.2727272727273"/>
      <point x="97.45454545454545" y="452.1818181818182"/>
      <point x="97.45454545454545" y="383.0" type="curve" smooth="yes"/>
      <point x="97.45454545454545" y="339.0"/>
      <point x="114.0" y="310.45454545454544"/>
      <point x="164.72727272727272" y="295.0" type="curve"/>
      <point x="81.54545454545455" y="269.09090909090907"/>
      <point x="60.72727272727273" y="210.0909090909091"/>
      <point x="60.72727272727273" y="149.0909090909091" type="curve" smooth="yes"/>
      <point x="60.72727272727273" y="104.45454545454545"/>
      <point x="74.36363636363636" y="51.63636363636363"/>
      <point x="74.36363636363636" y="1.4545454545454541" type="curve" smooth="yes"/>
      <point x="74.36363636363636" y="-77.54545454545455"/>
      <point x="39.45454545454545" y="-132.45454545454547"/>
      <point x="-37.63636363636364" y="-132.45454545454547" type="curve" smooth="yes"/>
      <point x="-52.72727272727273" y="-132.45454545454547" type="line"/>
    </contour>
  </outline>
</glyph>
<glyph name="asciitilde" format="2">
  <advance width="500.0"/>
  <unicode hex="007E"/>
  <outline>
    <contour>
      <point x="339.1818181818182" y="201.0" type="curve" smooth="yes"/>
      <point x="405.8181818181818" y="201.0"/>
      <point x="451.45454545454544" y="253.0"/>
      <point x="466.54545454545456" y="343.0" type="curve"/>
      <point x="429.8181818181818" y="343.0" type="line"/>
      <point x="418.6363636363636" y="279.54545454545456"/>
      <point x="390.6363636363636" y="235.72727272727272"/>
      <point x="343.1818181818182" y="235.72727272727272" type="curve" smooth="yes"/>
      <point x="263.27272727272725" y="235.72727272727272"/>
      <point x="251.36363636363637" y="343.0"/>
      <point x="151.36363636363637" y="343.0" type="curve" smooth="yes"/>
      <point x="84.72727272727273" y="343.0"/>
      <point x="38.54545454545455" y="291.0"/>
      <point x="23.454545454545453" y="201.0" type="curve"/>
      <point x="60.18181818181818" y="201.0" type="line"/>
      <point x="71.36363636363636" y="264.45454545454544"/>
      <point x="99.36363636363636" y="308.27272727272725"/>
      <point x="146.8181818181818" y="308.27272727272725" type="curve" smooth="yes"/>
      <point x="227.8181818181818" y="308.27272727272725"/>
      <point x="238.0909090909091" y="201.0"/>
    </contour>
  </outline>
</glyph>
<glyph name="exclamdown" format="2">
  <advance width="226.27272727272728"/>
  <unicode hex="00A1"/>
  <outline>
    <contour>
      <point x="-22.0" y="-207.27272727272728" type="line"/>
      <point x="51.27272727272727" y="-207.27272727272728" type="line"/>
      <point x="105.18181818181819" y="252.72727272727272" type="line"/>
      <point x="89.36363636363636" y="252.72727272727272" type="line"/>
    </contour>
    <contour>
      <point x="119.27272727272727" y="354.72727272727275" type="curve" smooth="yes"/>
      <point x="152.0" y="354.72727272727275"/>
      <point x="174.27272727272728" y="384.6363636363636"/>
      <point x="174.27272727272728" y="412.6363636363636" type="curve" smooth="yes"/>
      <point x="174.27272727272728" y="438.90909090909093"/>
      <point x="160.9090909090909" y="457.72727272727275"/>
      <point x="131.1818181818182" y="457.72727272727275" type="curve" smooth="yes"/>
      <point x="98.0" y="457.72727272727275"/>
      <point x="76.18181818181819" y="427.8181818181818"/>
      <point x="76.18181818181819" y="399.27272727272725" type="curve" smooth="yes"/>
      <point x="76.18181818181819" y="373.54545454545456"/>
      <point x="90.0909090909091" y="354.72727272727275"/>
    </contour>
  </outline>
</glyph>
<glyph name="cent" format="2">
  <advance width="500.0"/>
  <unicode hex="00A2"/>
  <outline>
    <contour>
      <point x="220.36363636363637" y="95.0" type="curve" smooth="yes"/>
      <point x="300.60400616327274" y="95.0"/>
      <point x="363.28434277454545" y="155.88047610472728"/>
      <point x="403.0" y="238.72727272727272" type="curve"/>
      <point x="388.6363636363636" y="248.54545454545453" type="line"/>
      <point x="386.6363636363636" y="248.54545454545453" type="line"/>
      <point x="344.6673840341818" y="179.3927890958182"/>
      <point x="301.1818181818182" y="144.54545454545453"/>
      <point x="244.0909090909091" y="144.54545454545453" type="curve" smooth="yes"/>
      <point x="175.36363636363637" y="144.54545454545453"/>
      <point x="136.0" y="196.0909090909091"/>
      <point x="136.0" y="289.8181818181818" type="curve" smooth="yes"/>
      <point x="136.0" y="419.2555282554545"/>
      <point x="207.8181818181818" y="529.9090909090909"/>
      <point x="295.1818181818182" y="529.9090909090909" type="curve" smooth="yes"/>
      <point x="337.1818181818182" y="529.9090909090909"/>
      <point x="355.6330285370909" y="509.5630714930909"/>
      <point x="376.0" y="475.6363636363636" type="curve" smooth="yes"/>
      <point x="389.45454545454544" y="454.27272727272725" type="line"/>
      <point x="394.8181818181818" y="454.27272727272725" type="line"/>
      <point x="422.1818181818182" y="471.27272727272725" type="line" smooth="yes"/>
      <point x="430.45454545454544" y="476.1818181818182"/>
      <point x="433.90909090909093" y="483.90909090909093"/>
      <point x="433.90909090909093" y="491.27272727272725" type="curve" smooth="yes"/>
      <point x="433.90909090909093" y="500.8181818181818"/>
      <point x="428.6363636363636" y="511.09090909090907"/>
      <point x="417.3636363636364" y="523.6363636363636" type="curve" smooth="yes"/>
      <point x="397.27272727272725" y="546.6363636363636"/>
      <point x="365.54545454545456" y="565.0"/>
      <point x="317.09090909090907" y="565.0" type="curve" smooth="yes"/>
      <point x="193.8181818181818" y="565.0"/>
      <point x="74.54545454545455" y="412.8181818181818"/>
      <point x="74.54545454545455" y="265.0" type="curve" smooth="yes"/>
      <point x="74.54545454545455" y="161.0909090909091"/>
      <point x="123.27272727272727" y="95.0"/>
    </contour>
    <contour>
      <point x="119.54545454545455" y="26.0" type="line"/>
      <point x="151.72727272727272" y="26.0" type="line"/>
      <point x="395.72727272727275" y="635.0" type="line"/>
      <point x="363.54545454545456" y="635.0" type="line"/>
    </contour>
  </outline>
</glyph>
<glyph name="sterling" format="2">
  <advance width="500.0"/>
  <unicode hex="00A3"/>
  <outline>
    <contour>
      <point x="28.181818181818183" y="0.0" type="line"/>
      <point x="392.3636363636364" y="0.0" type="line"/>
      <point x="429.1818181818182" y="155.27272727272728" type="line"/>
      <point x="405.0" y="155.27272727272728" type="line"/>
      <point x="357.8181818181818" y="58.27272727272727" type="line"/>
      <point x="88.63636363636364" y="58.27272727272727" type="line"/>
      <point x="105.0909090909091" y="51.18181818181818" type="line"/>
      <point x="211.1818181818182" y="121.63636363636364"/>
      <point x="254.8181818181818" y="188.36363636363637"/>
      <point x="254.8181818181818" y="255.36363636363637" type="curve" smooth="yes"/>
      <point x="254.8181818181818" y="332.8181818181818"/>
      <point x="200.72727272727272" y="414.54545454545456"/>
      <point x="200.72727272727272" y="495.09090909090907" type="curve" smooth="yes"/>
      <point x="200.72727272727272" y="577.0"/>
      <point x="257.27272727272725" y="632.7272727272727"/>
      <point x="334.0" y="632.7272727272727" type="curve" smooth="yes"/>
      <point x="388.8181818181818" y="632.7272727272727"/>
      <point x="413.3636363636364" y="607.2727272727273"/>
      <point x="428.90909090909093" y="568.8181818181819" type="curve" smooth="yes"/>
      <point x="439.45454545454544" y="542.8181818181819" type="line"/>
      <point x="445.90909090909093" y="542.8181818181819" type="line"/>
      <point x="471.54545454545456" y="559.0" type="line" smooth="yes"/>
      <point x="483.6363636363636" y="565.9090909090909"/>
      <point x="489.09090909090907" y="573.0"/>
      <point x="489.09090909090907" y="583.0" type="curve" smooth="yes"/>
      <point x="489.09090909090907" y="591.0"/>
      <point x="486.09090909090907" y="600.0"/>
      <point x="478.09090909090907" y="613.0" type="curve" smooth="yes"/>
      <point x="461.1818181818182" y="639.9090909090909"/>
      <point x="425.45454545454544" y="670.0"/>
      <point x="359.90909090909093" y="670.0" type="curve" smooth="yes"/>
      <point x="240.0" y="670.0"/>
      <point x="143.36363636363637" y="561.9090909090909"/>
      <point x="143.36363636363637" y="452.45454545454544" type="curve" smooth="yes"/>
      <point x="143.36363636363637" y="376.45454545454544"/>
      <point x="192.0909090909091" y="305.45454545454544"/>
      <point x="192.0909090909091" y="235.8181818181818" type="curve" smooth="yes"/>
      <point x="192.0909090909091" y="168.72727272727272"/>
      <point x="145.63636363636363" y="111.0909090909091"/>
      <point x="32.09090909090909" y="25.454545454545453" type="curve"/>
    </contour>
    <contour>
      <point x="78.81818181818181" y="318.27272727272725" type="line"/>
      <point x="411.3636363636364" y="318.27272727272725" type="line"/>
      <point x="417.72727272727275" y="349.72727272727275" type="line"/>
      <point x="84.72727272727273" y="349.72727272727275" type="line"/>
    </contour>
  </outline>
</glyph>
<glyph name="currency" format="2">
  <advance width="500.0"/>
  <unicode hex="00A4"/>
  <outline>
    <contour>
      <point x="390.90909090909093" y="62.0" type="line"/>
      <point x="421.09090909090907" y="86.9090909090909" type="line"/>
      <point x="352.3636363636364" y="168.9090909090909" type="line"/>
      <point x="384.27272727272725" y="201.8181818181818"/>
      <point x="399.8181818181818" y="245.27272727272728"/>
      <point x="399.8181818181818" y="290.6363636363636" type="curve" smooth="yes"/>
      <point x="399.8181818181818" y="319.1818181818182"/>
      <point x="392.27272727272725" y="346.1818181818182"/>
      <point x="377.6363636363636" y="368.6363636363636" type="curve"/>
      <point x="474.27272727272725" y="454.1818181818182" type="line"/>
      <point x="450.27272727272725" y="482.0" type="line"/>
      <point x="354.1818181818182" y="396.45454545454544" type="line"/>
      <point x="330.1818181818182" y="417.54545454545456"/>
      <point x="296.72727272727275" y="429.6363636363636"/>
      <point x="259.72727272727275" y="429.6363636363636" type="curve" smooth="yes"/>
      <point x="223.63636363636363" y="429.6363636363636"/>
      <point x="188.1818181818182" y="418.90909090909093"/>
      <point x="162.0909090909091" y="400.09090909090907" type="curve"/>
      <point x="93.45454545454545" y="482.0" type="line"/>
      <point x="63.81818181818182" y="457.6363636363636" type="line"/>
      <point x="131.9090909090909" y="376.72727272727275" type="line"/>
      <point x="100.0" y="342.72727272727275"/>
      <point x="85.0" y="299.27272727272725"/>
      <point x="85.0" y="255.45454545454547" type="curve" smooth="yes"/>
      <point x="85.0" y="225.36363636363637"/>
      <point x="92.54545454545455" y="198.36363636363637"/>
      <point x="106.63636363636364" y="175.8181818181818" type="curve"/>
      <point x="10.090909090909092" y="89.81818181818181" type="line"/>
      <point x="33.54545454545455" y="62.0" type="line"/>
      <point x="130.0909090909091" y="148.0" type="line"/>
      <point x="154.0909090909091" y="126.9090909090909"/>
      <point x="187.0" y="114.36363636363636"/>
      <point x="224.45454545454547" y="114.36363636363636" type="curve" smooth="yes"/>
      <point x="260.6363636363636" y="114.36363636363636"/>
      <point x="293.90909090909093" y="125.0909090909091"/>
      <point x="322.1818181818182" y="144.45454545454547" type="curve"/>
    </contour>
    <contour>
      <point x="229.36363636363637" y="148.0909090909091" type="curve" smooth="yes"/>
      <point x="165.72727272727272" y="148.0909090909091"/>
      <point x="122.54545454545455" y="190.9090909090909"/>
      <point x="122.54545454545455" y="257.27272727272725" type="curve" smooth="yes"/>
      <point x="122.54545454545455" y="337.27272727272725"/>
      <point x="178.45454545454547" y="395.90909090909093"/>
      <point x="255.36363636363637" y="395.90909090909093" type="curve" smooth="yes"/>
      <point x="318.0" y="395.90909090909093"/>
      <point x="360.6363636363636" y="353.09090909090907"/>
      <point x="360.6363636363636" y="287.72727272727275" type="curve" smooth="yes"/>
      <point x="360.6363636363636" y="211.0909090909091"/>
      <point x="307.45454545454544" y="148.0909090909091"/>
    </contour>
  </outline>
</glyph>
<glyph name="yen" format="2">
  <advance width="500.0"/>
  <unicode hex="00A5"/>
  <outline>
    <contour>
      <point x="88.54545454545455" y="0.0" type="line"/>
      <point x="312.1818181818182" y="0.0" type="line"/>
      <point x="315.1818181818182" y="14.909090909090908" type="line"/>
      <point x="234.0909090909091" y="42.36363636363636" type="line"/>
      <point x="300.45454545454544" y="426.0" type="line"/>
      <point x="271.6363636363636" y="369.72727272727275" type="line"/>
      <point x="502.09090909090907" y="639.0" type="line"/>
      <point x="465.8181818181818" y="618.0" type="line"/>
      <point x="538.7272727272727" y="645.0909090909091" type="line"/>
      <point x="541.1818181818181" y="660.0" type="line"/>
      <point x="384.3636363636364" y="660.0" type="line"/>
      <point x="381.90909090909093" y="645.0909090909091" type="line"/>
      <point x="442.8181818181818" y="625.0909090909091" type="line"/>
      <point x="441.8181818181818" y="622.0909090909091" type="line"/>
      <point x="274.90909090909093" y="415.0" type="line"/>
      <point x="288.1818181818182" y="415.45454545454544" type="line"/>
      <point x="180.9090909090909" y="625.4545454545455" type="line"/>
      <point x="181.45454545454544" y="627.4545454545455" type="line"/>
      <point x="245.0909090909091" y="645.0909090909091" type="line"/>
      <point x="247.54545454545453" y="660.0" type="line"/>
      <point x="77.9090909090909" y="660.0" type="line"/>
      <point x="75.45454545454545" y="645.0909090909091" type="line"/>
      <point x="146.54545454545453" y="615.8181818181819" type="line"/>
      <point x="100.72727272727272" y="642.8181818181819" type="line"/>
      <point x="256.27272727272725" y="357.72727272727275" type="line"/>
      <point x="240.54545454545453" y="426.0" type="line"/>
      <point x="174.1818181818182" y="42.36363636363636" type="line"/>
      <point x="91.54545454545455" y="14.909090909090908" type="line"/>
    </contour>
    <contour>
      <point x="78.54545454545455" y="242.27272727272728" type="line"/>
      <point x="401.72727272727275" y="242.27272727272728" type="line"/>
      <point x="407.6363636363636" y="273.72727272727275" type="line"/>
      <point x="84.45454545454545" y="273.72727272727275" type="line"/>
    </contour>
    <contour>
      <point x="103.54545454545455" y="392.27272727272725" type="line"/>
      <point x="425.72727272727275" y="392.27272727272725" type="line"/>
      <point x="432.09090909090907" y="423.72727272727275" type="line"/>
      <point x="109.45454545454545" y="423.72727272727275" type="line"/>
    </contour>
  </outline>
</glyph>
<glyph name="brokenbar" format="2">
  <advance width="250.0"/>
  <unicode hex="00A6"/>
  <outline>
    <contour>
      <point x="123.36363636363636" y="350.0" type="line"/>
      <point x="161.54545454545453" y="350.0" type="line"/>
      <point x="231.54545454545453" y="750.0" type="line"/>
      <point x="193.36363636363637" y="750.0" type="line"/>
    </contour>
    <contour>
      <point x="17.363636363636363" y="-250.0" type="line"/>
      <point x="55.09090909090909" y="-250.0" type="line"/>
      <point x="125.63636363636364" y="150.0" type="line"/>
      <point x="87.9090909090909" y="150.0" type="line"/>
    </contour>
  </outline>
</glyph>
<glyph name="section" format="2">
  <advance width="465.45271672363634"/>
  <unicode hex="00A7"/>
  <outline>
    <contour>
      <point x="410.9090909090909" y="302.6363636363636" type="curve" smooth="yes"/>
      <point x="410.9090909090909" y="449.1818181818182"/>
      <point x="175.45454545454544" y="390.1818181818182"/>
      <point x="175.45454545454544" y="519.0" type="curve" smooth="yes"/>
      <point x="175.45454545454544" y="583.6363636363636"/>
      <point x="229.27272727272728" y="627.6363636363636"/>
      <point x="284.72727272727275" y="627.6363636363636" type="curve" smooth="yes"/>
      <point x="316.1818181818182" y="627.6363636363636"/>
      <point x="336.90909090909093" y="615.8181818181819"/>
      <point x="352.72727272727275" y="596.1818181818181" type="curve" smooth="yes"/>
      <point x="371.45454545454544" y="573.0909090909091" type="line"/>
      <point x="374.90909090909093" y="573.0909090909091" type="line"/>
      <point x="401.9090909090909" y="595.1818181818181" type="line" smooth="yes"/>
      <point x="410.8181818181818" y="602.5454545454545"/>
      <point x="414.72727272727275" y="608.4545454545455"/>
      <point x="415.1818181818182" y="613.3636363636364" type="curve" smooth="yes"/>
      <point x="416.72727272727275" y="621.8181818181819"/>
      <point x="411.1818181818182" y="629.8181818181819"/>
      <point x="404.6363636363636" y="639.2727272727273" type="curve" smooth="yes"/>
      <point x="390.8181818181818" y="655.5454545454545"/>
      <point x="367.9090909090909" y="669.4545454545455"/>
      <point x="337.72727272727275" y="669.4545454545455" type="curve" smooth="yes"/>
      <point x="214.9090909090909" y="669.4545454545455"/>
      <point x="123.54545454545455" y="577.0909090909091"/>
      <point x="123.54545454545455" y="485.09090909090907" type="curve" smooth="yes"/>
      <point x="123.54545454545455" y="340.8181818181818"/>
      <point x="358.6363636363636" y="407.54545454545456"/>
      <point x="358.6363636363636" y="274.0" type="curve" smooth="yes"/>
      <point x="358.6363636363636" y="213.36363636363637"/>
      <point x="299.3636363636364" y="168.45454545454547"/>
      <point x="238.8181818181818" y="166.8181818181818" type="curve"/>
      <point x="214.27272727272728" y="134.54545454545453" type="line"/>
      <point x="335.1818181818182" y="149.9090909090909"/>
      <point x="410.9090909090909" y="210.54545454545453"/>
    </contour>
    <contour>
      <point x="98.9090909090909" y="-119.45454545454545" type="curve" smooth="yes"/>
      <point x="218.72727272727272" y="-119.45454545454545"/>
      <point x="321.3636363636364" y="-26.90909090909091"/>
      <point x="321.3636363636364" y="71.63636363636364" type="curve" smooth="yes"/>
      <point x="321.3636363636364" y="221.63636363636363"/>
      <point x="79.63636363636364" y="148.0909090909091"/>
      <point x="79.63636363636364" y="282.8181818181818" type="curve" smooth="yes"/>
      <point x="79.63636363636364" y="344.27272727272725"/>
      <point x="130.27272727272728" y="390.1818181818182"/>
      <point x="199.1818181818182" y="392.72727272727275" type="curve"/>
      <point x="226.9090909090909" y="425.0" type="line"/>
      <point x="107.9090909090909" y="410.45454545454544"/>
      <point x="27.0" y="345.1818181818182"/>
      <point x="27.0" y="252.54545454545453" type="curve" smooth="yes"/>
      <point x="27.0" y="105.27272727272728"/>
      <point x="268.72727272727275" y="171.0"/>
      <point x="269.6363636363636" y="41.09090909090909" type="curve" smooth="yes"/>
      <point x="270.09090909090907" y="-24.181818181818183"/>
      <point x="219.63636363636363" y="-75.27272727272728"/>
      <point x="148.27272727272728" y="-75.27272727272728" type="curve" smooth="yes"/>
      <point x="111.18181818181819" y="-75.27272727272728"/>
      <point x="89.9090909090909" y="-58.36363636363636"/>
      <point x="73.0" y="-37.81818181818182" type="curve" smooth="yes"/>
      <point x="54.90909090909091" y="-17.09090909090909" type="line"/>
      <point x="50.45454545454545" y="-17.09090909090909" type="line"/>
      <point x="26.454545454545453" y="-37.27272727272727" type="line" smooth="yes"/>
      <point x="13.818181818181818" y="-46.90909090909091"/>
      <point x="11.0" y="-54.18181818181818"/>
      <point x="10.454545454545455" y="-59.72727272727273" type="curve" smooth="yes"/>
      <point x="8.454545454545455" y="-68.18181818181819"/>
      <point x="13.0" y="-76.63636363636364"/>
      <point x="20.90909090909091" y="-87.0" type="curve" smooth="yes"/>
      <point x="35.81818181818182" y="-104.27272727272727"/>
      <point x="66.81818181818181" y="-119.45454545454545"/>
    </contour>
  </outline>
</glyph>
<glyph name="copyright" format="2">
  <advance width="806.0"/>
  <unicode hex="00A9"/>
  <outline>
    <contour>
      <point x="361.0" y="-10.0" type="curve" smooth="yes"/>
      <point x="586.0" y="-10.0"/>
      <point x="740.0" y="170.9090909090909"/>
      <point x="740.0" y="374.0" type="curve" smooth="yes"/>
      <point x="740.0" y="543.0"/>
      <point x="617.5454545454545" y="670.0"/>
      <point x="444.0" y="670.0" type="curve" smooth="yes"/>
      <point x="219.0" y="670.0"/>
      <point x="66.0" y="491.27272727272725"/>
      <point x="66.0" y="287.0" type="curve" smooth="yes"/>
      <point x="66.0" y="117.0"/>
      <point x="188.0" y="-10.0"/>
    </contour>
    <contour>
      <point x="363.0" y="18.545454545454547" type="curve" smooth="yes"/>
      <point x="208.1818181818182" y="18.545454545454547"/>
      <point x="99.9090909090909" y="134.72727272727272"/>
      <point x="99.9090909090909" y="291.0" type="curve" smooth="yes"/>
      <point x="99.9090909090909" y="487.27272727272725"/>
      <point x="246.1818181818182" y="641.4545454545455"/>
      <point x="442.0" y="641.4545454545455" type="curve" smooth="yes"/>
      <point x="602.6363636363636" y="641.4545454545455"/>
      <point x="706.0909090909091" y="524.2727272727273"/>
      <point x="706.0909090909091" y="370.0" type="curve" smooth="yes"/>
      <point x="706.0909090909091" y="172.72727272727272"/>
      <point x="559.8181818181819" y="18.545454545454547"/>
    </contour>
    <contour>
      <point x="381.8181818181818" y="129.0" type="curve" smooth="yes"/>
      <point x="430.90125391863637" y="129.0"/>
      <point x="469.09786853227274" y="142.13435917636363"/>
      <point x="505.54545454545456" y="161.72727272727272" type="curve"/>
      <point x="528.9090909090909" y="256.72727272727275" type="line"/>
      <point x="507.8181818181818" y="256.72727272727275" type="line"/>
      <point x="453.45454545454544" y="170.0" type="line"/>
      <point x="483.90909090909093" y="196.9090909090909" type="line"/>
      <point x="458.11736008136364" y="180.0782400540909"/>
      <point x="431.50378787863633" y="162.45454545454547"/>
      <point x="390.72727272727275" y="162.45454545454547" type="curve" smooth="yes"/>
      <point x="318.45454545454544" y="162.45454545454547"/>
      <point x="276.09090909090907" y="214.1818181818182"/>
      <point x="276.09090909090907" y="296.27272727272725" type="curve" smooth="yes"/>
      <point x="276.09090909090907" y="410.72727272727275"/>
      <point x="343.1818181818182" y="505.90909090909093"/>
      <point x="440.54545454545456" y="505.90909090909093" type="curve" smooth="yes"/>
      <point x="474.90909090909093" y="505.90909090909093"/>
      <point x="496.8863810818182" y="493.02352338454546"/>
      <point x="528.4545454545455" y="464.0" type="curve"/>
      <point x="510.1818181818182" y="492.54545454545456" type="line"/>
      <point x="529.2727272727273" y="406.54545454545456" type="line"/>
      <point x="549.2727272727273" y="406.54545454545456" type="line"/>
      <point x="564.0909090909091" y="510.09090909090907" type="line"/>
      <point x="530.3636363636364" y="529.0909090909091"/>
      <point x="502.90909090909093" y="540.0"/>
      <point x="451.45454545454544" y="540.0" type="curve" smooth="yes"/>
      <point x="319.27272727272725" y="540.0"/>
      <point x="222.0909090909091" y="421.0"/>
      <point x="222.0909090909091" y="293.3636363636364" type="curve" smooth="yes"/>
      <point x="222.0909090909091" y="196.45454545454547"/>
      <point x="282.00448933772725" y="129.0"/>
    </contour>
  </outline>
</glyph>
<glyph name="ordfeminine" format="2">
  <advance width="389.09090909090907"/>
  <unicode hex="00AA"/>
  <outline>
    <contour>
      <point x="155.0909090909091" y="417.0" type="curve" smooth="yes"/>
      <point x="187.8282828281818" y="417.0"/>
      <point x="214.4061560559091" y="436.51753759136363"/>
      <point x="247.9090909090909" y="478.6363636363636" type="curve"/>
      <point x="264.09090909090907" y="478.6363636363636" type="line"/>
      <point x="264.09090909090907" y="520.2727272727273" type="line"/>
      <point x="240.54545454545453" y="489.6363636363636"/>
      <point x="211.72727272727272" y="451.72727272727275"/>
      <point x="183.27272727272728" y="451.72727272727275" type="curve" smooth="yes"/>
      <point x="164.0909090909091" y="451.72727272727275"/>
      <point x="154.72727272727272" y="468.6363636363636"/>
      <point x="154.72727272727272" y="501.6363636363636" type="curve" smooth="yes"/>
      <point x="154.72727272727272" y="571.1818181818181"/>
      <point x="184.0909090909091" y="650.0909090909091"/>
      <point x="236.0" y="650.0909090909091" type="curve" smooth="yes"/>
      <point x="255.36363636363637" y="650.0909090909091"/>
      <point x="269.90909090909093" y="640.6363636363636"/>
      <point x="280.6363636363636" y="623.5454545454545" type="curve"/>
      <point x="278.3636363636364" y="638.0" type="line"/>
      <point x="249.8181818181818" y="475.8181818181818" type="line" smooth="yes"/>
      <point x="242.72727272727272" y="437.27272727272725"/>
      <point x="256.09090909090907" y="417.0"/>
      <point x="283.09090909090907" y="417.0" type="curve" smooth="yes"/>
      <point x="310.0" y="417.0"/>
      <point x="337.27272727272725" y="437.8181818181818"/>
      <point x="358.09090909090907" y="487.09090909090907" type="curve"/>
      <point x="346.72727272727275" y="491.54545454545456" type="line"/>
      <point x="333.3636363636364" y="463.54545454545456"/>
      <point x="320.1818181818182" y="448.90909090909093"/>
      <point x="308.0" y="448.90909090909093" type="curve" smooth="yes"/>
      <point x="299.09090909090907" y="448.90909090909093"/>
      <point x="295.09090909090907" y="458.45454545454544"/>
      <point x="300.1818181818182" y="486.54545454545456" type="curve" smooth="yes"/>
      <point x="332.54545454545456" y="667.2727272727273" type="line"/>
      <point x="325.0" y="667.2727272727273" type="line"/>
      <point x="290.72727272727275" y="648.2727272727273" type="line"/>
      <point x="301.3636363636364" y="647.6363636363636" type="line"/>
      <point x="289.27272727272725" y="659.0"/>
      <point x="268.72727272727275" y="670.0"/>
      <point x="243.8181818181818" y="670.0" type="curve" smooth="yes"/>
      <point x="170.27272727272728" y="670.0"/>
      <point x="105.45454545454545" y="572.9090909090909"/>
      <point x="105.45454545454545" y="488.27272727272725" type="curve" smooth="yes"/>
      <point x="105.45454545454545" y="442.0"/>
      <point x="126.63636363636364" y="417.0"/>
    </contour>
    <contour>
      <point x="80.0" y="298.54545454545456" type="line"/>
      <point x="301.27272727272725" y="298.54545454545456" type="line"/>
      <point x="308.09090909090907" y="336.54545454545456" type="line"/>
      <point x="86.81818181818181" y="336.54545454545456" type="line"/>
    </contour>
  </outline>
</glyph>
<glyph name="logicalnot" format="2">
  <advance width="500.0"/>
  <unicode hex="00AC"/>
  <outline>
    <contour>
      <point x="371.72727272727275" y="62.0" type="line"/>
      <point x="410.3636363636364" y="62.0" type="line"/>
      <point x="450.27272727272725" y="289.54545454545456" type="line"/>
      <point x="41.54545454545455" y="289.54545454545456" type="line"/>
      <point x="35.18181818181818" y="254.45454545454547" type="line"/>
      <point x="405.27272727272725" y="254.45454545454547" type="line"/>
    </contour>
  </outline>
</glyph>
